# WaveFront *.obj file (generated by Autodesk ATF)

mtllib narwhal_weight.mtl

g Body1

v 0.250000 0.070797 0.015000
v 0.250000 0.072547 0.014684
v 0.250000 0.074076 0.013775
v 0.250000 0.075190 0.012388
v 0.250000 0.075748 0.010699
v 0.000000 0.075748 0.010699
v 0.000000 0.075190 0.012388
v 0.000000 0.074076 0.013775
v 0.000000 0.072547 0.014684
v 0.000000 0.070797 0.015000
v 0.214286 0.072547 0.014684
v 0.178571 0.072547 0.014684
v 0.142857 0.072547 0.014684
v 0.107143 0.072547 0.014684
v 0.071429 0.072547 0.014684
v 0.035714 0.072547 0.014684
v 0.214286 0.074076 0.013775
v 0.178571 0.074076 0.013775
v 0.142857 0.074076 0.013775
v 0.107143 0.074076 0.013775
v 0.071429 0.074076 0.013775
v 0.035714 0.074076 0.013775
v 0.214286 0.075190 0.012388
v 0.178571 0.075190 0.012388
v 0.142857 0.075190 0.012388
v 0.107143 0.075190 0.012388
v 0.071429 0.075190 0.012388
v 0.035714 0.075190 0.012388
v 0.000000 0.060175 0.015000
v 0.250000 0.060175 0.015000
v 0.000000 0.076466 0.002289
v 0.000000 0.076252 -0.006149
v 0.000000 0.075111 -0.014513
v 0.000000 0.073055 -0.022699
v 0.000000 0.070109 -0.030610
v 0.000000 0.066310 -0.038147
v 0.000000 0.061704 -0.045220
v 0.000000 0.056346 -0.051743
v 0.000000 0.050303 -0.057636
v 0.000000 0.043647 -0.062827
v 0.000000 0.036459 -0.067253
v 0.000000 0.028828 -0.070860
v 0.000000 0.020846 -0.073605
v 0.000000 0.012610 -0.075454
v 0.000000 0.004220 -0.076383
v 0.000000 -0.004220 -0.076383
v 0.000000 -0.012610 -0.075454
v 0.000000 -0.020846 -0.073605
v 0.000000 -0.028828 -0.070860
v 0.000000 -0.036459 -0.067253
v 0.000000 -0.043647 -0.062827
v 0.000000 -0.050303 -0.057636
v 0.000000 -0.056346 -0.051743
v 0.000000 -0.061704 -0.045220
v 0.000000 -0.066310 -0.038147
v 0.000000 -0.070109 -0.030610
v 0.000000 -0.073055 -0.022699
v 0.000000 -0.075111 -0.014513
v 0.000000 -0.076252 -0.006149
v 0.000000 -0.076466 0.002289
v 0.000000 -0.075748 0.010699
v 0.000000 -0.075190 0.012388
v 0.000000 -0.074076 0.013775
v 0.000000 -0.072547 0.014684
v 0.000000 -0.070797 0.015000
v 0.000000 -0.060175 0.015000
v 0.000000 -0.058073 0.014537
v 0.000000 -0.056360 0.013233
v 0.000000 -0.055355 0.011330
v 0.000000 -0.055242 0.009180
v 0.000000 -0.055963 0.002023
v 0.000000 -0.055761 -0.005169
v 0.000000 -0.054638 -0.012275
v 0.000000 -0.052614 -0.019178
v 0.000000 -0.049721 -0.025765
v 0.000000 -0.046008 -0.031926
v 0.000000 -0.041535 -0.037561
v 0.000000 -0.036377 -0.042576
v 0.000000 -0.030619 -0.046888
v 0.000000 -0.024355 -0.050427
v 0.000000 -0.017689 -0.053133
v 0.000000 -0.010732 -0.054962
v 0.000000 -0.003597 -0.055884
v 0.000000 0.003597 -0.055884
v 0.000000 0.010732 -0.054962
v 0.000000 0.017689 -0.053133
v 0.000000 0.024355 -0.050427
v 0.000000 0.030619 -0.046888
v 0.000000 0.036377 -0.042576
v 0.000000 0.041535 -0.037561
v 0.000000 0.046008 -0.031926
v 0.000000 0.049721 -0.025765
v 0.000000 0.052614 -0.019178
v 0.000000 0.054638 -0.012275
v 0.000000 0.055761 -0.005169
v 0.000000 0.055963 0.002023
v 0.000000 0.055242 0.009180
v 0.000000 0.055355 0.011330
v 0.000000 0.056360 0.013233
v 0.000000 0.058073 0.014537
v 0.250000 -0.075748 0.010699
v 0.250000 -0.075190 0.012388
v 0.250000 -0.074076 0.013775
v 0.250000 -0.072547 0.014684
v 0.250000 -0.070797 0.015000
v 0.214286 -0.075190 0.012388
v 0.178571 -0.075190 0.012388
v 0.142857 -0.075190 0.012388
v 0.107143 -0.075190 0.012388
v 0.071429 -0.075190 0.012388
v 0.035714 -0.075190 0.012388
v 0.214286 -0.074076 0.013775
v 0.178571 -0.074076 0.013775
v 0.142857 -0.074076 0.013775
v 0.107143 -0.074076 0.013775
v 0.071429 -0.074076 0.013775
v 0.035714 -0.074076 0.013775
v 0.214286 -0.072547 0.014684
v 0.178571 -0.072547 0.014684
v 0.142857 -0.072547 0.014684
v 0.107143 -0.072547 0.014684
v 0.071429 -0.072547 0.014684
v 0.035714 -0.072547 0.014684
v 0.250000 -0.060175 0.015000
v 0.250000 -0.058073 0.014537
v 0.250000 -0.056360 0.013233
v 0.250000 -0.055355 0.011330
v 0.250000 -0.055242 0.009180
v 0.208333 -0.058073 0.014537
v 0.166667 -0.058073 0.014537
v 0.125000 -0.058073 0.014537
v 0.083333 -0.058073 0.014537
v 0.041667 -0.058073 0.014537
v 0.208333 -0.056360 0.013233
v 0.166667 -0.056360 0.013233
v 0.125000 -0.056360 0.013233
v 0.083333 -0.056360 0.013233
v 0.041667 -0.056360 0.013233
v 0.208333 -0.055355 0.011330
v 0.166667 -0.055355 0.011330
v 0.125000 -0.055355 0.011330
v 0.083333 -0.055355 0.011330
v 0.041667 -0.055355 0.011330
v 0.250000 0.055242 0.009180
v 0.250000 0.055355 0.011330
v 0.250000 0.056360 0.013233
v 0.250000 0.058073 0.014537
v 0.208333 0.055355 0.011330
v 0.166667 0.055355 0.011330
v 0.125000 0.055355 0.011330
v 0.083333 0.055355 0.011330
v 0.041667 0.055355 0.011330
v 0.208333 0.056360 0.013233
v 0.166667 0.056360 0.013233
v 0.125000 0.056360 0.013233
v 0.083333 0.056360 0.013233
v 0.041667 0.056360 0.013233
v 0.208333 0.058073 0.014537
v 0.166667 0.058073 0.014537
v 0.125000 0.058073 0.014537
v 0.083333 0.058073 0.014537
v 0.041667 0.058073 0.014537
v 0.250000 -0.055963 0.002023
v 0.250000 -0.055761 -0.005169
v 0.250000 -0.054638 -0.012275
v 0.250000 -0.052614 -0.019178
v 0.250000 -0.049721 -0.025765
v 0.250000 -0.046008 -0.031926
v 0.250000 -0.041535 -0.037561
v 0.250000 -0.036377 -0.042576
v 0.250000 -0.030619 -0.046888
v 0.250000 -0.024355 -0.050427
v 0.250000 -0.017689 -0.053133
v 0.250000 -0.010732 -0.054962
v 0.250000 -0.003597 -0.055884
v 0.250000 0.003597 -0.055884
v 0.250000 0.010732 -0.054962
v 0.250000 0.017689 -0.053133
v 0.250000 0.024355 -0.050427
v 0.250000 0.030619 -0.046888
v 0.250000 0.036377 -0.042576
v 0.250000 0.041535 -0.037561
v 0.250000 0.046008 -0.031926
v 0.250000 0.049721 -0.025765
v 0.250000 0.052614 -0.019178
v 0.250000 0.054638 -0.012275
v 0.250000 0.055761 -0.005169
v 0.250000 0.055963 0.002023
v 0.125000 -0.055963 0.002023
v 0.125000 -0.055761 -0.005169
v 0.125000 -0.054638 -0.012275
v 0.125000 -0.052614 -0.019178
v 0.125000 -0.049721 -0.025765
v 0.125000 -0.046008 -0.031926
v 0.125000 -0.041535 -0.037561
v 0.125000 -0.036377 -0.042576
v 0.125000 -0.030619 -0.046888
v 0.125000 -0.024355 -0.050427
v 0.125000 -0.017689 -0.053133
v 0.125000 -0.010732 -0.054962
v 0.125000 -0.003597 -0.055884
v 0.125000 0.003597 -0.055884
v 0.125000 0.010732 -0.054962
v 0.125000 0.017689 -0.053133
v 0.125000 0.024355 -0.050427
v 0.125000 0.030619 -0.046888
v 0.125000 0.036377 -0.042576
v 0.125000 0.041535 -0.037561
v 0.125000 0.046008 -0.031926
v 0.125000 0.049721 -0.025765
v 0.125000 0.052614 -0.019178
v 0.125000 0.054638 -0.012275
v 0.125000 0.055761 -0.005169
v 0.125000 0.055963 0.002023
v 0.250000 0.076466 0.002289
v 0.250000 0.076252 -0.006149
v 0.250000 0.075111 -0.014513
v 0.250000 0.073055 -0.022699
v 0.250000 0.070109 -0.030610
v 0.250000 0.066310 -0.038147
v 0.250000 0.061704 -0.045220
v 0.250000 0.056346 -0.051743
v 0.250000 0.050303 -0.057636
v 0.250000 0.043647 -0.062827
v 0.250000 0.036459 -0.067253
v 0.250000 0.028828 -0.070860
v 0.250000 0.020846 -0.073605
v 0.250000 0.012610 -0.075454
v 0.250000 0.004220 -0.076383
v 0.250000 -0.004220 -0.076383
v 0.250000 -0.012610 -0.075454
v 0.250000 -0.020846 -0.073605
v 0.250000 -0.028828 -0.070860
v 0.250000 -0.036459 -0.067253
v 0.250000 -0.043647 -0.062827
v 0.250000 -0.050303 -0.057636
v 0.250000 -0.056346 -0.051743
v 0.250000 -0.061704 -0.045220
v 0.250000 -0.066310 -0.038147
v 0.250000 -0.070109 -0.030610
v 0.250000 -0.073055 -0.022699
v 0.250000 -0.075111 -0.014513
v 0.250000 -0.076252 -0.006149
v 0.250000 -0.076466 0.002289
v 0.125000 0.076466 0.002289
v 0.125000 0.076252 -0.006149
v 0.125000 0.075111 -0.014513
v 0.125000 0.073055 -0.022699
v 0.125000 0.070109 -0.030610
v 0.125000 0.066310 -0.038147
v 0.125000 0.061704 -0.045220
v 0.125000 0.056346 -0.051743
v 0.125000 0.050303 -0.057636
v 0.125000 0.043647 -0.062827
v 0.125000 0.036459 -0.067253
v 0.125000 0.028828 -0.070860
v 0.125000 0.020846 -0.073605
v 0.125000 0.012610 -0.075454
v 0.125000 0.004220 -0.076383
v 0.125000 -0.004220 -0.076383
v 0.125000 -0.012610 -0.075454
v 0.125000 -0.020846 -0.073605
v 0.125000 -0.028828 -0.070860
v 0.125000 -0.036459 -0.067253
v 0.125000 -0.043647 -0.062827
v 0.125000 -0.050303 -0.057636
v 0.125000 -0.056346 -0.051743
v 0.125000 -0.061704 -0.045220
v 0.125000 -0.066310 -0.038147
v 0.125000 -0.070109 -0.030610
v 0.125000 -0.073055 -0.022699
v 0.125000 -0.075111 -0.014513
v 0.125000 -0.076252 -0.006149
v 0.125000 -0.076466 0.002289
vt -25.000000 0.178810 0.000000
vt -21.428571 0.178810 0.000000
vt -25.000000 0.357619 0.000000
vt -17.857143 0.178810 0.000000
vt -14.285714 0.178810 0.000000
vt -14.285714 0.000000 0.000000
vt -10.714286 0.000000 0.000000
vt -10.714286 -0.178810 0.000000
vt -7.142857 -0.178810 0.000000
vt -0.000000 -0.357619 0.000000
vt -3.571429 -0.178810 0.000000
vt -0.000000 -0.178810 0.000000
vt -3.571429 0.000000 0.000000
vt -0.000000 0.000000 0.000000
vt -3.571429 0.178810 0.000000
vt -0.000000 0.178810 0.000000
vt -0.000000 0.357619 0.000000
vt -21.428571 0.000000 0.000000
vt -25.000000 0.000000 0.000000
vt -21.428571 -0.178810 0.000000
vt -25.000000 -0.178810 0.000000
vt -25.000000 -0.357619 0.000000
vt -14.285714 -0.178810 0.000000
vt -17.857143 -0.178810 0.000000
vt -10.714286 0.178810 0.000000
vt -7.142857 0.178810 0.000000
vt -17.857143 0.000000 0.000000
vt -7.142857 0.000000 0.000000
vt 0.421775 0.000000 0.000000
vt 1.484025 0.000000 0.000000
vt 0.421775 25.000000 0.000000
vt 1.484025 25.000000 0.000000
vt -7.254747 4.543366 0.000000
vt -7.407623 4.452469 0.000000
vt -7.079725 4.575000 0.000000
vt -7.519009 4.313808 0.000000
vt -7.574810 4.144930 0.000000
vt -5.524239 3.993033 0.000000
vt -7.646575 3.303896 0.000000
vt -5.596347 3.277251 0.000000
vt -5.576096 2.558131 0.000000
vt -7.625245 2.460076 0.000000
vt -5.463822 1.847542 0.000000
vt -7.511082 1.623742 0.000000
vt -5.261376 1.157209 0.000000
vt -7.305474 0.805076 0.000000
vt -4.972101 0.498526 0.000000
vt -7.010924 0.014046 0.000000
vt -4.600769 -0.117636 0.000000
vt -6.631020 -0.739718 0.000000
vt -4.153510 -0.681109 0.000000
vt -6.170385 -1.447040 0.000000
vt -3.637704 -1.182595 0.000000
vt -5.634629 -2.099307 0.000000
vt -3.061864 -1.613815 0.000000
vt -5.030273 -2.688580 0.000000
vt -2.435493 -1.967655 0.000000
vt -4.364676 -3.207683 0.000000
vt -3.645940 -3.650297 0.000000
vt -1.768928 -2.238275 0.000000
vt -2.882817 -4.011033 0.000000
vt -1.073171 -2.421208 0.000000
vt -2.084596 -4.285500 0.000000
vt -1.260997 -4.470355 0.000000
vt -0.359702 -2.513436 0.000000
vt -0.422045 -4.563349 0.000000
vt 0.422045 -4.563349 0.000000
vt 0.359702 -2.513436 0.000000
vt 1.260997 -4.470355 0.000000
vt 1.073171 -2.421208 0.000000
vt 2.084596 -4.285500 0.000000
vt 2.882817 -4.011033 0.000000
vt 1.768928 -2.238275 0.000000
vt 3.645940 -3.650297 0.000000
vt 2.435493 -1.967655 0.000000
vt 4.364676 -3.207683 0.000000
vt 5.030273 -2.688580 0.000000
vt 3.061864 -1.613815 0.000000
vt 5.634629 -2.099307 0.000000
vt 3.637704 -1.182595 0.000000
vt 6.170385 -1.447040 0.000000
vt 4.153510 -0.681109 0.000000
vt 6.631020 -0.739718 0.000000
vt 4.600769 -0.117636 0.000000
vt 7.010924 0.014046 0.000000
vt 4.972101 0.498526 0.000000
vt 7.305474 0.805076 0.000000
vt 5.261376 1.157209 0.000000
vt 7.511082 1.623742 0.000000
vt 5.463822 1.847542 0.000000
vt 7.625245 2.460076 0.000000
vt 5.576096 2.558131 0.000000
vt 7.646575 3.303896 0.000000
vt 5.596347 3.277251 0.000000
vt 5.524239 3.993033 0.000000
vt 7.574810 4.144930 0.000000
vt 7.079725 4.575000 0.000000
vt 7.519009 4.313808 0.000000
vt 7.407623 4.452469 0.000000
vt 7.254747 4.543366 0.000000
vt 5.535481 4.207976 0.000000
vt 6.017475 4.575000 0.000000
vt 5.636041 4.398277 0.000000
vt 5.807283 4.528673 0.000000
vt -5.535481 4.207976 0.000000
vt -6.017475 4.575000 0.000000
vt -5.636041 4.398277 0.000000
vt -5.807283 4.528673 0.000000
vt -25.000000 0.178810 0.000000
vt -21.428571 0.178810 0.000000
vt -25.000000 0.357619 0.000000
vt -17.857143 0.178810 0.000000
vt -14.285714 0.178810 0.000000
vt -14.285714 0.000000 0.000000
vt -10.714286 0.000000 0.000000
vt -10.714286 -0.178810 0.000000
vt -7.142857 -0.178810 0.000000
vt -0.000000 -0.357619 0.000000
vt -3.571429 -0.178810 0.000000
vt -0.000000 -0.178810 0.000000
vt -3.571429 0.000000 0.000000
vt -0.000000 0.000000 0.000000
vt -3.571429 0.178810 0.000000
vt -0.000000 0.178810 0.000000
vt -0.000000 0.357619 0.000000
vt -21.428571 0.000000 0.000000
vt -25.000000 0.000000 0.000000
vt -21.428571 -0.178810 0.000000
vt -25.000000 -0.178810 0.000000
vt -25.000000 -0.357619 0.000000
vt -14.285714 -0.178810 0.000000
vt -17.857143 -0.178810 0.000000
vt -10.714286 0.178810 0.000000
vt -7.142857 0.178810 0.000000
vt -17.857143 0.000000 0.000000
vt -7.142857 0.000000 0.000000
vt 1.684356 25.000000 0.000000
vt 0.622106 25.000000 0.000000
vt 1.684356 0.000000 0.000000
vt 0.622106 0.000000 0.000000
vt -25.000000 0.216934 0.000000
vt -20.833333 0.216934 0.000000
vt -25.000000 0.433869 0.000000
vt -16.666667 0.216934 0.000000
vt -12.500000 0.216934 0.000000
vt -12.500000 -0.000000 0.000000
vt -8.333333 -0.000000 0.000000
vt -8.333333 -0.216934 0.000000
vt -4.166667 -0.216934 0.000000
vt -0.000000 -0.433869 0.000000
vt -0.000000 -0.216934 0.000000
vt -20.833333 -0.000000 0.000000
vt -25.000000 -0.000000 0.000000
vt -20.833333 -0.216934 0.000000
vt -25.000000 -0.216934 0.000000
vt -25.000000 -0.433869 0.000000
vt -12.500000 -0.216934 0.000000
vt -16.666667 -0.216934 0.000000
vt -4.166667 -0.000000 0.000000
vt -0.000000 -0.000000 0.000000
vt -4.166667 0.216934 0.000000
vt -0.000000 0.216934 0.000000
vt -0.000000 0.433869 0.000000
vt -8.333333 0.216934 0.000000
vt -16.666667 -0.000000 0.000000
vt -25.000000 0.216934 0.000000
vt -20.833333 0.216934 0.000000
vt -25.000000 0.433869 0.000000
vt -16.666667 0.216934 0.000000
vt -12.500000 0.216934 0.000000
vt -12.500000 0.000000 0.000000
vt -8.333333 0.000000 0.000000
vt -8.333333 -0.216934 0.000000
vt -4.166667 -0.216934 0.000000
vt -0.000000 -0.433869 0.000000
vt -0.000000 -0.216934 0.000000
vt -20.833333 0.000000 0.000000
vt -25.000000 0.000000 0.000000
vt -20.833333 -0.216934 0.000000
vt -25.000000 -0.216934 0.000000
vt -25.000000 -0.433869 0.000000
vt -12.500000 -0.216934 0.000000
vt -16.666667 -0.216934 0.000000
vt -4.166667 0.000000 0.000000
vt -0.000000 0.000000 0.000000
vt -4.166667 0.216934 0.000000
vt -0.000000 0.216934 0.000000
vt -0.000000 0.433869 0.000000
vt -8.333333 0.216934 0.000000
vt -16.666667 0.000000 0.000000
vt 0.000000 17.390624 0.000000
vt 0.000000 16.670724 0.000000
vt 12.500000 17.390624 0.000000
vt 25.000000 16.670724 0.000000
vt 25.000000 17.390624 0.000000
vt 12.500000 18.110524 0.000000
vt 25.000000 18.110524 0.000000
vt 12.500000 18.830425 0.000000
vt 25.000000 18.830425 0.000000
vt 12.500000 19.550325 0.000000
vt 25.000000 19.550325 0.000000
vt 12.500000 20.270225 0.000000
vt 25.000000 20.270225 0.000000
vt 12.500000 20.990126 0.000000
vt 25.000000 20.990126 0.000000
vt 12.500000 21.710026 0.000000
vt 25.000000 21.710026 0.000000
vt 12.500000 22.429926 0.000000
vt 25.000000 22.429926 0.000000
vt 12.500000 23.149827 0.000000
vt 25.000000 23.149827 0.000000
vt 12.500000 23.869727 0.000000
vt 25.000000 23.869727 0.000000
vt 12.500000 24.589627 0.000000
vt 25.000000 24.589627 0.000000
vt 12.500000 25.309528 0.000000
vt 25.000000 25.309528 0.000000
vt 12.500000 26.029428 0.000000
vt 25.000000 26.029428 0.000000
vt 12.500000 26.749328 0.000000
vt 25.000000 26.749328 0.000000
vt 12.500000 27.469229 0.000000
vt 25.000000 27.469229 0.000000
vt 12.500000 28.189129 0.000000
vt 25.000000 28.189129 0.000000
vt 12.500000 28.909029 0.000000
vt 25.000000 28.909029 0.000000
vt 12.500000 29.628930 0.000000
vt 25.000000 29.628930 0.000000
vt 12.500000 30.348830 0.000000
vt 25.000000 30.348830 0.000000
vt 12.500000 31.068731 0.000000
vt 25.000000 31.068731 0.000000
vt 12.500000 31.788631 0.000000
vt 25.000000 31.788631 0.000000
vt 12.500000 32.508531 0.000000
vt 25.000000 32.508531 0.000000
vt 12.500000 33.228432 0.000000
vt 25.000000 33.228432 0.000000
vt 12.500000 33.948332 0.000000
vt 25.000000 33.948332 0.000000
vt 12.500000 34.668232 0.000000
vt 25.000000 34.668232 0.000000
vt 12.500000 35.388133 0.000000
vt 25.000000 35.388133 0.000000
vt 25.000000 36.108033 0.000000
vt 0.000000 36.108033 0.000000
vt 0.000000 35.388133 0.000000
vt 0.000000 34.668232 0.000000
vt 0.000000 33.948332 0.000000
vt 0.000000 33.228432 0.000000
vt 0.000000 32.508531 0.000000
vt 0.000000 31.788631 0.000000
vt 0.000000 31.068731 0.000000
vt 0.000000 30.348830 0.000000
vt 0.000000 29.628930 0.000000
vt 0.000000 28.909029 0.000000
vt 0.000000 28.189129 0.000000
vt 0.000000 27.469229 0.000000
vt 0.000000 26.749328 0.000000
vt 0.000000 26.029428 0.000000
vt 0.000000 25.309528 0.000000
vt 0.000000 24.589627 0.000000
vt -0.000000 23.869727 0.000000
vt 0.000000 23.149827 0.000000
vt 0.000000 22.429926 0.000000
vt 0.000000 21.710026 0.000000
vt 0.000000 20.990126 0.000000
vt 0.000000 20.270225 0.000000
vt 0.000000 19.550325 0.000000
vt 0.000000 18.830425 0.000000
vt 0.000000 18.110524 0.000000
vt -0.000000 0.228930 0.000000
vt -0.000000 1.073449 0.000000
vt -12.500000 0.228930 0.000000
vt -25.000000 1.073449 0.000000
vt -25.000000 0.228930 0.000000
vt -12.500000 -0.615588 0.000000
vt -25.000000 -0.615588 0.000000
vt -12.500000 -1.460107 0.000000
vt -25.000000 -1.460107 0.000000
vt -12.500000 -2.304626 0.000000
vt -25.000000 -2.304626 0.000000
vt -12.500000 -3.149145 0.000000
vt -25.000000 -3.149145 0.000000
vt -12.500000 -3.993663 0.000000
vt -25.000000 -3.993663 0.000000
vt -12.500000 -4.838182 0.000000
vt -25.000000 -4.838182 0.000000
vt -12.500000 -5.682701 0.000000
vt -25.000000 -5.682701 0.000000
vt -12.500000 -6.527220 0.000000
vt -25.000000 -6.527220 0.000000
vt -12.500000 -7.371739 0.000000
vt -25.000000 -7.371739 0.000000
vt -12.500000 -8.216257 0.000000
vt -25.000000 -8.216257 0.000000
vt -12.500000 -9.060776 0.000000
vt -25.000000 -9.060776 0.000000
vt -12.500000 -9.905295 0.000000
vt -25.000000 -9.905295 0.000000
vt -12.500000 -10.749814 0.000000
vt -25.000000 -10.749814 0.000000
vt -12.500000 -11.594333 0.000000
vt -25.000000 -11.594333 0.000000
vt -12.500000 -12.438851 0.000000
vt -25.000000 -12.438851 0.000000
vt -12.500000 -13.283370 0.000000
vt -25.000000 -13.283370 0.000000
vt -12.500000 -14.127889 0.000000
vt -25.000000 -14.127889 0.000000
vt -12.500000 -14.972408 0.000000
vt -25.000000 -14.972408 0.000000
vt -12.500000 -15.816926 0.000000
vt -25.000000 -15.816926 0.000000
vt -12.500000 -16.661445 0.000000
vt -25.000000 -16.661445 0.000000
vt -12.500000 -17.505964 0.000000
vt -25.000000 -17.505964 0.000000
vt -12.500000 -18.350483 0.000000
vt -25.000000 -18.350483 0.000000
vt -12.500000 -19.195002 0.000000
vt -25.000000 -19.195002 0.000000
vt -12.500000 -20.039520 0.000000
vt -25.000000 -20.039520 0.000000
vt -12.500000 -20.884039 0.000000
vt -25.000000 -20.884039 0.000000
vt -12.500000 -21.728558 0.000000
vt -25.000000 -21.728558 0.000000
vt -12.500000 -22.573077 0.000000
vt -25.000000 -22.573077 0.000000
vt -12.500000 -23.417595 0.000000
vt -25.000000 -23.417595 0.000000
vt -12.500000 -24.262114 0.000000
vt -25.000000 -24.262114 0.000000
vt -25.000000 -25.106633 0.000000
vt -0.000000 -25.106633 0.000000
vt -0.000000 -24.262114 0.000000
vt -0.000000 -23.417595 0.000000
vt -0.000000 -22.573077 0.000000
vt -0.000000 -21.728558 0.000000
vt -0.000000 -20.884039 0.000000
vt -0.000000 -20.039520 0.000000
vt -0.000000 -19.195002 0.000000
vt -0.000000 -18.350483 0.000000
vt -0.000000 -17.505964 0.000000
vt -0.000000 -16.661445 0.000000
vt -0.000000 -15.816926 0.000000
vt -0.000000 -14.972408 0.000000
vt -0.000000 -14.127889 0.000000
vt -0.000000 -13.283370 0.000000
vt -0.000000 -12.438851 0.000000
vt -0.000000 -11.594333 0.000000
vt -0.000000 -10.749814 0.000000
vt -0.000000 -9.905295 0.000000
vt -0.000000 -9.060776 0.000000
vt -0.000000 -8.216257 0.000000
vt -0.000000 -7.371739 0.000000
vt -0.000000 -6.527220 0.000000
vt -0.000000 -5.682701 0.000000
vt -0.000000 -4.838182 0.000000
vt -0.000000 -3.993663 0.000000
vt -0.000000 -3.149145 0.000000
vt -0.000000 -2.304626 0.000000
vt -0.000000 -1.460107 0.000000
vt -0.000000 -0.615588 0.000000
vt 7.519009 4.313808 0.000000
vt 7.079725 4.575000 0.000000
vt 7.574810 4.144930 0.000000
vt 5.524239 3.993033 0.000000
vt 7.646575 3.303896 0.000000
vt 5.596347 3.277251 0.000000
vt 5.576096 2.558131 0.000000
vt 7.407623 4.452469 0.000000
vt 7.254747 4.543366 0.000000
vt 5.535481 4.207976 0.000000
vt 6.017475 4.575000 0.000000
vt 5.636041 4.398277 0.000000
vt 5.807283 4.528673 0.000000
vt 7.625245 2.460076 0.000000
vt 5.463822 1.847542 0.000000
vt 7.511082 1.623742 0.000000
vt 5.261376 1.157209 0.000000
vt 7.305474 0.805076 0.000000
vt 4.972101 0.498526 0.000000
vt 7.010924 0.014046 0.000000
vt 4.600769 -0.117636 0.000000
vt 6.631020 -0.739718 0.000000
vt 4.153510 -0.681109 0.000000
vt 6.170385 -1.447040 0.000000
vt 3.637704 -1.182595 0.000000
vt 5.634629 -2.099307 0.000000
vt 3.061864 -1.613815 0.000000
vt 5.030273 -2.688580 0.000000
vt 2.435493 -1.967655 0.000000
vt 4.364676 -3.207683 0.000000
vt 3.645940 -3.650297 0.000000
vt 1.768928 -2.238275 0.000000
vt 2.882817 -4.011033 0.000000
vt 1.073171 -2.421208 0.000000
vt 2.084596 -4.285500 0.000000
vt 1.260997 -4.470355 0.000000
vt 0.359702 -2.513436 0.000000
vt 0.422045 -4.563349 0.000000
vt -0.359702 -2.513436 0.000000
vt -0.422045 -4.563349 0.000000
vt -1.260997 -4.470355 0.000000
vt -1.073171 -2.421208 0.000000
vt -2.084596 -4.285500 0.000000
vt -2.882817 -4.011033 0.000000
vt -1.768928 -2.238275 0.000000
vt -3.645940 -3.650297 0.000000
vt -2.435493 -1.967655 0.000000
vt -4.364676 -3.207683 0.000000
vt -5.030273 -2.688580 0.000000
vt -3.061864 -1.613815 0.000000
vt -5.634629 -2.099307 0.000000
vt -3.637704 -1.182595 0.000000
vt -6.170385 -1.447040 0.000000
vt -4.153510 -0.681109 0.000000
vt -6.631020 -0.739718 0.000000
vt -4.600769 -0.117636 0.000000
vt -7.010924 0.014046 0.000000
vt -4.972101 0.498526 0.000000
vt -7.305474 0.805076 0.000000
vt -5.261376 1.157209 0.000000
vt -7.511082 1.623742 0.000000
vt -5.463822 1.847542 0.000000
vt -7.625245 2.460076 0.000000
vt -5.576096 2.558131 0.000000
vt -7.646575 3.303896 0.000000
vt -5.596347 3.277251 0.000000
vt -5.524239 3.993033 0.000000
vt -5.535481 4.207976 0.000000
vt -7.079725 4.575000 0.000000
vt -7.574810 4.144930 0.000000
vt -6.017475 4.575000 0.000000
vt -5.636041 4.398277 0.000000
vt -5.807283 4.528673 0.000000
vt -7.254747 4.543366 0.000000
vt -7.407623 4.452469 0.000000
vt -7.519009 4.313808 0.000000
vn 0.000000 35.004490 93.673292
vn 0.000000 35.004490 93.673292
vn 0.000000 -0.000000 100.000000
vn 0.000000 35.004490 93.673292
vn 0.000000 35.004490 93.673292
vn 0.000000 65.579717 75.493713
vn 0.000000 65.579717 75.493713
vn 0.000000 87.856870 47.761600
vn 0.000000 87.856870 47.761600
vn 0.000000 99.017127 13.986014
vn 0.000000 87.856870 47.761600
vn 0.000000 87.856870 47.761600
vn 0.000000 65.579717 75.493713
vn 0.000000 65.579717 75.493713
vn 0.000000 35.004490 93.673292
vn 0.000000 35.004490 93.673292
vn 0.000000 -0.000000 100.000000
vn 0.000000 65.579717 75.493713
vn 0.000000 65.579717 75.493713
vn 0.000000 87.856870 47.761600
vn 0.000000 87.856870 47.761600
vn 0.000000 99.017127 13.986014
vn 0.000000 87.856870 47.761600
vn 0.000000 87.856870 47.761600
vn 0.000000 35.004490 93.673292
vn 0.000000 35.004490 93.673292
vn 0.000000 65.579717 75.493713
vn 0.000000 65.579717 75.493713
vn 0.000000 0.000000 100.000000
vn 0.000000 0.000000 100.000000
vn -100.000000 0.000000 0.000000
vn -100.000000 0.000000 0.000000
vn -100.000000 0.000000 0.000000
vn -100.000000 0.000000 0.000000
vn -100.000000 0.000000 0.000000
vn -100.000000 0.000000 0.000000
vn -100.000000 0.000000 0.000000
vn -100.000000 0.000000 0.000000
vn -100.000000 0.000000 0.000000
vn -100.000000 0.000000 0.000000
vn -100.000000 0.000000 0.000000
vn -100.000000 0.000000 0.000000
vn -100.000000 0.000000 0.000000
vn -100.000000 0.000000 0.000000
vn -100.000000 0.000000 0.000000
vn -100.000000 0.000000 0.000000
vn -100.000000 0.000000 0.000000
vn -100.000000 0.000000 0.000000
vn -100.000000 0.000000 0.000000
vn -100.000000 0.000000 0.000000
vn -100.000000 0.000000 0.000000
vn -100.000000 0.000000 0.000000
vn -100.000000 0.000000 0.000000
vn -100.000000 0.000000 0.000000
vn -100.000000 0.000000 0.000000
vn -100.000000 0.000000 0.000000
vn -100.000000 0.000000 0.000000
vn -100.000000 0.000000 0.000000
vn -100.000000 0.000000 0.000000
vn -100.000000 0.000000 0.000000
vn -100.000000 0.000000 0.000000
vn -100.000000 0.000000 0.000000
vn -100.000000 0.000000 0.000000
vn -100.000000 0.000000 0.000000
vn -100.000000 0.000000 0.000000
vn -100.000000 0.000000 0.000000
vn -100.000000 0.000000 0.000000
vn -100.000000 0.000000 0.000000
vn -100.000000 0.000000 0.000000
vn -100.000000 0.000000 0.000000
vn -100.000000 0.000000 0.000000
vn -100.000000 0.000000 0.000000
vn -100.000000 0.000000 0.000000
vn -100.000000 0.000000 0.000000
vn -100.000000 0.000000 0.000000
vn -100.000000 0.000000 0.000000
vn -100.000000 0.000000 0.000000
vn -100.000000 0.000000 0.000000
vn -100.000000 0.000000 0.000000
vn -100.000000 0.000000 0.000000
vn -100.000000 0.000000 0.000000
vn -100.000000 0.000000 0.000000
vn -100.000000 0.000000 0.000000
vn -100.000000 0.000000 0.000000
vn -100.000000 0.000000 0.000000
vn -100.000000 0.000000 0.000000
vn -100.000000 0.000000 0.000000
vn -100.000000 0.000000 0.000000
vn -100.000000 0.000000 0.000000
vn -100.000000 0.000000 0.000000
vn -100.000000 0.000000 0.000000
vn -100.000000 0.000000 0.000000
vn -100.000000 0.000000 0.000000
vn -100.000000 0.000000 0.000000
vn -100.000000 0.000000 0.000000
vn -100.000000 0.000000 0.000000
vn -100.000000 0.000000 0.000000
vn -100.000000 0.000000 0.000000
vn -100.000000 0.000000 0.000000
vn -100.000000 0.000000 0.000000
vn -100.000000 0.000000 0.000000
vn -100.000000 0.000000 0.000000
vn -100.000000 0.000000 0.000000
vn -100.000000 0.000000 0.000000
vn -100.000000 0.000000 0.000000
vn -100.000000 0.000000 0.000000
vn 0.000000 -87.856870 47.761600
vn 0.000000 -87.856870 47.761600
vn 0.000000 -99.017127 13.986014
vn 0.000000 -87.856870 47.761600
vn 0.000000 -87.856870 47.761600
vn 0.000000 -65.579717 75.493713
vn 0.000000 -65.579717 75.493713
vn 0.000000 -35.004490 93.673292
vn 0.000000 -35.004490 93.673292
vn 0.000000 0.000000 100.000000
vn 0.000000 -35.004490 93.673292
vn 0.000000 -35.004490 93.673292
vn 0.000000 -65.579717 75.493713
vn 0.000000 -65.579717 75.493713
vn 0.000000 -87.856870 47.761600
vn 0.000000 -87.856870 47.761600
vn 0.000000 -99.017127 13.986014
vn 0.000000 -65.579717 75.493713
vn 0.000000 -65.579717 75.493713
vn 0.000000 -35.004490 93.673292
vn 0.000000 -35.004490 93.673292
vn 0.000000 0.000000 100.000000
vn 0.000000 -35.004490 93.673292
vn 0.000000 -35.004490 93.673292
vn 0.000000 -87.856870 47.761600
vn 0.000000 -87.856870 47.761600
vn 0.000000 -65.579717 75.493713
vn 0.000000 -65.579717 75.493713
vn 0.000000 0.000000 100.000000
vn 0.000000 0.000000 100.000000
vn 0.000000 42.038402 90.734628
vn 0.000000 42.038402 90.734628
vn 0.000000 42.038402 90.734628
vn 0.000000 42.038402 90.734628
vn 0.000000 76.286776 64.655455
vn 0.000000 76.286776 64.655455
vn 0.000000 96.398642 26.595145
vn 0.000000 96.398642 26.595145
vn -0.000000 98.647124 -16.393443
vn 0.000000 96.398642 26.595145
vn 0.000000 76.286776 64.655455
vn 0.000000 76.286776 64.655455
vn 0.000000 96.398642 26.595145
vn 0.000000 96.398642 26.595145
vn -0.000000 98.647124 -16.393443
vn 0.000000 96.398642 26.595145
vn 0.000000 96.398642 26.595145
vn 0.000000 76.286776 64.655455
vn 0.000000 76.286776 64.655455
vn 0.000000 42.038402 90.734628
vn 0.000000 42.038402 90.734628
vn 0.000000 42.038402 90.734628
vn 0.000000 76.286776 64.655455
vn 0.000000 -96.398642 26.595145
vn 0.000000 -96.398642 26.595145
vn 0.000000 -98.647124 -16.393443
vn 0.000000 -96.398642 26.595145
vn 0.000000 -96.398642 26.595145
vn 0.000000 -76.286776 64.655455
vn 0.000000 -76.286776 64.655455
vn 0.000000 -42.038402 90.734628
vn 0.000000 -42.038402 90.734628
vn 0.000000 -42.038402 90.734628
vn 0.000000 -76.286776 64.655455
vn 0.000000 -76.286776 64.655455
vn 0.000000 -42.038402 90.734628
vn 0.000000 -42.038402 90.734628
vn 0.000000 -42.038402 90.734628
vn 0.000000 -42.038402 90.734628
vn 0.000000 -76.286776 64.655455
vn 0.000000 -76.286776 64.655455
vn 0.000000 -96.398642 26.595145
vn 0.000000 -96.398642 26.595145
vn 0.000000 -98.647124 -16.393443
vn 0.000000 -96.398642 26.595145
vn 0.000000 -76.286776 64.655455
vn 0.000000 99.934760 -3.611624
vn 0.000000 99.934760 -3.611624
vn 0.000000 99.934760 -3.611624
vn 0.000000 99.573143 9.229799
vn 0.000000 99.573143 9.229799
vn 0.000000 97.568242 21.918899
vn 0.000000 97.568242 21.918899
vn 0.000000 93.953144 34.246266
vn 0.000000 93.953144 34.246266
vn 0.000000 88.787510 46.008457
vn 0.000000 88.787510 46.008457
vn 0.000000 82.156590 57.011356
vn 0.000000 82.156590 57.011356
vn 0.000000 74.169816 67.073381
vn 0.000000 74.169816 67.073381
vn 0.000000 64.958996 76.028474
vn 0.000000 64.958996 76.028474
vn 0.000000 54.676139 83.728847
vn 0.000000 54.676139 83.728847
vn 0.000000 43.490945 90.047419
vn 0.000000 43.490945 90.047419
vn 0.000000 31.588008 94.879912
vn 0.000000 31.588008 94.879912
vn 0.000000 19.163765 98.146575
vn 0.000000 19.163765 98.146575
vn 0.000000 6.423257 99.793496
vn 0.000000 6.423257 99.793496
vn 0.000000 -6.423257 99.793496
vn 0.000000 -6.423257 99.793496
vn 0.000000 -19.163765 98.146575
vn 0.000000 -19.163765 98.146575
vn 0.000000 -31.588008 94.879912
vn 0.000000 -31.588008 94.879912
vn 0.000000 -43.490945 90.047419
vn 0.000000 -43.490945 90.047419
vn 0.000000 -54.676139 83.728847
vn 0.000000 -54.676139 83.728847
vn 0.000000 -64.958996 76.028474
vn 0.000000 -64.958996 76.028474
vn 0.000000 -74.169816 67.073381
vn 0.000000 -74.169816 67.073381
vn 0.000000 -82.156590 57.011356
vn 0.000000 -82.156590 57.011356
vn 0.000000 -88.787510 46.008457
vn 0.000000 -88.787510 46.008457
vn 0.000000 -93.953144 34.246266
vn 0.000000 -93.953144 34.246266
vn 0.000000 -97.568242 21.918899
vn 0.000000 -97.568242 21.918899
vn 0.000000 -99.573143 9.229799
vn 0.000000 -99.573143 9.229799
vn 0.000000 -99.934760 -3.611624
vn 0.000000 -99.934760 -3.611624
vn 0.000000 -99.934760 -3.611624
vn 0.000000 -99.573143 9.229799
vn 0.000000 -97.568242 21.918899
vn 0.000000 -93.953144 34.246266
vn 0.000000 -88.787510 46.008457
vn 0.000000 -82.156590 57.011356
vn 0.000000 -74.169816 67.073381
vn 0.000000 -64.958996 76.028474
vn 0.000000 -54.676139 83.728847
vn 0.000000 -43.490945 90.047419
vn 0.000000 -31.588008 94.879912
vn 0.000000 -19.163765 98.146575
vn 0.000000 -6.423257 99.793496
vn 0.000000 6.423257 99.793496
vn 0.000000 19.163765 98.146575
vn 0.000000 31.588008 94.879912
vn 0.000000 43.490945 90.047419
vn 0.000000 54.676139 83.728847
vn 0.000000 64.958996 76.028474
vn 0.000000 74.169816 67.073381
vn 0.000000 82.156590 57.011356
vn 0.000000 88.787510 46.008457
vn 0.000000 93.953144 34.246266
vn 0.000000 97.568242 21.918899
vn 0.000000 99.573143 9.229799
vn 0.000000 99.955226 2.992109
vn 0.000000 99.955226 2.992109
vn 0.000000 99.955226 2.992109
vn -0.000000 99.676411 -8.038224
vn -0.000000 99.676411 -8.038224
vn -0.000000 98.184076 -18.970695
vn -0.000000 98.184076 -18.970695
vn -0.000000 95.496388 -29.672206
vn -0.000000 95.496388 -29.672206
vn -0.000000 91.646071 -40.012469
vn -0.000000 91.646071 -40.012469
vn -0.000000 86.679999 -49.865596
vn -0.000000 86.679999 -49.865596
vn -0.000000 80.658634 -59.111630
vn -0.000000 80.658634 -59.111630
vn -0.000000 73.655281 -67.638003
vn -0.000000 73.655281 -67.638003
vn -0.000000 65.755206 -75.340911
vn -0.000000 65.755206 -75.340911
vn -0.000000 57.054587 -82.126574
vn -0.000000 57.054587 -82.126574
vn -0.000000 47.659351 -87.912378
vn -0.000000 47.659351 -87.912378
vn -0.000000 37.683882 -92.627885
vn -0.000000 37.683882 -92.627885
vn -0.000000 27.249627 -96.215684
vn -0.000000 27.249627 -96.215684
vn -0.000000 16.483618 -98.632096
vn -0.000000 16.483618 -98.632096
vn -0.000000 5.516928 -99.847702
vn -0.000000 5.516928 -99.847702
vn 0.000000 -5.516928 -99.847702
vn 0.000000 -5.516928 -99.847702
vn 0.000000 -16.483618 -98.632096
vn 0.000000 -16.483618 -98.632096
vn 0.000000 -27.249627 -96.215684
vn 0.000000 -27.249627 -96.215684
vn 0.000000 -37.683882 -92.627885
vn 0.000000 -37.683882 -92.627885
vn 0.000000 -47.659351 -87.912378
vn 0.000000 -47.659351 -87.912378
vn 0.000000 -57.054587 -82.126574
vn 0.000000 -57.054587 -82.126574
vn 0.000000 -65.755206 -75.340911
vn 0.000000 -65.755206 -75.340911
vn 0.000000 -73.655281 -67.638003
vn 0.000000 -73.655281 -67.638003
vn 0.000000 -80.658634 -59.111630
vn 0.000000 -80.658634 -59.111630
vn 0.000000 -86.679999 -49.865596
vn 0.000000 -86.679999 -49.865596
vn 0.000000 -91.646071 -40.012469
vn 0.000000 -91.646071 -40.012469
vn 0.000000 -95.496388 -29.672206
vn 0.000000 -95.496388 -29.672206
vn 0.000000 -98.184076 -18.970695
vn 0.000000 -98.184076 -18.970695
vn 0.000000 -99.676411 -8.038224
vn 0.000000 -99.676411 -8.038224
vn 0.000000 -99.955226 2.992109
vn 0.000000 -99.955226 2.992109
vn 0.000000 -99.955226 2.992109
vn 0.000000 -99.676411 -8.038224
vn 0.000000 -98.184076 -18.970695
vn 0.000000 -95.496388 -29.672206
vn 0.000000 -91.646071 -40.012469
vn 0.000000 -86.679999 -49.865596
vn 0.000000 -80.658634 -59.111630
vn 0.000000 -73.655281 -67.638003
vn 0.000000 -65.755206 -75.340911
vn 0.000000 -57.054587 -82.126574
vn 0.000000 -47.659351 -87.912378
vn 0.000000 -37.683882 -92.627885
vn 0.000000 -27.249627 -96.215684
vn 0.000000 -16.483618 -98.632096
vn 0.000000 -5.516928 -99.847702
vn -0.000000 5.516928 -99.847702
vn -0.000000 16.483618 -98.632096
vn -0.000000 27.249627 -96.215684
vn -0.000000 37.683882 -92.627885
vn -0.000000 47.659351 -87.912378
vn -0.000000 57.054587 -82.126574
vn -0.000000 65.755206 -75.340911
vn -0.000000 73.655281 -67.638003
vn -0.000000 80.658634 -59.111630
vn -0.000000 86.679999 -49.865596
vn -0.000000 91.646071 -40.012469
vn -0.000000 95.496388 -29.672206
vn -0.000000 98.184076 -18.970695
vn -0.000000 99.676411 -8.038224
vn 100.000000 0.000000 0.000000
vn 100.000000 0.000000 0.000000
vn 100.000000 0.000000 0.000000
vn 100.000000 0.000000 0.000000
vn 100.000000 0.000000 0.000000
vn 100.000000 0.000000 0.000000
vn 100.000000 0.000000 0.000000
vn 100.000000 0.000000 0.000000
vn 100.000000 0.000000 0.000000
vn 100.000000 0.000000 0.000000
vn 100.000000 0.000000 0.000000
vn 100.000000 0.000000 0.000000
vn 100.000000 0.000000 0.000000
vn 100.000000 0.000000 0.000000
vn 100.000000 0.000000 0.000000
vn 100.000000 0.000000 0.000000
vn 100.000000 0.000000 0.000000
vn 100.000000 0.000000 0.000000
vn 100.000000 0.000000 0.000000
vn 100.000000 0.000000 0.000000
vn 100.000000 0.000000 0.000000
vn 100.000000 0.000000 0.000000
vn 100.000000 0.000000 0.000000
vn 100.000000 0.000000 0.000000
vn 100.000000 0.000000 0.000000
vn 100.000000 0.000000 0.000000
vn 100.000000 0.000000 0.000000
vn 100.000000 0.000000 0.000000
vn 100.000000 0.000000 0.000000
vn 100.000000 0.000000 0.000000
vn 100.000000 0.000000 0.000000
vn 100.000000 0.000000 0.000000
vn 100.000000 0.000000 0.000000
vn 100.000000 0.000000 0.000000
vn 100.000000 0.000000 0.000000
vn 100.000000 0.000000 0.000000
vn 100.000000 0.000000 0.000000
vn 100.000000 0.000000 0.000000
vn 100.000000 0.000000 0.000000
vn 100.000000 0.000000 0.000000
vn 100.000000 0.000000 0.000000
vn 100.000000 0.000000 0.000000
vn 100.000000 0.000000 0.000000
vn 100.000000 0.000000 0.000000
vn 100.000000 0.000000 0.000000
vn 100.000000 0.000000 0.000000
vn 100.000000 0.000000 0.000000
vn 100.000000 0.000000 0.000000
vn 100.000000 0.000000 0.000000
vn 100.000000 0.000000 0.000000
vn 100.000000 0.000000 0.000000
vn 100.000000 0.000000 0.000000
vn 100.000000 0.000000 0.000000
vn 100.000000 0.000000 0.000000
vn 100.000000 0.000000 0.000000
vn 100.000000 0.000000 0.000000
vn 100.000000 0.000000 0.000000
vn 100.000000 0.000000 0.000000
vn 100.000000 0.000000 0.000000
vn 100.000000 0.000000 0.000000
vn 100.000000 0.000000 0.000000
vn 100.000000 0.000000 0.000000
vn 100.000000 0.000000 0.000000
vn 100.000000 0.000000 0.000000
vn 100.000000 0.000000 0.000000
vn 100.000000 0.000000 0.000000
vn 100.000000 0.000000 0.000000
vn 100.000000 0.000000 0.000000
vn 100.000000 0.000000 0.000000
vn 100.000000 0.000000 0.000000
vn 100.000000 0.000000 0.000000
vn 100.000000 0.000000 0.000000
vn 100.000000 0.000000 0.000000
vn 100.000000 0.000000 0.000000
vn 100.000000 0.000000 0.000000
vn 100.000000 0.000000 0.000000
usemtl Steel_-_Satin
f 2/1/1 11/2/2 1/3/3
f 1/3/3 11/2/2 12/4/4
f 1/3/3 12/4/4 13/5/5
f 13/5/5 12/4/4 19/6/6
f 13/5/5 19/6/6 20/7/7
f 20/7/7 19/6/6 26/8/8
f 20/7/7 26/8/8 27/9/9
f 27/9/9 26/8/8 6/10/10
f 27/9/9 6/10/10 28/11/11
f 28/11/11 6/10/10 7/12/12
f 28/11/11 7/12/12 22/13/13
f 22/13/13 7/12/12 8/14/14
f 22/13/13 8/14/14 16/15/15
f 16/15/15 8/14/14 9/16/16
f 16/15/15 9/16/16 10/17/17
f 11/2/2 2/1/1 17/18/18
f 17/18/18 2/1/1 3/19/19
f 17/18/18 3/19/19 23/20/20
f 23/20/20 3/19/19 4/21/21
f 23/20/20 4/21/21 5/22/22
f 6/10/10 25/23/23 5/22/22
f 5/22/22 25/23/23 24/24/24
f 5/22/22 24/24/24 23/20/20
f 23/20/20 24/24/24 17/18/18
f 1/3/3 14/25/25 10/17/17
f 10/17/17 14/25/25 15/26/26
f 10/17/17 15/26/26 16/15/15
f 16/15/15 15/26/26 22/13/13
f 14/25/25 1/3/3 13/5/5
f 12/4/4 11/2/2 18/27/27
f 18/27/27 11/2/2 17/18/18
f 18/27/27 17/18/18 24/24/24
f 13/5/5 20/7/7 14/25/25
f 14/25/25 20/7/7 21/28/28
f 14/25/25 21/28/28 15/26/26
f 15/26/26 21/28/28 22/13/13
f 12/4/4 18/27/27 19/6/6
f 19/6/6 18/27/27 25/23/23
f 19/6/6 25/23/23 26/8/8
f 26/8/8 25/23/23 6/10/10
f 25/23/23 18/27/27 24/24/24
f 28/11/11 22/13/13 21/28/28
f 28/11/11 21/28/28 27/9/9
f 27/9/9 21/28/28 20/7/7
f 10/29/17 29/30/29 1/31/3
f 1/31/3 29/30/29 30/32/30
f 9/33/31 8/34/32 10/35/33
f 10/35/33 8/34/32 7/36/34
f 10/35/33 7/36/34 6/37/35
f 10/35/33 6/37/35 97/38/36
f 97/38/36 6/37/35 31/39/37
f 97/38/36 31/39/37 96/40/38
f 96/40/38 31/39/37 95/41/39
f 95/41/39 31/39/37 32/42/40
f 95/41/39 32/42/40 94/43/41
f 94/43/41 32/42/40 33/44/42
f 94/43/41 33/44/42 93/45/43
f 93/45/43 33/44/42 34/46/44
f 93/45/43 34/46/44 92/47/45
f 92/47/45 34/46/44 35/48/46
f 92/47/45 35/48/46 91/49/47
f 91/49/47 35/48/46 36/50/48
f 91/49/47 36/50/48 90/51/49
f 90/51/49 36/50/48 37/52/50
f 90/51/49 37/52/50 89/53/51
f 89/53/51 37/52/50 38/54/52
f 89/53/51 38/54/52 88/55/53
f 88/55/53 38/54/52 39/56/54
f 88/55/53 39/56/54 87/57/55
f 87/57/55 39/56/54 40/58/56
f 87/57/55 40/58/56 41/59/57
f 87/57/55 41/59/57 86/60/58
f 86/60/58 41/59/57 42/61/59
f 86/60/58 42/61/59 85/62/60
f 85/62/60 42/61/59 43/63/61
f 85/62/60 43/63/61 44/64/62
f 85/62/60 44/64/62 84/65/63
f 84/65/63 44/64/62 45/66/64
f 84/65/63 45/66/64 46/67/65
f 84/65/63 46/67/65 83/68/66
f 83/68/66 46/67/65 47/69/67
f 83/68/66 47/69/67 82/70/68
f 82/70/68 47/69/67 48/71/69
f 82/70/68 48/71/69 49/72/70
f 82/70/68 49/72/70 81/73/71
f 81/73/71 49/72/70 50/74/72
f 81/73/71 50/74/72 80/75/73
f 80/75/73 50/74/72 51/76/74
f 80/75/73 51/76/74 52/77/75
f 80/75/73 52/77/75 79/78/76
f 79/78/76 52/77/75 53/79/77
f 79/78/76 53/79/77 78/80/78
f 78/80/78 53/79/77 54/81/79
f 78/80/78 54/81/79 77/82/80
f 77/82/80 54/81/79 55/83/81
f 77/82/80 55/83/81 76/84/82
f 76/84/82 55/83/81 56/85/83
f 76/84/82 56/85/83 75/86/84
f 75/86/84 56/85/83 57/87/85
f 75/86/84 57/87/85 74/88/86
f 74/88/86 57/87/85 58/89/87
f 74/88/86 58/89/87 73/90/88
f 73/90/88 58/89/87 59/91/89
f 73/90/88 59/91/89 72/92/90
f 72/92/90 59/91/89 60/93/91
f 72/92/90 60/93/91 71/94/92
f 71/94/92 60/93/91 70/95/93
f 70/95/93 60/93/91 61/96/94
f 70/95/93 61/96/94 65/97/95
f 65/97/95 61/96/94 62/98/96
f 65/97/95 62/98/96 63/99/97
f 63/99/97 64/100/98 65/97/95
f 70/95/93 65/97/95 69/101/99
f 69/101/99 65/97/95 66/102/100
f 69/101/99 66/102/100 68/103/101
f 68/103/101 66/102/100 67/104/102
f 97/38/36 98/105/103 10/35/33
f 10/35/33 98/105/103 29/106/104
f 29/106/104 98/105/103 99/107/105
f 29/106/104 99/107/105 100/108/106
f 102/109/107 106/110/108 101/111/109
f 101/111/109 106/110/108 107/112/110
f 101/111/109 107/112/110 108/113/111
f 108/113/111 107/112/110 114/114/112
f 108/113/111 114/114/112 115/115/113
f 115/115/113 114/114/112 121/116/114
f 115/115/113 121/116/114 122/117/115
f 122/117/115 121/116/114 65/118/116
f 122/117/115 65/118/116 123/119/117
f 123/119/117 65/118/116 64/120/118
f 123/119/117 64/120/118 117/121/119
f 117/121/119 64/120/118 63/122/120
f 117/121/119 63/122/120 111/123/121
f 111/123/121 63/122/120 62/124/122
f 111/123/121 62/124/122 61/125/123
f 106/110/108 102/109/107 112/126/124
f 112/126/124 102/109/107 103/127/125
f 112/126/124 103/127/125 118/128/126
f 118/128/126 103/127/125 104/129/127
f 118/128/126 104/129/127 105/130/128
f 65/118/116 120/131/129 105/130/128
f 105/130/128 120/131/129 119/132/130
f 105/130/128 119/132/130 118/128/126
f 118/128/126 119/132/130 112/126/124
f 101/111/109 109/133/131 61/125/123
f 61/125/123 109/133/131 110/134/132
f 61/125/123 110/134/132 111/123/121
f 111/123/121 110/134/132 117/121/119
f 109/133/131 101/111/109 108/113/111
f 107/112/110 106/110/108 113/135/133
f 113/135/133 106/110/108 112/126/124
f 113/135/133 112/126/124 119/132/130
f 108/113/111 115/115/113 109/133/131
f 109/133/131 115/115/113 116/136/134
f 109/133/131 116/136/134 110/134/132
f 110/134/132 116/136/134 117/121/119
f 107/112/110 113/135/133 114/114/112
f 114/114/112 113/135/133 120/131/129
f 114/114/112 120/131/129 121/116/114
f 121/116/114 120/131/129 65/118/116
f 120/131/129 113/135/133 119/132/130
f 123/119/117 117/121/119 116/136/134
f 123/119/117 116/136/134 122/117/115
f 122/117/115 116/136/134 115/115/113
f 105/137/128 124/138/135 65/139/116
f 65/139/116 124/138/135 66/140/136
f 125/141/137 129/142/138 124/143/135
f 124/143/135 129/142/138 130/144/139
f 124/143/135 130/144/139 131/145/140
f 131/145/140 130/144/139 136/146/141
f 131/145/140 136/146/141 137/147/142
f 137/147/142 136/146/141 142/148/143
f 137/147/142 142/148/143 143/149/144
f 143/149/144 142/148/143 70/150/145
f 143/149/144 70/150/145 69/151/146
f 129/142/138 125/141/137 134/152/147
f 134/152/147 125/141/137 126/153/148
f 134/152/147 126/153/148 139/154/149
f 139/154/149 126/153/148 127/155/150
f 139/154/149 127/155/150 128/156/151
f 70/150/145 141/157/152 128/156/151
f 128/156/151 141/157/152 140/158/153
f 128/156/151 140/158/153 139/154/149
f 139/154/149 140/158/153 134/152/147
f 143/149/144 69/151/146 138/159/154
f 138/159/154 69/151/146 68/160/155
f 138/159/154 68/160/155 133/161/156
f 133/161/156 68/160/155 67/162/157
f 133/161/156 67/162/157 66/163/136
f 124/143/135 131/145/140 66/163/136
f 66/163/136 131/145/140 132/164/158
f 66/163/136 132/164/158 133/161/156
f 133/161/156 132/164/158 138/159/154
f 130/144/139 129/142/138 135/165/159
f 135/165/159 129/142/138 134/152/147
f 135/165/159 134/152/147 140/158/153
f 138/159/154 132/164/158 137/147/142
f 137/147/142 132/164/158 131/145/140
f 130/144/139 135/165/159 136/146/141
f 136/146/141 135/165/159 141/157/152
f 136/146/141 141/157/152 142/148/143
f 142/148/143 141/157/152 70/150/145
f 141/157/152 135/165/159 140/158/153
f 143/149/144 138/159/154 137/147/142
f 145/166/160 148/167/161 144/168/162
f 144/168/162 148/167/161 149/169/163
f 144/168/162 149/169/163 150/170/164
f 150/170/164 149/169/163 155/171/165
f 150/170/164 155/171/165 156/172/166
f 156/172/166 155/171/165 161/173/167
f 156/172/166 161/173/167 162/174/168
f 162/174/168 161/173/167 29/175/29
f 162/174/168 29/175/29 100/176/169
f 148/167/161 145/166/160 153/177/170
f 153/177/170 145/166/160 146/178/171
f 153/177/170 146/178/171 158/179/172
f 158/179/172 146/178/171 147/180/173
f 158/179/172 147/180/173 30/181/30
f 29/175/29 160/182/174 30/181/30
f 30/181/30 160/182/174 159/183/175
f 30/181/30 159/183/175 158/179/172
f 158/179/172 159/183/175 153/177/170
f 162/174/168 100/176/169 157/184/176
f 157/184/176 100/176/169 99/185/177
f 157/184/176 99/185/177 152/186/178
f 152/186/178 99/185/177 98/187/179
f 152/186/178 98/187/179 97/188/180
f 144/168/162 150/170/164 97/188/180
f 97/188/180 150/170/164 151/189/181
f 97/188/180 151/189/181 152/186/178
f 152/186/178 151/189/181 157/184/176
f 149/169/163 148/167/161 154/190/182
f 154/190/182 148/167/161 153/177/170
f 154/190/182 153/177/170 159/183/175
f 157/184/176 151/189/181 156/172/166
f 156/172/166 151/189/181 150/170/164
f 149/169/163 154/190/182 155/171/165
f 155/171/165 154/190/182 160/182/174
f 155/171/165 160/182/174 161/173/167
f 161/173/167 160/182/174 29/175/29
f 160/182/174 154/190/182 159/183/175
f 162/174/168 157/184/176 156/172/166
f 71/191/183 70/192/145 189/193/184
f 189/193/184 70/192/145 128/194/151
f 189/193/184 128/194/151 163/195/185
f 189/193/184 163/195/185 190/196/186
f 190/196/186 163/195/185 164/197/187
f 190/196/186 164/197/187 191/198/188
f 191/198/188 164/197/187 165/199/189
f 191/198/188 165/199/189 192/200/190
f 192/200/190 165/199/189 166/201/191
f 192/200/190 166/201/191 193/202/192
f 193/202/192 166/201/191 167/203/193
f 193/202/192 167/203/193 194/204/194
f 194/204/194 167/203/193 168/205/195
f 194/204/194 168/205/195 195/206/196
f 195/206/196 168/205/195 169/207/197
f 195/206/196 169/207/197 196/208/198
f 196/208/198 169/207/197 170/209/199
f 196/208/198 170/209/199 197/210/200
f 197/210/200 170/209/199 171/211/201
f 197/210/200 171/211/201 198/212/202
f 198/212/202 171/211/201 172/213/203
f 198/212/202 172/213/203 199/214/204
f 199/214/204 172/213/203 173/215/205
f 199/214/204 173/215/205 200/216/206
f 200/216/206 173/215/205 174/217/207
f 200/216/206 174/217/207 201/218/208
f 201/218/208 174/217/207 175/219/209
f 201/218/208 175/219/209 202/220/210
f 202/220/210 175/219/209 176/221/211
f 202/220/210 176/221/211 203/222/212
f 203/222/212 176/221/211 177/223/213
f 203/222/212 177/223/213 204/224/214
f 204/224/214 177/223/213 178/225/215
f 204/224/214 178/225/215 205/226/216
f 205/226/216 178/225/215 179/227/217
f 205/226/216 179/227/217 206/228/218
f 206/228/218 179/227/217 180/229/219
f 206/228/218 180/229/219 207/230/220
f 207/230/220 180/229/219 181/231/221
f 207/230/220 181/231/221 208/232/222
f 208/232/222 181/231/221 182/233/223
f 208/232/222 182/233/223 209/234/224
f 209/234/224 182/233/223 183/235/225
f 209/234/224 183/235/225 210/236/226
f 210/236/226 183/235/225 184/237/227
f 210/236/226 184/237/227 211/238/228
f 211/238/228 184/237/227 185/239/229
f 211/238/228 185/239/229 212/240/230
f 212/240/230 185/239/229 186/241/231
f 212/240/230 186/241/231 213/242/232
f 213/242/232 186/241/231 187/243/233
f 213/242/232 187/243/233 214/244/234
f 214/244/234 187/243/233 188/245/235
f 214/244/234 188/245/235 144/246/162
f 144/246/162 97/247/180 214/244/234
f 214/244/234 97/247/180 96/248/236
f 214/244/234 96/248/236 213/242/232
f 213/242/232 96/248/236 95/249/237
f 213/242/232 95/249/237 212/240/230
f 212/240/230 95/249/237 94/250/238
f 212/240/230 94/250/238 211/238/228
f 211/238/228 94/250/238 93/251/239
f 211/238/228 93/251/239 210/236/226
f 210/236/226 93/251/239 92/252/240
f 210/236/226 92/252/240 209/234/224
f 209/234/224 92/252/240 91/253/241
f 209/234/224 91/253/241 208/232/222
f 208/232/222 91/253/241 90/254/242
f 208/232/222 90/254/242 207/230/220
f 207/230/220 90/254/242 89/255/243
f 207/230/220 89/255/243 206/228/218
f 206/228/218 89/255/243 88/256/244
f 206/228/218 88/256/244 205/226/216
f 205/226/216 88/256/244 87/257/245
f 205/226/216 87/257/245 204/224/214
f 204/224/214 87/257/245 86/258/246
f 204/224/214 86/258/246 203/222/212
f 203/222/212 86/258/246 85/259/247
f 203/222/212 85/259/247 202/220/210
f 202/220/210 85/259/247 84/260/248
f 202/220/210 84/260/248 201/218/208
f 201/218/208 84/260/248 83/261/249
f 201/218/208 83/261/249 200/216/206
f 200/216/206 83/261/249 82/262/250
f 200/216/206 82/262/250 199/214/204
f 199/214/204 82/262/250 81/263/251
f 199/214/204 81/263/251 198/212/202
f 198/212/202 81/263/251 80/264/252
f 198/212/202 80/264/252 197/210/200
f 197/210/200 80/264/252 79/265/253
f 197/210/200 79/265/253 196/208/198
f 196/208/198 79/265/253 78/266/254
f 196/208/198 78/266/254 195/206/196
f 195/206/196 78/266/254 77/267/255
f 195/206/196 77/267/255 194/204/194
f 194/204/194 77/267/255 76/268/256
f 194/204/194 76/268/256 193/202/192
f 193/202/192 76/268/256 75/269/257
f 193/202/192 75/269/257 192/200/190
f 192/200/190 75/269/257 74/270/258
f 192/200/190 74/270/258 191/198/188
f 191/198/188 74/270/258 73/271/259
f 191/198/188 73/271/259 190/196/186
f 190/196/186 73/271/259 72/272/260
f 190/196/186 72/272/260 189/193/184
f 189/193/184 72/272/260 71/191/183
f 31/273/261 6/274/10 245/275/262
f 245/275/262 6/274/10 5/276/22
f 245/275/262 5/276/22 215/277/263
f 245/275/262 215/277/263 246/278/264
f 246/278/264 215/277/263 216/279/265
f 246/278/264 216/279/265 247/280/266
f 247/280/266 216/279/265 217/281/267
f 247/280/266 217/281/267 248/282/268
f 248/282/268 217/281/267 218/283/269
f 248/282/268 218/283/269 249/284/270
f 249/284/270 218/283/269 219/285/271
f 249/284/270 219/285/271 250/286/272
f 250/286/272 219/285/271 220/287/273
f 250/286/272 220/287/273 251/288/274
f 251/288/274 220/287/273 221/289/275
f 251/288/274 221/289/275 252/290/276
f 252/290/276 221/289/275 222/291/277
f 252/290/276 222/291/277 253/292/278
f 253/292/278 222/291/277 223/293/279
f 253/292/278 223/293/279 254/294/280
f 254/294/280 223/293/279 224/295/281
f 254/294/280 224/295/281 255/296/282
f 255/296/282 224/295/281 225/297/283
f 255/296/282 225/297/283 256/298/284
f 256/298/284 225/297/283 226/299/285
f 256/298/284 226/299/285 257/300/286
f 257/300/286 226/299/285 227/301/287
f 257/300/286 227/301/287 258/302/288
f 258/302/288 227/301/287 228/303/289
f 258/302/288 228/303/289 259/304/290
f 259/304/290 228/303/289 229/305/291
f 259/304/290 229/305/291 260/306/292
f 260/306/292 229/305/291 230/307/293
f 260/306/292 230/307/293 261/308/294
f 261/308/294 230/307/293 231/309/295
f 261/308/294 231/309/295 262/310/296
f 262/310/296 231/309/295 232/311/297
f 262/310/296 232/311/297 263/312/298
f 263/312/298 232/311/297 233/313/299
f 263/312/298 233/313/299 264/314/300
f 264/314/300 233/313/299 234/315/301
f 264/314/300 234/315/301 265/316/302
f 265/316/302 234/315/301 235/317/303
f 265/316/302 235/317/303 266/318/304
f 266/318/304 235/317/303 236/319/305
f 266/318/304 236/319/305 267/320/306
f 267/320/306 236/319/305 237/321/307
f 267/320/306 237/321/307 268/322/308
f 268/322/308 237/321/307 238/323/309
f 268/322/308 238/323/309 269/324/310
f 269/324/310 238/323/309 239/325/311
f 269/324/310 239/325/311 270/326/312
f 270/326/312 239/325/311 240/327/313
f 270/326/312 240/327/313 271/328/314
f 271/328/314 240/327/313 241/329/315
f 271/328/314 241/329/315 272/330/316
f 272/330/316 241/329/315 242/331/317
f 272/330/316 242/331/317 273/332/318
f 273/332/318 242/331/317 243/333/319
f 273/332/318 243/333/319 274/334/320
f 274/334/320 243/333/319 244/335/321
f 274/334/320 244/335/321 101/336/109
f 101/336/109 61/337/123 274/334/320
f 274/334/320 61/337/123 60/338/322
f 274/334/320 60/338/322 273/332/318
f 273/332/318 60/338/322 59/339/323
f 273/332/318 59/339/323 272/330/316
f 272/330/316 59/339/323 58/340/324
f 272/330/316 58/340/324 271/328/314
f 271/328/314 58/340/324 57/341/325
f 271/328/314 57/341/325 270/326/312
f 270/326/312 57/341/325 56/342/326
f 270/326/312 56/342/326 269/324/310
f 269/324/310 56/342/326 55/343/327
f 269/324/310 55/343/327 268/322/308
f 268/322/308 55/343/327 54/344/328
f 268/322/308 54/344/328 267/320/306
f 267/320/306 54/344/328 53/345/329
f 267/320/306 53/345/329 266/318/304
f 266/318/304 53/345/329 52/346/330
f 266/318/304 52/346/330 265/316/302
f 265/316/302 52/346/330 51/347/331
f 265/316/302 51/347/331 264/314/300
f 264/314/300 51/347/331 50/348/332
f 264/314/300 50/348/332 263/312/298
f 263/312/298 50/348/332 49/349/333
f 263/312/298 49/349/333 262/310/296
f 262/310/296 49/349/333 48/350/334
f 262/310/296 48/350/334 261/308/294
f 261/308/294 48/350/334 47/351/335
f 261/308/294 47/351/335 260/306/292
f 260/306/292 47/351/335 46/352/336
f 260/306/292 46/352/336 259/304/290
f 259/304/290 46/352/336 45/353/337
f 259/304/290 45/353/337 258/302/288
f 258/302/288 45/353/337 44/354/338
f 258/302/288 44/354/338 257/300/286
f 257/300/286 44/354/338 43/355/339
f 257/300/286 43/355/339 256/298/284
f 256/298/284 43/355/339 42/356/340
f 256/298/284 42/356/340 255/296/282
f 255/296/282 42/356/340 41/357/341
f 255/296/282 41/357/341 254/294/280
f 254/294/280 41/357/341 40/358/342
f 254/294/280 40/358/342 253/292/278
f 253/292/278 40/358/342 39/359/343
f 253/292/278 39/359/343 252/290/276
f 252/290/276 39/359/343 38/360/344
f 252/290/276 38/360/344 251/288/274
f 251/288/274 38/360/344 37/361/345
f 251/288/274 37/361/345 250/286/272
f 250/286/272 37/361/345 36/362/346
f 250/286/272 36/362/346 249/284/270
f 249/284/270 36/362/346 35/363/347
f 249/284/270 35/363/347 248/282/268
f 248/282/268 35/363/347 34/364/348
f 248/282/268 34/364/348 247/280/266
f 247/280/266 34/364/348 33/365/349
f 247/280/266 33/365/349 246/278/264
f 246/278/264 33/365/349 32/366/350
f 246/278/264 32/366/350 245/275/262
f 245/275/262 32/366/350 31/273/261
f 4/367/351 1/368/352 5/369/353
f 5/369/353 1/368/352 144/370/354
f 5/369/353 144/370/354 215/371/355
f 215/371/355 144/370/354 188/372/356
f 215/371/355 188/372/356 187/373/357
f 4/367/351 3/374/358 1/368/352
f 1/368/352 3/374/358 2/375/359
f 144/370/354 1/368/352 145/376/360
f 145/376/360 1/368/352 30/377/361
f 145/376/360 30/377/361 146/378/362
f 146/378/362 30/377/361 147/379/363
f 215/371/355 187/373/357 216/380/364
f 216/380/364 187/373/357 186/381/365
f 216/380/364 186/381/365 217/382/366
f 217/382/366 186/381/365 185/383/367
f 217/382/366 185/383/367 218/384/368
f 218/384/368 185/383/367 184/385/369
f 218/384/368 184/385/369 219/386/370
f 219/386/370 184/385/369 183/387/371
f 219/386/370 183/387/371 220/388/372
f 220/388/372 183/387/371 182/389/373
f 220/388/372 182/389/373 221/390/374
f 221/390/374 182/389/373 181/391/375
f 221/390/374 181/391/375 222/392/376
f 222/392/376 181/391/375 180/393/377
f 222/392/376 180/393/377 223/394/378
f 223/394/378 180/393/377 179/395/379
f 223/394/378 179/395/379 224/396/380
f 224/396/380 179/395/379 225/397/381
f 225/397/381 179/395/379 178/398/382
f 225/397/381 178/398/382 226/399/383
f 226/399/383 178/398/382 177/400/384
f 226/399/383 177/400/384 227/401/385
f 227/401/385 177/400/384 228/402/386
f 228/402/386 177/400/384 176/403/387
f 228/402/386 176/403/387 229/404/388
f 229/404/388 176/403/387 175/405/389
f 229/404/388 175/405/389 230/406/390
f 230/406/390 175/405/389 231/407/391
f 231/407/391 175/405/389 174/408/392
f 231/407/391 174/408/392 232/409/393
f 232/409/393 174/408/392 233/410/394
f 233/410/394 174/408/392 173/411/395
f 233/410/394 173/411/395 234/412/396
f 234/412/396 173/411/395 172/413/397
f 234/412/396 172/413/397 235/414/398
f 235/414/398 172/413/397 236/415/399
f 236/415/399 172/413/397 171/416/400
f 236/415/399 171/416/400 237/417/401
f 237/417/401 171/416/400 170/418/402
f 237/417/401 170/418/402 238/419/403
f 238/419/403 170/418/402 169/420/404
f 238/419/403 169/420/404 239/421/405
f 239/421/405 169/420/404 168/422/406
f 239/421/405 168/422/406 240/423/407
f 240/423/407 168/422/406 167/424/408
f 240/423/407 167/424/408 241/425/409
f 241/425/409 167/424/408 166/426/410
f 241/425/409 166/426/410 242/427/411
f 242/427/411 166/426/410 165/428/412
f 242/427/411 165/428/412 243/429/413
f 243/429/413 165/428/412 164/430/414
f 243/429/413 164/430/414 244/431/415
f 244/431/415 164/430/414 163/432/416
f 244/431/415 163/432/416 128/433/417
f 127/434/418 105/435/419 128/433/417
f 128/433/417 105/435/419 101/436/420
f 128/433/417 101/436/420 244/431/415
f 105/435/419 127/434/418 124/437/421
f 124/437/421 127/434/418 126/438/422
f 124/437/421 126/438/422 125/439/423
f 104/440/424 103/441/425 105/435/419
f 105/435/419 103/441/425 102/442/426
f 105/435/419 102/442/426 101/436/420
# 274 vertices
# 442 texture params
# 426 normals
# 544 facets

# 1 groups
