# WaveFront *.obj file (generated by Autodesk ATF)

mtllib new_mast.mtl

g Body1

v -50.000000 -0.000000 280.000000
v -49.759236 2.450429 280.000000
v -49.039264 4.877258 280.000000
v -47.847017 7.257117 280.000000
v -46.193977 9.567086 280.000000
v -44.096063 11.784918 280.000000
v -41.573481 13.889256 280.000000
v -38.650523 15.859832 280.000000
v -35.355339 17.677670 280.000000
v -31.719664 19.325261 280.000000
v -27.778512 20.786740 280.000000
v -23.569837 22.048032 280.000000
v -19.134172 23.096988 280.000000
v -14.514234 23.923508 280.000000
v -9.754516 24.519632 280.000000
v 0.000000 25.000000 280.000000
v 9.754516 24.519632 280.000000
v 14.514234 23.923508 280.000000
v 19.134172 23.096988 280.000000
v 23.569837 22.048032 280.000000
v 27.778512 20.786740 280.000000
v 31.719664 19.325261 280.000000
v 35.355339 17.677670 280.000000
v 38.650523 15.859832 280.000000
v 41.573481 13.889256 280.000000
v 44.096063 11.784918 280.000000
v 46.193977 9.567086 280.000000
v 47.847017 7.257117 280.000000
v 49.039264 4.877258 280.000000
v 49.759236 2.450429 280.000000
v 50.000000 0.000000 280.000000
v 49.759236 -2.450429 280.000000
v 49.039264 -4.877258 280.000000
v 47.847017 -7.257117 280.000000
v 46.193977 -9.567086 280.000000
v 44.096063 -11.784918 280.000000
v 41.573481 -13.889256 280.000000
v 38.650523 -15.859832 280.000000
v 35.355339 -17.677670 280.000000
v 31.719664 -19.325261 280.000000
v 27.778512 -20.786740 280.000000
v 23.569837 -22.048032 280.000000
v 19.134172 -23.096988 280.000000
v 14.514234 -23.923508 280.000000
v 9.754516 -24.519632 280.000000
v 0.000000 -25.000000 280.000000
v -9.754516 -24.519632 280.000000
v -14.514234 -23.923508 280.000000
v -19.134172 -23.096988 280.000000
v -23.569837 -22.048032 280.000000
v -27.778512 -20.786740 280.000000
v -31.719664 -19.325261 280.000000
v -35.355339 -17.677670 280.000000
v -38.650523 -15.859832 280.000000
v -41.573481 -13.889256 280.000000
v -44.096063 -11.784918 280.000000
v -46.193977 -9.567086 280.000000
v -47.847017 -7.257117 280.000000
v -49.039264 -4.877258 280.000000
v -49.759236 -2.450429 280.000000
v 6.000000 -6.000000 280.000000
v 6.000000 6.000000 280.000000
v -6.000000 6.000000 280.000000
v -6.000000 -6.000000 280.000000
v -50.000000 -0.000000 290.000000
v -49.759236 2.450429 290.000000
v -49.039264 4.877258 290.000000
v -47.847017 7.257117 290.000000
v -46.193977 9.567086 290.000000
v -44.096063 11.784918 290.000000
v -41.573481 13.889256 290.000000
v -38.650523 15.859832 290.000000
v -35.355339 17.677670 290.000000
v -31.719664 19.325261 290.000000
v -27.778512 20.786740 290.000000
v -23.569837 22.048032 290.000000
v -19.134172 23.096988 290.000000
v -14.514234 23.923508 290.000000
v -9.754516 24.519632 290.000000
v 0.000000 25.000000 290.000000
v 9.754516 24.519632 290.000000
v 14.514234 23.923508 290.000000
v 19.134172 23.096988 290.000000
v 23.569837 22.048032 290.000000
v 27.778512 20.786740 290.000000
v 31.719664 19.325261 290.000000
v 35.355339 17.677670 290.000000
v 38.650523 15.859832 290.000000
v 41.573481 13.889256 290.000000
v 44.096063 11.784918 290.000000
v 46.193977 9.567086 290.000000
v 47.847017 7.257117 290.000000
v 49.039264 4.877258 290.000000
v 49.759236 2.450429 290.000000
v 50.000000 0.000000 290.000000
v 49.759236 -2.450429 290.000000
v 49.039264 -4.877258 290.000000
v 47.847017 -7.257117 290.000000
v 46.193977 -9.567086 290.000000
v 44.096063 -11.784918 290.000000
v 41.573481 -13.889256 290.000000
v 38.650523 -15.859832 290.000000
v 35.355339 -17.677670 290.000000
v 31.719664 -19.325261 290.000000
v 27.778512 -20.786740 290.000000
v 23.569837 -22.048032 290.000000
v 19.134172 -23.096988 290.000000
v 14.514234 -23.923508 290.000000
v 9.754516 -24.519632 290.000000
v 0.000000 -25.000000 290.000000
v -9.754516 -24.519632 290.000000
v -14.514234 -23.923508 290.000000
v -19.134172 -23.096988 290.000000
v -23.569837 -22.048032 290.000000
v -27.778512 -20.786740 290.000000
v -31.719664 -19.325261 290.000000
v -35.355339 -17.677670 290.000000
v -38.650523 -15.859832 290.000000
v -41.573481 -13.889256 290.000000
v -44.096063 -11.784918 290.000000
v -46.193977 -9.567086 290.000000
v -47.847017 -7.257117 290.000000
v -49.039264 -4.877258 290.000000
v -49.759236 -2.450429 290.000000
v 6.000000 -6.000000 0.000000
v 6.000000 6.000000 0.000000
v -6.000000 -6.000000 0.000000
v -6.000000 6.000000 0.000000
vt -4.975924 -0.245043 0.000000
vt -0.600000 -0.600000 0.000000
vt -5.000000 0.000000 0.000000
vt -0.600000 0.600000 0.000000
vt -4.975924 0.245043 0.000000
vt -4.903926 0.487726 0.000000
vt -4.784702 0.725712 0.000000
vt -4.619398 0.956709 0.000000
vt -4.409606 1.178492 0.000000
vt -4.157348 1.388926 0.000000
vt -3.865052 1.585983 0.000000
vt -3.535534 1.767767 0.000000
vt -3.171966 1.932526 0.000000
vt -2.777851 2.078674 0.000000
vt -2.356984 2.204803 0.000000
vt -1.913417 2.309699 0.000000
vt -1.451423 2.392351 0.000000
vt -0.975452 2.451963 0.000000
vt 0.000000 2.500000 0.000000
vt 0.600000 0.600000 0.000000
vt 0.975452 2.451963 0.000000
vt 1.451423 2.392351 0.000000
vt 1.913417 2.309699 0.000000
vt 2.356984 2.204803 0.000000
vt 2.777851 2.078674 0.000000
vt 3.171966 1.932526 0.000000
vt 3.535534 1.767767 0.000000
vt 3.865052 1.585983 0.000000
vt 4.157348 1.388926 0.000000
vt 4.409606 1.178492 0.000000
vt 4.619398 0.956709 0.000000
vt 4.784702 0.725712 0.000000
vt 4.903926 0.487726 0.000000
vt 4.975924 0.245043 0.000000
vt 5.000000 0.000000 0.000000
vt 0.600000 -0.600000 0.000000
vt 4.975924 -0.245043 0.000000
vt 4.903926 -0.487726 0.000000
vt 4.784702 -0.725712 0.000000
vt 4.619398 -0.956709 0.000000
vt 4.409606 -1.178492 0.000000
vt 4.157348 -1.388926 0.000000
vt 3.865052 -1.585983 0.000000
vt 3.535534 -1.767767 0.000000
vt 3.171966 -1.932526 0.000000
vt 2.777851 -2.078674 0.000000
vt 2.356984 -2.204803 0.000000
vt 1.913417 -2.309699 0.000000
vt 1.451423 -2.392351 0.000000
vt 0.975452 -2.451963 0.000000
vt 0.000000 -2.500000 0.000000
vt -0.975452 -2.451963 0.000000
vt -1.451423 -2.392351 0.000000
vt -1.913417 -2.309699 0.000000
vt -2.356984 -2.204803 0.000000
vt -2.777851 -2.078674 0.000000
vt -3.171966 -1.932526 0.000000
vt -3.535534 -1.767767 0.000000
vt -3.865052 -1.585983 0.000000
vt -4.157348 -1.388926 0.000000
vt -4.409606 -1.178492 0.000000
vt -4.619398 -0.956709 0.000000
vt -4.784702 -0.725712 0.000000
vt -4.903926 -0.487726 0.000000
vt -1.000000 7.608545 0.000000
vt -0.000000 7.608545 0.000000
vt -1.000000 7.853982 0.000000
vt -0.000000 7.853982 0.000000
vt -1.000000 -7.853982 0.000000
vt -0.000000 -7.853982 0.000000
vt -1.000000 -7.608545 0.000000
vt -0.000000 -7.608545 0.000000
vt -1.000000 -7.363108 0.000000
vt -0.000000 -7.363108 0.000000
vt -1.000000 -7.117671 0.000000
vt -0.000000 -7.117671 0.000000
vt -1.000000 -6.872234 0.000000
vt -0.000000 -6.872234 0.000000
vt -1.000000 -6.626797 0.000000
vt -0.000000 -6.626797 0.000000
vt -1.000000 -6.381360 0.000000
vt -0.000000 -6.381360 0.000000
vt -1.000000 -6.135923 0.000000
vt -0.000000 -6.135923 0.000000
vt -1.000000 -5.890486 0.000000
vt -0.000000 -5.890486 0.000000
vt -1.000000 -5.645049 0.000000
vt -0.000000 -5.645049 0.000000
vt -1.000000 -5.399612 0.000000
vt -0.000000 -5.399612 0.000000
vt -1.000000 -5.154175 0.000000
vt -0.000000 -5.154175 0.000000
vt -1.000000 -4.908739 0.000000
vt -0.000000 -4.908739 0.000000
vt -1.000000 -4.663302 0.000000
vt -0.000000 -4.663302 0.000000
vt -1.000000 -4.417865 0.000000
vt -0.000000 -4.417865 0.000000
vt -0.000000 -3.926991 0.000000
vt -0.000000 7.363108 0.000000
vt -1.000000 7.363108 0.000000
vt -0.000000 7.117671 0.000000
vt -1.000000 7.117671 0.000000
vt -0.000000 6.872234 0.000000
vt -1.000000 6.872234 0.000000
vt -0.000000 6.626797 0.000000
vt -1.000000 6.626797 0.000000
vt -0.000000 6.381360 0.000000
vt -1.000000 6.381360 0.000000
vt -0.000000 6.135923 0.000000
vt -1.000000 6.135923 0.000000
vt -0.000000 5.890486 0.000000
vt -1.000000 5.890486 0.000000
vt -0.000000 5.645049 0.000000
vt -1.000000 5.645049 0.000000
vt -0.000000 5.399612 0.000000
vt -1.000000 5.399612 0.000000
vt -0.000000 5.154175 0.000000
vt -1.000000 5.154175 0.000000
vt -0.000000 4.908739 0.000000
vt -1.000000 4.908739 0.000000
vt -0.000000 4.663302 0.000000
vt -1.000000 4.663302 0.000000
vt -0.000000 4.417865 0.000000
vt -1.000000 4.417865 0.000000
vt -1.000000 3.926991 0.000000
vt -0.000000 3.926991 0.000000
vt -1.000000 3.436117 0.000000
vt -0.000000 3.436117 0.000000
vt -0.000000 3.190680 0.000000
vt -1.000000 3.190680 0.000000
vt -0.000000 2.945243 0.000000
vt -1.000000 2.945243 0.000000
vt -0.000000 2.699806 0.000000
vt -1.000000 2.699806 0.000000
vt -0.000000 2.454369 0.000000
vt -1.000000 2.454369 0.000000
vt -0.000000 2.208932 0.000000
vt -1.000000 2.208932 0.000000
vt -0.000000 1.963495 0.000000
vt -1.000000 1.963495 0.000000
vt -0.000000 1.718058 0.000000
vt -1.000000 1.718058 0.000000
vt -0.000000 1.472622 0.000000
vt -1.000000 1.472622 0.000000
vt -0.000000 1.227185 0.000000
vt -1.000000 1.227185 0.000000
vt -0.000000 0.981748 0.000000
vt -1.000000 0.981748 0.000000
vt -0.000000 0.736311 0.000000
vt -1.000000 0.736311 0.000000
vt -0.000000 0.490874 0.000000
vt -1.000000 0.490874 0.000000
vt -0.000000 0.245437 0.000000
vt -1.000000 0.245437 0.000000
vt -0.000000 0.000000 0.000000
vt -1.000000 0.000000 0.000000
vt -0.000000 -0.245437 0.000000
vt -1.000000 -0.245437 0.000000
vt -0.000000 -0.490874 0.000000
vt -1.000000 -0.490874 0.000000
vt -0.000000 -0.736311 0.000000
vt -1.000000 -0.736311 0.000000
vt -0.000000 -0.981748 0.000000
vt -1.000000 -0.981748 0.000000
vt -0.000000 -1.227185 0.000000
vt -1.000000 -1.227185 0.000000
vt -0.000000 -1.472622 0.000000
vt -1.000000 -1.472622 0.000000
vt -0.000000 -1.718058 0.000000
vt -1.000000 -1.718058 0.000000
vt -0.000000 -1.963495 0.000000
vt -1.000000 -1.963495 0.000000
vt -0.000000 -2.208932 0.000000
vt -1.000000 -2.208932 0.000000
vt -0.000000 -2.454369 0.000000
vt -1.000000 -2.454369 0.000000
vt -0.000000 -2.699806 0.000000
vt -1.000000 -2.699806 0.000000
vt -0.000000 -2.945243 0.000000
vt -1.000000 -2.945243 0.000000
vt -0.000000 -3.190680 0.000000
vt -1.000000 -3.190680 0.000000
vt -0.000000 -3.436117 0.000000
vt -1.000000 -3.436117 0.000000
vt -1.000000 -3.926991 0.000000
vt 4.975924 0.245043 0.000000
vt -4.975924 0.245043 0.000000
vt 5.000000 0.000000 0.000000
vt -5.000000 0.000000 0.000000
vt 4.975924 -0.245043 0.000000
vt -4.975924 -0.245043 0.000000
vt 4.903926 -0.487726 0.000000
vt -4.903926 -0.487726 0.000000
vt 4.784702 -0.725712 0.000000
vt -4.784702 -0.725712 0.000000
vt 4.619398 -0.956709 0.000000
vt -4.619398 -0.956709 0.000000
vt 4.409606 -1.178492 0.000000
vt -4.409606 -1.178492 0.000000
vt 4.157348 -1.388926 0.000000
vt -4.157348 -1.388926 0.000000
vt 3.865052 -1.585983 0.000000
vt -3.865052 -1.585983 0.000000
vt 3.535534 -1.767767 0.000000
vt -3.535534 -1.767767 0.000000
vt 3.171966 -1.932526 0.000000
vt -3.171966 -1.932526 0.000000
vt 2.777851 -2.078674 0.000000
vt -2.777851 -2.078674 0.000000
vt 2.356984 -2.204803 0.000000
vt -2.356984 -2.204803 0.000000
vt 1.913417 -2.309699 0.000000
vt -1.913417 -2.309699 0.000000
vt 1.451423 -2.392351 0.000000
vt -1.451423 -2.392351 0.000000
vt 0.975452 -2.451963 0.000000
vt -0.975452 -2.451963 0.000000
vt -0.000000 -2.500000 0.000000
vt -4.903926 0.487726 0.000000
vt 4.903926 0.487726 0.000000
vt -4.784702 0.725712 0.000000
vt 4.784702 0.725712 0.000000
vt -4.619398 0.956709 0.000000
vt 4.619398 0.956709 0.000000
vt -4.409606 1.178492 0.000000
vt 4.409606 1.178492 0.000000
vt -4.157348 1.388926 0.000000
vt 4.157348 1.388926 0.000000
vt -3.865052 1.585983 0.000000
vt 3.865052 1.585983 0.000000
vt -3.535534 1.767767 0.000000
vt 3.535534 1.767767 0.000000
vt -3.171966 1.932526 0.000000
vt 3.171966 1.932526 0.000000
vt -2.777851 2.078674 0.000000
vt 2.777851 2.078674 0.000000
vt -2.356984 2.204803 0.000000
vt 2.356984 2.204803 0.000000
vt -1.913417 2.309699 0.000000
vt 1.913417 2.309699 0.000000
vt -1.451423 2.392351 0.000000
vt 1.451423 2.392351 0.000000
vt -0.975452 2.451963 0.000000
vt 0.975452 2.451963 0.000000
vt -0.000000 2.500000 0.000000
vt 0.000000 0.000000 0.000000
vt 1.200000 0.000000 0.000000
vt 0.000000 28.000000 0.000000
vt 1.200000 28.000000 0.000000
vt -0.000000 0.000000 0.000000
vt 1.200000 0.000000 0.000000
vt -0.000000 28.000000 0.000000
vt 1.200000 28.000000 0.000000
vt -0.000000 0.000000 0.000000
vt 1.200000 0.000000 0.000000
vt -0.000000 28.000000 0.000000
vt 1.200000 28.000000 0.000000
vt -0.000000 0.000000 0.000000
vt 1.200000 0.000000 0.000000
vt -0.000000 28.000000 0.000000
vt 1.200000 28.000000 0.000000
vt 0.600000 0.600000 0.000000
vt -0.600000 0.600000 0.000000
vt 0.600000 -0.600000 0.000000
vt -0.600000 -0.600000 0.000000
vn 0.000000 0.000000 -0.100000
vn 0.000000 0.000000 -0.100000
vn 0.000000 0.000000 -0.100000
vn 0.000000 0.000000 -0.100000
vn 0.000000 0.000000 -0.100000
vn 0.000000 0.000000 -0.100000
vn 0.000000 0.000000 -0.100000
vn 0.000000 0.000000 -0.100000
vn 0.000000 0.000000 -0.100000
vn 0.000000 0.000000 -0.100000
vn 0.000000 0.000000 -0.100000
vn 0.000000 0.000000 -0.100000
vn 0.000000 0.000000 -0.100000
vn 0.000000 0.000000 -0.100000
vn 0.000000 0.000000 -0.100000
vn 0.000000 0.000000 -0.100000
vn 0.000000 0.000000 -0.100000
vn 0.000000 0.000000 -0.100000
vn 0.000000 0.000000 -0.100000
vn 0.000000 0.000000 -0.100000
vn 0.000000 0.000000 -0.100000
vn 0.000000 0.000000 -0.100000
vn 0.000000 0.000000 -0.100000
vn 0.000000 0.000000 -0.100000
vn 0.000000 0.000000 -0.100000
vn 0.000000 0.000000 -0.100000
vn 0.000000 0.000000 -0.100000
vn 0.000000 0.000000 -0.100000
vn 0.000000 0.000000 -0.100000
vn 0.000000 0.000000 -0.100000
vn 0.000000 0.000000 -0.100000
vn 0.000000 0.000000 -0.100000
vn 0.000000 0.000000 -0.100000
vn 0.000000 0.000000 -0.100000
vn 0.000000 0.000000 -0.100000
vn 0.000000 0.000000 -0.100000
vn 0.000000 0.000000 -0.100000
vn 0.000000 0.000000 -0.100000
vn 0.000000 0.000000 -0.100000
vn 0.000000 0.000000 -0.100000
vn 0.000000 0.000000 -0.100000
vn 0.000000 0.000000 -0.100000
vn 0.000000 0.000000 -0.100000
vn 0.000000 0.000000 -0.100000
vn 0.000000 0.000000 -0.100000
vn 0.000000 0.000000 -0.100000
vn 0.000000 0.000000 -0.100000
vn 0.000000 0.000000 -0.100000
vn 0.000000 0.000000 -0.100000
vn 0.000000 0.000000 -0.100000
vn 0.000000 0.000000 -0.100000
vn 0.000000 0.000000 -0.100000
vn 0.000000 0.000000 -0.100000
vn 0.000000 0.000000 -0.100000
vn 0.000000 0.000000 -0.100000
vn 0.000000 0.000000 -0.100000
vn 0.000000 0.000000 -0.100000
vn 0.000000 0.000000 -0.100000
vn 0.000000 0.000000 -0.100000
vn 0.000000 0.000000 -0.100000
vn 0.000000 0.000000 -0.100000
vn 0.000000 0.000000 -0.100000
vn 0.000000 0.000000 -0.100000
vn 0.000000 0.000000 -0.100000
vn -0.098115 0.019327 -0.000000
vn -0.098115 0.019327 -0.000000
vn -0.100000 0.000000 -0.000000
vn -0.100000 0.000000 -0.000000
vn -0.098115 -0.019327 0.000000
vn -0.098115 -0.019327 0.000000
vn -0.092917 -0.036965 0.000000
vn -0.092917 -0.036965 0.000000
vn -0.085496 -0.051870 0.000000
vn -0.085496 -0.051870 0.000000
vn -0.077008 -0.063795 0.000000
vn -0.077008 -0.063795 0.000000
vn -0.068314 -0.073029 0.000000
vn -0.068314 -0.073029 0.000000
vn -0.059913 -0.080065 0.000000
vn -0.059913 -0.080065 0.000000
vn -0.052029 -0.085399 0.000000
vn -0.052029 -0.085399 0.000000
vn -0.044721 -0.089443 0.000000
vn -0.044721 -0.089443 0.000000
vn -0.037962 -0.092514 0.000000
vn -0.037962 -0.092514 0.000000
vn -0.031687 -0.094847 0.000000
vn -0.031687 -0.094847 0.000000
vn -0.025819 -0.096609 0.000000
vn -0.025819 -0.096609 0.000000
vn -0.020280 -0.097922 0.000000
vn -0.020280 -0.097922 0.000000
vn -0.014996 -0.098869 0.000000
vn -0.014996 -0.098869 0.000000
vn -0.009897 -0.099509 0.000000
vn -0.009897 -0.099509 0.000000
vn 0.000000 -0.100000 0.000000
vn -0.092917 0.036965 -0.000000
vn -0.092917 0.036965 -0.000000
vn -0.085496 0.051870 -0.000000
vn -0.085496 0.051870 -0.000000
vn -0.077008 0.063795 -0.000000
vn -0.077008 0.063795 -0.000000
vn -0.068314 0.073029 -0.000000
vn -0.068314 0.073029 -0.000000
vn -0.059913 0.080065 -0.000000
vn -0.059913 0.080065 -0.000000
vn -0.052029 0.085399 -0.000000
vn -0.052029 0.085399 -0.000000
vn -0.044721 0.089443 -0.000000
vn -0.044721 0.089443 -0.000000
vn -0.037962 0.092514 -0.000000
vn -0.037962 0.092514 -0.000000
vn -0.031687 0.094847 -0.000000
vn -0.031687 0.094847 -0.000000
vn -0.025819 0.096609 -0.000000
vn -0.025819 0.096609 -0.000000
vn -0.020280 0.097922 -0.000000
vn -0.020280 0.097922 -0.000000
vn -0.014996 0.098869 -0.000000
vn -0.014996 0.098869 -0.000000
vn -0.009897 0.099509 -0.000000
vn -0.009897 0.099509 -0.000000
vn 0.000000 0.100000 0.000000
vn 0.000000 0.100000 0.000000
vn 0.009897 0.099509 0.000000
vn 0.009897 0.099509 0.000000
vn 0.014996 0.098869 0.000000
vn 0.014996 0.098869 0.000000
vn 0.020280 0.097922 0.000000
vn 0.020280 0.097922 0.000000
vn 0.025819 0.096609 0.000000
vn 0.025819 0.096609 0.000000
vn 0.031687 0.094847 0.000000
vn 0.031687 0.094847 0.000000
vn 0.037962 0.092514 0.000000
vn 0.037962 0.092514 0.000000
vn 0.044721 0.089443 0.000000
vn 0.044721 0.089443 0.000000
vn 0.052029 0.085399 0.000000
vn 0.052029 0.085399 0.000000
vn 0.059913 0.080065 0.000000
vn 0.059913 0.080065 0.000000
vn 0.068314 0.073029 0.000000
vn 0.068314 0.073029 0.000000
vn 0.077008 0.063795 0.000000
vn 0.077008 0.063795 0.000000
vn 0.085496 0.051870 0.000000
vn 0.085496 0.051870 0.000000
vn 0.092917 0.036965 0.000000
vn 0.092917 0.036965 0.000000
vn 0.098115 0.019327 0.000000
vn 0.098115 0.019327 0.000000
vn 0.100000 0.000000 0.000000
vn 0.100000 0.000000 0.000000
vn 0.098115 -0.019327 0.000000
vn 0.098115 -0.019327 0.000000
vn 0.092917 -0.036965 0.000000
vn 0.092917 -0.036965 0.000000
vn 0.085496 -0.051870 0.000000
vn 0.085496 -0.051870 0.000000
vn 0.077008 -0.063795 0.000000
vn 0.077008 -0.063795 0.000000
vn 0.068314 -0.073029 0.000000
vn 0.068314 -0.073029 0.000000
vn 0.059913 -0.080065 0.000000
vn 0.059913 -0.080065 0.000000
vn 0.052029 -0.085399 0.000000
vn 0.052029 -0.085399 0.000000
vn 0.044721 -0.089443 0.000000
vn 0.044721 -0.089443 0.000000
vn 0.037962 -0.092514 0.000000
vn 0.037962 -0.092514 0.000000
vn 0.031687 -0.094847 0.000000
vn 0.031687 -0.094847 0.000000
vn 0.025819 -0.096609 0.000000
vn 0.025819 -0.096609 0.000000
vn 0.020280 -0.097922 0.000000
vn 0.020280 -0.097922 0.000000
vn 0.014996 -0.098869 0.000000
vn 0.014996 -0.098869 0.000000
vn 0.009897 -0.099509 0.000000
vn 0.009897 -0.099509 0.000000
vn 0.000000 -0.100000 0.000000
vn 0.000000 0.000000 0.100000
vn 0.000000 0.000000 0.100000
vn 0.000000 0.000000 0.100000
vn 0.000000 0.000000 0.100000
vn 0.000000 0.000000 0.100000
vn 0.000000 0.000000 0.100000
vn 0.000000 0.000000 0.100000
vn 0.000000 0.000000 0.100000
vn 0.000000 0.000000 0.100000
vn 0.000000 0.000000 0.100000
vn 0.000000 0.000000 0.100000
vn 0.000000 0.000000 0.100000
vn 0.000000 0.000000 0.100000
vn 0.000000 0.000000 0.100000
vn 0.000000 0.000000 0.100000
vn 0.000000 0.000000 0.100000
vn 0.000000 0.000000 0.100000
vn 0.000000 0.000000 0.100000
vn 0.000000 0.000000 0.100000
vn 0.000000 0.000000 0.100000
vn 0.000000 0.000000 0.100000
vn 0.000000 0.000000 0.100000
vn 0.000000 0.000000 0.100000
vn 0.000000 0.000000 0.100000
vn 0.000000 0.000000 0.100000
vn 0.000000 0.000000 0.100000
vn 0.000000 0.000000 0.100000
vn 0.000000 0.000000 0.100000
vn 0.000000 0.000000 0.100000
vn 0.000000 0.000000 0.100000
vn 0.000000 0.000000 0.100000
vn 0.000000 0.000000 0.100000
vn 0.000000 0.000000 0.100000
vn 0.000000 0.000000 0.100000
vn 0.000000 0.000000 0.100000
vn 0.000000 0.000000 0.100000
vn 0.000000 0.000000 0.100000
vn 0.000000 0.000000 0.100000
vn 0.000000 0.000000 0.100000
vn 0.000000 0.000000 0.100000
vn 0.000000 0.000000 0.100000
vn 0.000000 0.000000 0.100000
vn 0.000000 0.000000 0.100000
vn 0.000000 0.000000 0.100000
vn 0.000000 0.000000 0.100000
vn 0.000000 0.000000 0.100000
vn 0.000000 0.000000 0.100000
vn 0.000000 0.000000 0.100000
vn 0.000000 0.000000 0.100000
vn 0.000000 0.000000 0.100000
vn 0.000000 0.000000 0.100000
vn 0.000000 0.000000 0.100000
vn 0.000000 0.000000 0.100000
vn 0.000000 0.000000 0.100000
vn 0.000000 0.000000 0.100000
vn 0.000000 0.000000 0.100000
vn 0.000000 0.000000 0.100000
vn 0.000000 0.000000 0.100000
vn 0.000000 0.000000 0.100000
vn 0.000000 0.000000 0.100000
vn 0.100000 0.000000 0.000000
vn 0.100000 0.000000 0.000000
vn 0.100000 0.000000 0.000000
vn 0.100000 0.000000 0.000000
vn 0.000000 -0.100000 0.000000
vn 0.000000 -0.100000 0.000000
vn 0.000000 -0.100000 0.000000
vn 0.000000 -0.100000 0.000000
vn -0.100000 0.000000 0.000000
vn -0.100000 0.000000 0.000000
vn -0.100000 0.000000 0.000000
vn -0.100000 0.000000 0.000000
vn 0.000000 0.100000 0.000000
vn 0.000000 0.100000 0.000000
vn 0.000000 0.100000 0.000000
vn 0.000000 0.100000 0.000000
vn -0.000000 0.000000 -0.100000
vn -0.000000 0.000000 -0.100000
vn -0.000000 0.000000 -0.100000
vn -0.000000 0.000000 -0.100000
usemtl Steel_-_Satin
f 2/1/1 63/2/2 1/3/3
f 1/3/3 63/2/2 64/4/4
f 1/3/3 64/4/4 60/5/5
f 60/5/5 64/4/4 59/6/6
f 59/6/6 64/4/4 58/7/7
f 58/7/7 64/4/4 57/8/8
f 57/8/8 64/4/4 56/9/9
f 56/9/9 64/4/4 55/10/10
f 55/10/10 64/4/4 54/11/11
f 54/11/11 64/4/4 53/12/12
f 53/12/12 64/4/4 52/13/13
f 52/13/13 64/4/4 51/14/14
f 51/14/14 64/4/4 50/15/15
f 50/15/15 64/4/4 49/16/16
f 49/16/16 64/4/4 48/17/17
f 48/17/17 64/4/4 47/18/18
f 47/18/18 64/4/4 46/19/19
f 46/19/19 64/4/4 61/20/20
f 46/19/19 61/20/20 45/21/21
f 45/21/21 61/20/20 44/22/22
f 44/22/22 61/20/20 43/23/23
f 43/23/23 61/20/20 42/24/24
f 42/24/24 61/20/20 41/25/25
f 41/25/25 61/20/20 40/26/26
f 40/26/26 61/20/20 39/27/27
f 39/27/27 61/20/20 38/28/28
f 38/28/28 61/20/20 37/29/29
f 37/29/29 61/20/20 36/30/30
f 36/30/30 61/20/20 35/31/31
f 35/31/31 61/20/20 34/32/32
f 34/32/32 61/20/20 33/33/33
f 33/33/33 61/20/20 32/34/34
f 32/34/34 61/20/20 31/35/35
f 31/35/35 61/20/20 62/36/36
f 31/35/35 62/36/36 30/37/37
f 30/37/37 62/36/36 29/38/38
f 29/38/38 62/36/36 28/39/39
f 28/39/39 62/36/36 27/40/40
f 27/40/40 62/36/36 26/41/41
f 26/41/41 62/36/36 25/42/42
f 25/42/42 62/36/36 24/43/43
f 24/43/43 62/36/36 23/44/44
f 23/44/44 62/36/36 22/45/45
f 22/45/45 62/36/36 21/46/46
f 21/46/46 62/36/36 20/47/47
f 20/47/47 62/36/36 19/48/48
f 19/48/48 62/36/36 18/49/49
f 18/49/49 62/36/36 17/50/50
f 17/50/50 62/36/36 16/51/51
f 16/51/51 62/36/36 63/2/2
f 16/51/51 63/2/2 15/52/52
f 15/52/52 63/2/2 14/53/53
f 14/53/53 63/2/2 13/54/54
f 13/54/54 63/2/2 12/55/55
f 12/55/55 63/2/2 11/56/56
f 11/56/56 63/2/2 10/57/57
f 10/57/57 63/2/2 9/58/58
f 9/58/58 63/2/2 8/59/59
f 8/59/59 63/2/2 7/60/60
f 7/60/60 63/2/2 6/61/61
f 6/61/61 63/2/2 5/62/62
f 5/62/62 63/2/2 4/63/63
f 4/63/63 63/2/2 3/64/64
f 3/64/64 63/2/2 2/1/1
f 66/65/65 2/66/66 65/67/67
f 65/67/67 2/66/66 1/68/68
f 65/69/67 1/70/68 124/71/69
f 124/71/69 1/70/68 60/72/70
f 124/71/69 60/72/70 123/73/71
f 123/73/71 60/72/70 59/74/72
f 123/73/71 59/74/72 122/75/73
f 122/75/73 59/74/72 58/76/74
f 122/75/73 58/76/74 121/77/75
f 121/77/75 58/76/74 57/78/76
f 121/77/75 57/78/76 120/79/77
f 120/79/77 57/78/76 56/80/78
f 120/79/77 56/80/78 119/81/79
f 119/81/79 56/80/78 55/82/80
f 119/81/79 55/82/80 118/83/81
f 118/83/81 55/82/80 54/84/82
f 118/83/81 54/84/82 117/85/83
f 117/85/83 54/84/82 53/86/84
f 117/85/83 53/86/84 116/87/85
f 116/87/85 53/86/84 52/88/86
f 116/87/85 52/88/86 115/89/87
f 115/89/87 52/88/86 51/90/88
f 115/89/87 51/90/88 114/91/89
f 114/91/89 51/90/88 50/92/90
f 114/91/89 50/92/90 113/93/91
f 113/93/91 50/92/90 49/94/92
f 113/93/91 49/94/92 112/95/93
f 112/95/93 49/94/92 48/96/94
f 112/95/93 48/96/94 111/97/95
f 111/97/95 48/96/94 47/98/96
f 111/97/95 47/98/96 46/99/97
f 2/66/66 66/65/65 3/100/98
f 3/100/98 66/65/65 67/101/99
f 3/100/98 67/101/99 4/102/100
f 4/102/100 67/101/99 68/103/101
f 4/102/100 68/103/101 5/104/102
f 5/104/102 68/103/101 69/105/103
f 5/104/102 69/105/103 6/106/104
f 6/106/104 69/105/103 70/107/105
f 6/106/104 70/107/105 7/108/106
f 7/108/106 70/107/105 71/109/107
f 7/108/106 71/109/107 8/110/108
f 8/110/108 71/109/107 72/111/109
f 8/110/108 72/111/109 9/112/110
f 9/112/110 72/111/109 73/113/111
f 9/112/110 73/113/111 10/114/112
f 10/114/112 73/113/111 74/115/113
f 10/114/112 74/115/113 11/116/114
f 11/116/114 74/115/113 75/117/115
f 11/116/114 75/117/115 12/118/116
f 12/118/116 75/117/115 76/119/117
f 12/118/116 76/119/117 13/120/118
f 13/120/118 76/119/117 77/121/119
f 13/120/118 77/121/119 14/122/120
f 14/122/120 77/121/119 78/123/121
f 14/122/120 78/123/121 15/124/122
f 15/124/122 78/123/121 79/125/123
f 15/124/122 79/125/123 80/126/124
f 15/124/122 80/126/124 16/127/125
f 16/127/125 80/126/124 81/128/126
f 16/127/125 81/128/126 17/129/127
f 17/129/127 81/128/126 18/130/128
f 18/130/128 81/128/126 82/131/129
f 18/130/128 82/131/129 19/132/130
f 19/132/130 82/131/129 83/133/131
f 19/132/130 83/133/131 20/134/132
f 20/134/132 83/133/131 84/135/133
f 20/134/132 84/135/133 21/136/134
f 21/136/134 84/135/133 85/137/135
f 21/136/134 85/137/135 22/138/136
f 22/138/136 85/137/135 86/139/137
f 22/138/136 86/139/137 23/140/138
f 23/140/138 86/139/137 87/141/139
f 23/140/138 87/141/139 24/142/140
f 24/142/140 87/141/139 88/143/141
f 24/142/140 88/143/141 25/144/142
f 25/144/142 88/143/141 89/145/143
f 25/144/142 89/145/143 26/146/144
f 26/146/144 89/145/143 90/147/145
f 26/146/144 90/147/145 27/148/146
f 27/148/146 90/147/145 91/149/147
f 27/148/146 91/149/147 28/150/148
f 28/150/148 91/149/147 92/151/149
f 28/150/148 92/151/149 29/152/150
f 29/152/150 92/151/149 93/153/151
f 29/152/150 93/153/151 30/154/152
f 30/154/152 93/153/151 94/155/153
f 30/154/152 94/155/153 31/156/154
f 31/156/154 94/155/153 95/157/155
f 31/156/154 95/157/155 32/158/156
f 32/158/156 95/157/155 96/159/157
f 32/158/156 96/159/157 33/160/158
f 33/160/158 96/159/157 97/161/159
f 33/160/158 97/161/159 34/162/160
f 34/162/160 97/161/159 98/163/161
f 34/162/160 98/163/161 35/164/162
f 35/164/162 98/163/161 99/165/163
f 35/164/162 99/165/163 36/166/164
f 36/166/164 99/165/163 100/167/165
f 36/166/164 100/167/165 37/168/166
f 37/168/166 100/167/165 101/169/167
f 37/168/166 101/169/167 38/170/168
f 38/170/168 101/169/167 102/171/169
f 38/170/168 102/171/169 39/172/170
f 39/172/170 102/171/169 103/173/171
f 39/172/170 103/173/171 40/174/172
f 40/174/172 103/173/171 104/175/173
f 40/174/172 104/175/173 41/176/174
f 41/176/174 104/175/173 105/177/175
f 41/176/174 105/177/175 42/178/176
f 42/178/176 105/177/175 106/179/177
f 42/178/176 106/179/177 43/180/178
f 43/180/178 106/179/177 107/181/179
f 43/180/178 107/181/179 44/182/180
f 44/182/180 107/181/179 108/183/181
f 44/182/180 108/183/181 45/184/182
f 45/184/182 108/183/181 109/185/183
f 45/184/182 109/185/183 110/186/184
f 45/184/182 110/186/184 46/99/97
f 46/99/97 110/186/184 111/97/95
f 124/187/185 96/188/186 65/189/187
f 65/189/187 96/188/186 95/190/188
f 65/189/187 95/190/188 66/191/189
f 66/191/189 95/190/188 94/192/190
f 66/191/189 94/192/190 67/193/191
f 67/193/191 94/192/190 93/194/192
f 67/193/191 93/194/192 68/195/193
f 68/195/193 93/194/192 92/196/194
f 68/195/193 92/196/194 69/197/195
f 69/197/195 92/196/194 91/198/196
f 69/197/195 91/198/196 70/199/197
f 70/199/197 91/198/196 90/200/198
f 70/199/197 90/200/198 71/201/199
f 71/201/199 90/200/198 89/202/200
f 71/201/199 89/202/200 72/203/201
f 72/203/201 89/202/200 88/204/202
f 72/203/201 88/204/202 73/205/203
f 73/205/203 88/204/202 87/206/204
f 73/205/203 87/206/204 74/207/205
f 74/207/205 87/206/204 86/208/206
f 74/207/205 86/208/206 75/209/207
f 75/209/207 86/208/206 85/210/208
f 75/209/207 85/210/208 76/211/209
f 76/211/209 85/210/208 84/212/210
f 76/211/209 84/212/210 77/213/211
f 77/213/211 84/212/210 83/214/212
f 77/213/211 83/214/212 78/215/213
f 78/215/213 83/214/212 82/216/214
f 78/215/213 82/216/214 79/217/215
f 79/217/215 82/216/214 81/218/216
f 79/217/215 81/218/216 80/219/217
f 96/188/186 124/187/185 97/220/218
f 97/220/218 124/187/185 123/221/219
f 97/220/218 123/221/219 98/222/220
f 98/222/220 123/221/219 122/223/221
f 98/222/220 122/223/221 99/224/222
f 99/224/222 122/223/221 121/225/223
f 99/224/222 121/225/223 100/226/224
f 100/226/224 121/225/223 120/227/225
f 100/226/224 120/227/225 101/228/226
f 101/228/226 120/227/225 119/229/227
f 101/228/226 119/229/227 102/230/228
f 102/230/228 119/229/227 118/231/229
f 102/230/228 118/231/229 103/232/230
f 103/232/230 118/231/229 117/233/231
f 103/232/230 117/233/231 104/234/232
f 104/234/232 117/233/231 116/235/233
f 104/234/232 116/235/233 105/236/234
f 105/236/234 116/235/233 115/237/235
f 105/236/234 115/237/235 106/238/236
f 106/238/236 115/237/235 114/239/237
f 106/238/236 114/239/237 107/240/238
f 107/240/238 114/239/237 113/241/239
f 107/240/238 113/241/239 108/242/240
f 108/242/240 113/241/239 112/243/241
f 108/242/240 112/243/241 109/244/242
f 109/244/242 112/243/241 111/245/243
f 109/244/242 111/245/243 110/246/244
f 125/247/245 126/248/246 61/249/247
f 61/249/247 126/248/246 62/250/248
f 127/251/249 125/252/250 64/253/251
f 64/253/251 125/252/250 61/254/252
f 128/255/253 127/256/254 63/257/255
f 63/257/255 127/256/254 64/258/256
f 126/259/257 128/260/258 62/261/259
f 62/261/259 128/260/258 63/262/260
f 128/263/261 126/264/262 127/265/263
f 127/265/263 126/264/262 125/266/264
# 128 vertices
# 266 texture params
# 264 normals
# 252 facets

# 1 groups
