# WaveFront *.obj file (generated by Autodesk ATF)

mtllib ice_cover.mtl

g Body1

v 0.127000 0.000000 0.000000
v 0.109985 -0.063500 0.000000
v 0.063500 -0.109985 0.000000
v -0.000000 -0.127000 0.000000
v -0.063500 -0.109985 0.000000
v -0.109985 -0.063500 0.000000
v -0.127000 0.000000 0.000000
v -0.109985 0.063500 0.000000
v -0.063500 0.109985 0.000000
v -0.000000 0.127000 0.000000
v 0.063500 0.109985 0.000000
v 0.109985 0.063500 0.000000
v 0.127000 0.000000 2.000000
v 0.109985 0.063500 2.000000
v 0.063500 0.109985 2.000000
v -0.000000 0.127000 2.000000
v -0.063500 0.109985 2.000000
v -0.109985 0.063500 2.000000
v -0.127000 0.000000 2.000000
v -0.109985 -0.063500 2.000000
v -0.063500 -0.109985 2.000000
v -0.000000 -0.127000 2.000000
v 0.063500 -0.109985 2.000000
v 0.109985 -0.063500 2.000000
v 0.127000 0.000000 1.000000
v 0.109985 -0.063500 1.000000
v 0.063500 -0.109985 1.000000
v -0.000000 -0.127000 1.000000
v -0.063500 -0.109985 1.000000
v -0.109985 -0.063500 1.000000
v -0.127000 0.000000 1.000000
v -0.109985 0.063500 1.000000
v -0.063500 0.109985 1.000000
v -0.000000 0.127000 1.000000
v 0.063500 0.109985 1.000000
v 0.109985 0.063500 1.000000
v 100.000000 -100.000000 0.000000
v 100.000000 100.000000 0.000000
v 100.000000 100.000000 2.000000
v 100.000000 -100.000000 2.000000
v -100.000000 -100.000000 0.000000
v -100.000000 -100.000000 2.000000
v -100.000000 100.000000 0.000000
v -100.000000 100.000000 2.000000
vt 0.200000 -0.033249 0.000000
vt 0.100000 -0.033249 0.000000
vt 0.200000 -0.039898 0.000000
vt 0.100000 -0.039898 0.000000
vt 0.200000 0.039898 0.000000
vt 0.100000 0.039898 0.000000
vt 0.200000 0.033249 0.000000
vt 0.100000 0.033249 0.000000
vt 0.200000 0.026599 0.000000
vt 0.100000 0.026599 0.000000
vt 0.200000 0.019949 0.000000
vt 0.100000 0.019949 0.000000
vt 0.200000 0.013299 0.000000
vt 0.100000 0.013299 0.000000
vt 0.200000 0.006650 0.000000
vt 0.100000 0.006650 0.000000
vt 0.200000 0.000000 0.000000
vt 0.100000 0.000000 0.000000
vt 0.200000 -0.006650 0.000000
vt 0.100000 -0.006650 0.000000
vt 0.200000 -0.013299 0.000000
vt 0.100000 -0.013299 0.000000
vt 0.200000 -0.019949 0.000000
vt 0.100000 -0.019949 0.000000
vt 0.200000 -0.026599 0.000000
vt 0.100000 -0.026599 0.000000
vt 0.000000 0.033249 0.000000
vt 0.000000 0.039898 0.000000
vt 0.000000 -0.039898 0.000000
vt 0.000000 -0.033249 0.000000
vt 0.000000 -0.026599 0.000000
vt -0.000000 -0.019949 0.000000
vt -0.000000 -0.013299 0.000000
vt -0.000000 -0.006650 0.000000
vt 0.000000 0.000000 0.000000
vt 0.000000 0.006650 0.000000
vt 0.000000 0.013299 0.000000
vt 0.000000 0.019949 0.000000
vt 0.000000 0.026599 0.000000
vt 0.000000 0.000000 0.000000
vt 20.000000 0.000000 0.000000
vt 0.000000 0.200000 0.000000
vt 20.000000 0.200000 0.000000
vt 0.000000 0.000000 0.000000
vt 20.000000 0.000000 0.000000
vt 0.000000 0.200000 0.000000
vt 20.000000 0.200000 0.000000
vt -0.000000 0.000000 0.000000
vt 20.000000 0.000000 0.000000
vt -0.000000 0.200000 0.000000
vt 20.000000 0.200000 0.000000
vt -0.000000 0.000000 0.000000
vt 20.000000 0.000000 0.000000
vt -0.000000 0.200000 0.000000
vt 20.000000 0.200000 0.000000
vt 0.010999 -0.006350 0.000000
vt 10.000000 -10.000000 0.000000
vt 0.012700 0.000000 0.000000
vt 10.000000 10.000000 0.000000
vt 0.010999 0.006350 0.000000
vt 0.006350 0.010999 0.000000
vt 0.000000 0.012700 0.000000
vt -10.000000 10.000000 0.000000
vt -0.006350 0.010999 0.000000
vt -0.010999 0.006350 0.000000
vt -0.012700 0.000000 0.000000
vt -10.000000 -10.000000 0.000000
vt -0.010999 -0.006350 0.000000
vt -0.006350 -0.010999 0.000000
vt 0.000000 -0.012700 0.000000
vt 0.006350 -0.010999 0.000000
vt -0.010999 0.006350 0.000000
vt -10.000000 10.000000 0.000000
vt -0.012700 0.000000 0.000000
vt -10.000000 -10.000000 0.000000
vt -0.010999 -0.006350 0.000000
vt -0.006350 -0.010999 0.000000
vt -0.000000 -0.012700 0.000000
vt 10.000000 -10.000000 0.000000
vt 0.006350 -0.010999 0.000000
vt 0.010999 -0.006350 0.000000
vt 0.012700 0.000000 0.000000
vt 10.000000 10.000000 0.000000
vt 0.010999 0.006350 0.000000
vt 0.006350 0.010999 0.000000
vt -0.000000 0.012700 0.000000
vt -0.006350 0.010999 0.000000
vn -0.086603 0.050000 0.000000
vn -0.086603 0.050000 0.000000
vn -0.100000 0.000000 0.000000
vn -0.100000 0.000000 0.000000
vn -0.086603 -0.050000 0.000000
vn -0.086603 -0.050000 0.000000
vn -0.050000 -0.086603 0.000000
vn -0.050000 -0.086603 0.000000
vn 0.000000 -0.100000 0.000000
vn 0.000000 -0.100000 0.000000
vn 0.050000 -0.086603 0.000000
vn 0.050000 -0.086603 0.000000
vn 0.086603 -0.050000 0.000000
vn 0.086603 -0.050000 0.000000
vn 0.100000 -0.000000 0.000000
vn 0.100000 -0.000000 0.000000
vn 0.086603 0.050000 0.000000
vn 0.086603 0.050000 0.000000
vn 0.050000 0.086603 0.000000
vn 0.050000 0.086603 0.000000
vn 0.000000 0.100000 0.000000
vn 0.000000 0.100000 0.000000
vn -0.050000 0.086603 0.000000
vn -0.050000 0.086603 0.000000
vn -0.086603 -0.050000 0.000000
vn -0.100000 -0.000000 0.000000
vn -0.086603 0.050000 0.000000
vn -0.050000 0.086603 0.000000
vn 0.000000 0.100000 0.000000
vn 0.050000 0.086603 0.000000
vn 0.086603 0.050000 0.000000
vn 0.100000 -0.000000 0.000000
vn 0.086603 -0.050000 0.000000
vn 0.050000 -0.086603 0.000000
vn 0.000000 -0.100000 0.000000
vn -0.050000 -0.086603 0.000000
vn 0.100000 0.000000 0.000000
vn 0.100000 0.000000 0.000000
vn 0.100000 0.000000 0.000000
vn 0.100000 0.000000 0.000000
vn 0.000000 -0.100000 0.000000
vn 0.000000 -0.100000 0.000000
vn 0.000000 -0.100000 0.000000
vn 0.000000 -0.100000 0.000000
vn -0.100000 0.000000 0.000000
vn -0.100000 0.000000 0.000000
vn -0.100000 0.000000 0.000000
vn -0.100000 0.000000 0.000000
vn 0.000000 0.100000 0.000000
vn 0.000000 0.100000 0.000000
vn 0.000000 0.100000 0.000000
vn 0.000000 0.100000 0.000000
vn 0.000000 0.000000 0.100000
vn 0.000000 0.000000 0.100000
vn 0.000000 0.000000 0.100000
vn 0.000000 0.000000 0.100000
vn 0.000000 0.000000 0.100000
vn 0.000000 0.000000 0.100000
vn 0.000000 0.000000 0.100000
vn 0.000000 0.000000 0.100000
vn 0.000000 0.000000 0.100000
vn 0.000000 0.000000 0.100000
vn 0.000000 0.000000 0.100000
vn 0.000000 0.000000 0.100000
vn 0.000000 0.000000 0.100000
vn 0.000000 0.000000 0.100000
vn 0.000000 0.000000 0.100000
vn 0.000000 0.000000 0.100000
vn -0.000000 0.000000 -0.100000
vn -0.000000 0.000000 -0.100000
vn -0.000000 0.000000 -0.100000
vn -0.000000 0.000000 -0.100000
vn -0.000000 0.000000 -0.100000
vn -0.000000 0.000000 -0.100000
vn -0.000000 0.000000 -0.100000
vn -0.000000 0.000000 -0.100000
vn -0.000000 0.000000 -0.100000
vn -0.000000 0.000000 -0.100000
vn -0.000000 0.000000 -0.100000
vn -0.000000 0.000000 -0.100000
vn -0.000000 0.000000 -0.100000
vn -0.000000 0.000000 -0.100000
vn -0.000000 0.000000 -0.100000
vn -0.000000 0.000000 -0.100000
usemtl Steel_-_Satin
f 2/1/1 26/2/2 1/3/3
f 1/3/3 26/2/2 25/4/4
f 1/5/3 25/6/4 12/7/5
f 12/7/5 25/6/4 36/8/6
f 12/7/5 36/8/6 11/9/7
f 11/9/7 36/8/6 35/10/8
f 11/9/7 35/10/8 10/11/9
f 10/11/9 35/10/8 34/12/10
f 10/11/9 34/12/10 9/13/11
f 9/13/11 34/12/10 33/14/12
f 9/13/11 33/14/12 8/15/13
f 8/15/13 33/14/12 32/16/14
f 8/15/13 32/16/14 7/17/15
f 7/17/15 32/16/14 31/18/16
f 7/17/15 31/18/16 6/19/17
f 6/19/17 31/18/16 30/20/18
f 6/19/17 30/20/18 5/21/19
f 5/21/19 30/20/18 29/22/20
f 5/21/19 29/22/20 4/23/21
f 4/23/21 29/22/20 28/24/22
f 4/23/21 28/24/22 3/25/23
f 3/25/23 28/24/22 27/26/24
f 3/25/23 27/26/24 2/1/1
f 2/1/1 27/26/24 26/2/2
f 14/27/25 36/8/6 13/28/26
f 13/28/26 36/8/6 25/6/4
f 13/29/26 25/4/4 24/30/27
f 24/30/27 25/4/4 26/2/2
f 24/30/27 26/2/2 23/31/28
f 23/31/28 26/2/2 27/26/24
f 23/31/28 27/26/24 22/32/29
f 22/32/29 27/26/24 28/24/22
f 22/32/29 28/24/22 21/33/30
f 21/33/30 28/24/22 29/22/20
f 21/33/30 29/22/20 20/34/31
f 20/34/31 29/22/20 30/20/18
f 20/34/31 30/20/18 19/35/32
f 19/35/32 30/20/18 31/18/16
f 19/35/32 31/18/16 18/36/33
f 18/36/33 31/18/16 32/16/14
f 18/36/33 32/16/14 17/37/34
f 17/37/34 32/16/14 33/14/12
f 17/37/34 33/14/12 16/38/35
f 16/38/35 33/14/12 34/12/10
f 16/38/35 34/12/10 15/39/36
f 15/39/36 34/12/10 35/10/8
f 15/39/36 35/10/8 14/27/25
f 14/27/25 35/10/8 36/8/6
f 37/40/37 38/41/38 40/42/39
f 40/42/39 38/41/38 39/43/40
f 41/44/41 37/45/42 42/46/43
f 42/46/43 37/45/42 40/47/44
f 43/48/45 41/49/46 44/50/47
f 44/50/47 41/49/46 42/51/48
f 38/52/49 43/53/50 39/54/51
f 39/54/51 43/53/50 44/55/52
f 24/56/53 40/57/54 13/58/55
f 13/58/55 40/57/54 39/59/56
f 13/58/55 39/59/56 14/60/57
f 14/60/57 39/59/56 15/61/58
f 15/61/58 39/59/56 16/62/59
f 16/62/59 39/59/56 44/63/60
f 16/62/59 44/63/60 17/64/61
f 17/64/61 44/63/60 18/65/62
f 18/65/62 44/63/60 19/66/63
f 19/66/63 44/63/60 42/67/64
f 19/66/63 42/67/64 20/68/65
f 20/68/65 42/67/64 21/69/66
f 21/69/66 42/67/64 22/70/67
f 22/70/67 42/67/64 40/57/54
f 22/70/67 40/57/54 23/71/68
f 23/71/68 40/57/54 24/56/53
f 12/72/69 38/73/70 1/74/71
f 1/74/71 38/73/70 37/75/72
f 1/74/71 37/75/72 2/76/73
f 2/76/73 37/75/72 3/77/74
f 3/77/74 37/75/72 4/78/75
f 4/78/75 37/75/72 41/79/76
f 4/78/75 41/79/76 5/80/77
f 5/80/77 41/79/76 6/81/78
f 6/81/78 41/79/76 7/82/79
f 7/82/79 41/79/76 43/83/80
f 7/82/79 43/83/80 8/84/81
f 8/84/81 43/83/80 9/85/82
f 9/85/82 43/83/80 10/86/83
f 10/86/83 43/83/80 38/73/70
f 10/86/83 38/73/70 11/87/84
f 11/87/84 38/73/70 12/72/69
# 44 vertices
# 87 texture params
# 84 normals
# 88 facets

# 1 groups
