# WaveFront *.obj file (generated by Autodesk ATF)

mtllib race2_body.mtl

g Body1

v -666.350000 -47.500000 0.000000
v -678.643905 -45.881477 0.000000
v -690.100000 -41.136207 0.000000
v -699.937572 -33.587572 0.000000
v -707.486207 -23.750000 0.000000
v -712.231477 -12.293905 0.000000
v -713.850000 0.000000 0.000000
v -712.231477 12.293905 0.000000
v -707.486207 23.750000 0.000000
v -699.937572 33.587572 0.000000
v -690.100000 41.136207 0.000000
v -678.643905 45.881477 0.000000
v -666.350000 47.500000 0.000000
v -654.056095 45.881477 0.000000
v -642.600000 41.136207 0.000000
v -632.762428 33.587572 0.000000
v -625.213793 23.750000 0.000000
v -620.468523 12.293905 0.000000
v -618.850000 0.000000 0.000000
v -620.468523 -12.293905 0.000000
v -625.213793 -23.750000 0.000000
v -632.762428 -33.587572 0.000000
v -642.600000 -41.136207 0.000000
v -654.056095 -45.881477 0.000000
v -713.850000 -0.000000 104.350000
v -712.937301 -9.266790 95.083210
v -710.234278 -18.177463 86.172537
v -705.844807 -26.389586 77.960414
v -699.937572 -33.587572 70.762428
v -692.739586 -39.494807 64.855193
v -684.527463 -43.884278 60.465722
v -675.616790 -46.587301 57.762699
v -666.350000 -47.500000 56.850000
v -657.083210 -46.587301 57.762699
v -648.172537 -43.884278 60.465722
v -639.960414 -39.494807 64.855193
v -632.762428 -33.587572 70.762428
v -626.855193 -26.389586 77.960414
v -622.465722 -18.177463 86.172537
v -619.762699 -9.266790 95.083210
v -618.850000 0.000000 104.350000
v -619.762699 9.266790 95.083210
v -622.465722 18.177463 86.172537
v -626.855193 26.389586 77.960414
v -632.762428 33.587572 70.762428
v -639.960414 39.494807 64.855193
v -648.172537 43.884278 60.465722
v -657.083210 46.587301 57.762699
v -666.350000 47.500000 56.850000
v -675.616790 46.587301 57.762699
v -684.527463 43.884278 60.465722
v -692.739586 39.494807 64.855193
v -699.937572 33.587572 70.762428
v -705.844807 26.389586 77.960414
v -710.234278 18.177463 86.172537
v -712.937301 9.266790 95.083210
v -619.762699 -9.266790 113.616790
v -622.465722 -18.177463 122.527463
v -626.855193 -26.389586 130.739586
v -632.762428 -33.587572 137.937572
v -639.960414 -39.494807 143.844807
v -648.172537 -43.884278 148.234278
v -657.083210 -46.587301 150.937301
v -666.350000 -47.500000 151.850000
v -675.616790 -46.587301 150.937301
v -684.527463 -43.884278 148.234278
v -692.739586 -39.494807 143.844807
v -699.937572 -33.587572 137.937572
v -705.844807 -26.389586 130.739586
v -710.234278 -18.177463 122.527463
v -712.937301 -9.266790 113.616790
v -712.937301 9.266790 113.616790
v -710.234278 18.177463 122.527463
v -705.844807 26.389586 130.739586
v -699.937572 33.587572 137.937572
v -692.739586 39.494807 143.844807
v -684.527463 43.884278 148.234278
v -675.616790 46.587301 150.937301
v -666.350000 47.500000 151.850000
v -657.083210 46.587301 150.937301
v -648.172537 43.884278 148.234278
v -639.960414 39.494807 143.844807
v -632.762428 33.587572 137.937572
v -626.855193 26.389586 130.739586
v -622.465722 18.177463 122.527463
v -619.762699 9.266790 113.616790
v -666.350000 -47.500000 179.700000
v -654.056095 -45.881477 179.700000
v -642.600000 -41.136207 179.700000
v -632.762428 -33.587572 179.700000
v -625.213793 -23.750000 179.700000
v -620.468523 -12.293905 179.700000
v -618.850000 0.000000 179.700000
v -620.468523 12.293905 179.700000
v -625.213793 23.750000 179.700000
v -632.762428 33.587572 179.700000
v -642.600000 41.136207 179.700000
v -654.056095 45.881477 179.700000
v -666.350000 47.500000 179.700000
v -678.643905 45.881477 179.700000
v -690.100000 41.136207 179.700000
v -699.937572 33.587572 179.700000
v -707.486207 23.750000 179.700000
v -712.231477 12.293905 179.700000
v -713.850000 0.000000 179.700000
v -712.231477 -12.293905 179.700000
v -707.486207 -23.750000 179.700000
v -699.937572 -33.587572 179.700000
v -690.100000 -41.136207 179.700000
v -678.643905 -45.881477 179.700000
v -658.051477 178.750000 57.580517
v -668.377325 172.788369 56.893283
v -678.606944 166.882296 58.458636
v -688.254773 161.312119 62.202273
v -696.862868 156.342233 67.946499
v -704.022635 152.208540 75.418657
v -709.394228 149.107249 84.264075
v -712.722680 147.185567 94.062893
v -713.850000 146.534708 104.350000
v -712.722680 147.185567 114.637107
v -709.394228 149.107249 124.435925
v -704.022635 152.208540 133.281343
v -696.862868 156.342233 140.753501
v -688.254773 161.312119 146.497727
v -678.606944 166.882296 150.241364
v -668.377325 172.788369 151.806717
v -658.051477 178.750000 151.119483
v -646.579828 178.750000 147.540164
v -636.373559 178.750000 141.196479
v -628.085919 178.750000 132.494451
v -622.247354 178.750000 121.991050
v -619.231560 178.750000 110.358541
v -619.231560 178.750000 98.341459
v -622.247354 178.750000 86.708950
v -628.085919 178.750000 76.205549
v -636.373559 178.750000 67.503521
v -646.579828 178.750000 61.159836
v -123.719744 -178.750000 0.000000
v -108.652574 -177.889270 0.000000
v -93.730510 -175.315369 0.000000
v -79.097258 -171.053085 0.000000
v -64.893745 -165.143466 0.000000
v -51.256758 -157.643426 0.000000
v -38.317630 -148.625193 0.000000
v -26.200971 -138.175619 0.000000
v -15.023471 -126.395337 0.000000
v -4.892775 -113.397800 0.000000
v 4.093552 -99.308179 0.000000
v 11.848967 -84.262167 -0.000000
v 18.298781 -68.404664 -0.000000
v 23.380879 -51.888386 -0.000000
v 27.046318 -34.872395 -0.000000
v 29.259797 -17.520564 -0.000000
v 30.000000 -0.000000 -0.000000
v 29.259797 17.520564 -0.000000
v 27.046318 34.872395 -0.000000
v 23.380879 51.888386 -0.000000
v 18.298781 68.404664 -0.000000
v 11.848967 84.262167 -0.000000
v 4.093552 99.308179 0.000000
v -4.892775 113.397800 0.000000
v -15.023471 126.395337 0.000000
v -26.200971 138.175619 0.000000
v -38.317630 148.625193 0.000000
v -51.256758 157.643426 0.000000
v -64.893745 165.143466 0.000000
v -79.097258 171.053085 0.000000
v -93.730510 175.315369 0.000000
v -108.652574 177.889270 0.000000
v -123.719744 178.750000 0.000000
v -123.719744 178.750000 179.700000
v -108.652574 177.889270 179.700000
v -93.730510 175.315369 179.700000
v -79.097258 171.053085 179.700000
v -64.893745 165.143466 179.700000
v -51.256758 157.643426 179.700000
v -38.317630 148.625193 179.700000
v -26.200971 138.175619 179.700000
v -15.023471 126.395337 179.700000
v -4.892775 113.397800 179.700000
v 4.093552 99.308179 179.700000
v 11.848967 84.262167 179.700000
v 18.298781 68.404664 179.700000
v 23.380879 51.888386 179.700000
v 27.046318 34.872395 179.700000
v 29.259797 17.520564 179.700000
v 30.000000 -0.000000 179.700000
v 29.259797 -17.520564 179.700000
v 27.046318 -34.872395 179.700000
v 23.380879 -51.888386 179.700000
v 18.298781 -68.404664 179.700000
v 11.848967 -84.262167 179.700000
v 4.093552 -99.308179 179.700000
v -4.892775 -113.397800 179.700000
v -15.023471 -126.395337 179.700000
v -26.200971 -138.175619 179.700000
v -38.317630 -148.625193 179.700000
v -51.256758 -157.643426 179.700000
v -64.893745 -165.143466 179.700000
v -79.097258 -171.053085 179.700000
v -93.730510 -175.315369 179.700000
v -108.652574 -177.889270 179.700000
v -123.719744 -178.750000 179.700000
v -75.350000 47.500000 179.700000
v -87.643905 45.881477 179.700000
v -99.100000 41.136207 179.700000
v -108.937572 33.587572 179.700000
v -116.486207 23.750000 179.700000
v -121.231477 12.293905 179.700000
v -122.850000 -0.000000 179.700000
v -121.231477 -12.293905 179.700000
v -116.486207 -23.750000 179.700000
v -108.937572 -33.587572 179.700000
v -99.100000 -41.136207 179.700000
v -87.643905 -45.881477 179.700000
v -75.350000 -47.500000 179.700000
v -63.056095 -45.881477 179.700000
v -51.600000 -41.136207 179.700000
v -41.762428 -33.587572 179.700000
v -34.213793 -23.750000 179.700000
v -29.468523 -12.293905 179.700000
v -27.850000 -0.000000 179.700000
v -29.468523 12.293905 179.700000
v -34.213793 23.750000 179.700000
v -41.762428 33.587572 179.700000
v -51.600000 41.136207 179.700000
v -63.056095 45.881477 179.700000
v -75.350000 47.500000 0.000000
v -63.056095 45.881477 0.000000
v -51.600000 41.136207 0.000000
v -41.762428 33.587572 0.000000
v -34.213793 23.750000 0.000000
v -29.468523 12.293905 0.000000
v -27.850000 -0.000000 0.000000
v -29.468523 -12.293905 0.000000
v -34.213793 -23.750000 0.000000
v -41.762428 -33.587572 0.000000
v -51.600000 -41.136207 0.000000
v -63.056095 -45.881477 0.000000
v -75.350000 -47.500000 0.000000
v -87.643905 -45.881477 0.000000
v -99.100000 -41.136207 0.000000
v -108.937572 -33.587572 0.000000
v -116.486207 -23.750000 0.000000
v -121.231477 -12.293905 0.000000
v -122.850000 -0.000000 0.000000
v -121.231477 12.293905 0.000000
v -116.486207 23.750000 0.000000
v -108.937572 33.587572 0.000000
v -99.100000 41.136207 0.000000
v -87.643905 45.881477 0.000000
v -658.051477 -178.750000 151.119483
v -668.377325 -172.788369 151.806717
v -678.606944 -166.882296 150.241364
v -688.254773 -161.312119 146.497727
v -696.862868 -156.342233 140.753501
v -704.022635 -152.208540 133.281343
v -709.394228 -149.107249 124.435925
v -712.722680 -147.185567 114.637107
v -713.850000 -146.534708 104.350000
v -712.722680 -147.185567 94.062893
v -709.394228 -149.107249 84.264075
v -704.022635 -152.208540 75.418657
v -696.862868 -156.342233 67.946499
v -688.254773 -161.312119 62.202273
v -678.606944 -166.882296 58.458636
v -668.377325 -172.788369 56.893283
v -658.051477 -178.750000 57.580517
v -646.579828 -178.750000 61.159836
v -636.373559 -178.750000 67.503521
v -628.085919 -178.750000 76.205549
v -622.247354 -178.750000 86.708950
v -619.231560 -178.750000 98.341459
v -619.231560 -178.750000 110.358541
v -622.247354 -178.750000 121.991050
v -628.085919 -178.750000 132.494451
v -636.373559 -178.750000 141.196479
v -646.579828 -178.750000 147.540164
v -658.051477 -178.750000 179.700000
v -912.700000 -31.728607 179.700000
v -912.700000 -31.728607 0.000000
v -658.051477 -178.750000 0.000000
v -658.051477 178.750000 179.700000
v -658.051477 178.750000 0.000000
v -912.700000 31.728607 0.000000
v -912.700000 31.728607 179.700000
vt 17.970000 -13.679018 0.000000
vt 12.193730 -13.989905 0.000000
vt 17.970000 -14.922565 0.000000
vt 12.285000 -14.922565 0.000000
vt 17.970000 14.922565 0.000000
vt 12.285000 14.922565 0.000000
vt 12.193730 13.989905 0.000000
vt 11.923428 -13.057244 0.000000
vt 17.970000 -12.435471 0.000000
vt 11.484481 -12.124584 0.000000
vt 17.970000 -11.191924 0.000000
vt 10.893757 -11.191924 0.000000
vt 10.173959 -10.259264 0.000000
vt 17.970000 -9.948377 0.000000
vt 9.352746 -9.326603 0.000000
vt 17.970000 -8.704830 0.000000
vt 8.461679 -8.393943 0.000000
vt 17.970000 -7.461283 0.000000
vt 7.535000 -7.461283 0.000000
vt 8.461679 -6.528622 0.000000
vt 17.970000 -6.217735 0.000000
vt 9.352746 -5.595962 0.000000
vt 17.970000 -4.974188 0.000000
vt 10.173959 -4.663302 0.000000
vt 17.970000 -3.730641 0.000000
vt 10.893757 -3.730641 0.000000
vt 11.484481 -2.797981 0.000000
vt 17.970000 -2.487094 0.000000
vt 11.923428 -1.865321 0.000000
vt 17.970000 -1.243547 0.000000
vt 12.193730 -0.932660 0.000000
vt 17.970000 0.000000 0.000000
vt 12.285000 -0.000000 0.000000
vt 12.193730 0.932660 0.000000
vt 17.970000 1.243547 0.000000
vt 11.923428 1.865321 0.000000
vt 17.970000 2.487094 0.000000
vt 11.484481 2.797981 0.000000
vt 17.970000 3.730641 0.000000
vt 10.893757 3.730641 0.000000
vt 10.173959 4.663302 0.000000
vt 17.970000 4.974188 0.000000
vt 9.352746 5.595962 0.000000
vt 17.970000 6.217735 0.000000
vt 8.461679 6.528622 0.000000
vt 17.970000 7.461283 0.000000
vt 7.535000 7.461283 0.000000
vt 8.461679 8.393943 0.000000
vt 17.970000 8.704830 0.000000
vt 9.352746 9.326603 0.000000
vt 17.970000 9.948377 0.000000
vt 10.173959 10.259264 0.000000
vt 17.970000 11.191924 0.000000
vt 10.893757 11.191924 0.000000
vt 11.484481 12.124584 0.000000
vt 17.970000 12.435471 0.000000
vt 11.923428 13.057244 0.000000
vt 17.970000 13.679018 0.000000
vt 6.608321 6.528622 0.000000
vt 7.535000 7.461283 0.000000
vt 0.000000 7.461283 0.000000
vt 6.608321 8.393943 0.000000
vt 0.000000 8.704830 0.000000
vt 5.717254 9.326603 0.000000
vt 0.000000 9.948377 0.000000
vt 4.896041 10.259264 0.000000
vt -0.000000 11.191924 0.000000
vt 4.176243 11.191924 0.000000
vt 3.585519 12.124584 0.000000
vt -0.000000 12.435471 0.000000
vt 3.146572 13.057244 0.000000
vt -0.000000 13.679018 0.000000
vt 2.876270 13.989905 0.000000
vt 0.000000 14.922565 0.000000
vt 2.785000 14.922565 0.000000
vt 0.000000 -14.922565 0.000000
vt 2.785000 -14.922565 0.000000
vt 2.876270 -13.989905 0.000000
vt 0.000000 -13.679018 0.000000
vt 3.146572 -13.057244 0.000000
vt 0.000000 -12.435471 0.000000
vt 3.585519 -12.124584 0.000000
vt 0.000000 -11.191924 0.000000
vt 4.176243 -11.191924 0.000000
vt 4.896041 -10.259264 0.000000
vt 0.000000 -9.948377 0.000000
vt 5.717254 -9.326603 0.000000
vt 0.000000 -8.704830 0.000000
vt 6.608321 -8.393943 0.000000
vt 0.000000 -7.461283 0.000000
vt 7.535000 -7.461283 0.000000
vt 6.608321 -6.528622 0.000000
vt 0.000000 -6.217735 0.000000
vt 5.717254 -5.595962 0.000000
vt 0.000000 -4.974188 0.000000
vt 4.896041 -4.663302 0.000000
vt 0.000000 -3.730641 0.000000
vt 4.176243 -3.730641 0.000000
vt 3.585519 -2.797981 0.000000
vt 0.000000 -2.487094 0.000000
vt 3.146572 -1.865321 0.000000
vt 0.000000 -1.243547 0.000000
vt 2.876270 -0.932660 0.000000
vt 0.000000 0.000000 0.000000
vt 2.785000 0.000000 0.000000
vt 2.876270 0.932660 0.000000
vt 0.000000 1.243547 0.000000
vt 3.146572 1.865321 0.000000
vt 0.000000 2.487094 0.000000
vt 3.585519 2.797981 0.000000
vt 0.000000 3.730641 0.000000
vt 4.176243 3.730641 0.000000
vt 4.896041 4.663302 0.000000
vt 0.000000 4.974188 0.000000
vt 5.717254 5.595962 0.000000
vt 0.000000 6.217735 0.000000
vt 35.153837 -14.719771 0.000000
vt 22.625000 -14.922565 0.000000
vt 35.750000 -15.756698 0.000000
vt 35.750000 14.088432 0.000000
vt 22.625000 14.922565 0.000000
vt 22.533730 13.989905 0.000000
vt 22.263428 13.057244 0.000000
vt 22.533730 -13.989905 0.000000
vt 34.563230 -13.682844 0.000000
vt 22.263428 -13.057244 0.000000
vt 34.006212 -12.645917 0.000000
vt 21.824481 -12.124584 0.000000
vt 33.509223 -11.608990 0.000000
vt 21.233757 -11.191924 0.000000
vt 33.095854 -10.572063 0.000000
vt 20.513959 -10.259264 0.000000
vt 32.785725 -9.535136 0.000000
vt 19.692746 -9.326603 0.000000
vt 32.593557 -8.498209 0.000000
vt 18.801679 -8.393943 0.000000
vt 32.528471 -7.461283 0.000000
vt 17.875000 -7.461283 0.000000
vt 18.801679 -6.528622 0.000000
vt 32.593557 -6.424356 0.000000
vt 19.692746 -5.595962 0.000000
vt 32.785725 -5.387429 0.000000
vt 20.513959 -4.663302 0.000000
vt 33.095854 -4.350502 0.000000
vt 21.233757 -3.730641 0.000000
vt 33.509223 -3.313575 0.000000
vt 21.824481 -2.797981 0.000000
vt 34.006212 -2.276648 0.000000
vt 22.263428 -1.865321 0.000000
vt 34.563230 -1.239721 0.000000
vt 22.533730 -0.932660 0.000000
vt 35.153837 -0.202794 0.000000
vt 22.625000 0.000000 0.000000
vt 35.750000 0.834133 0.000000
vt 22.533730 0.932660 0.000000
vt 22.263428 1.865321 0.000000
vt 35.750000 2.039069 0.000000
vt 21.824481 2.797981 0.000000
vt 35.750000 3.244005 0.000000
vt 21.233757 3.730641 0.000000
vt 35.750000 4.448942 0.000000
vt 20.513959 4.663302 0.000000
vt 35.750000 5.653878 0.000000
vt 19.692746 5.595962 0.000000
vt 18.801679 6.528622 0.000000
vt 35.750000 6.858814 0.000000
vt 17.875000 7.461283 0.000000
vt 35.750000 8.063751 0.000000
vt 18.801679 8.393943 0.000000
vt 35.750000 9.268687 0.000000
vt 19.692746 9.326603 0.000000
vt 20.513959 10.259264 0.000000
vt 35.750000 10.473623 0.000000
vt 21.233757 11.191924 0.000000
vt 35.750000 11.678560 0.000000
vt 21.824481 12.124584 0.000000
vt 35.750000 12.883496 0.000000
vt -0.000000 -0.000000 0.000000
vt -17.970000 -0.000000 0.000000
vt 0.000000 -1.754874 0.000000
vt -17.970000 -1.754874 0.000000
vt -17.970000 -3.509748 0.000000
vt 0.000000 -3.509748 0.000000
vt -17.970000 -5.264622 0.000000
vt 0.000000 -5.264622 0.000000
vt -17.970000 -7.019496 0.000000
vt 0.000000 -7.019496 0.000000
vt 0.000000 -8.774370 0.000000
vt -17.970000 -8.774370 0.000000
vt -17.970000 -10.529244 0.000000
vt 0.000000 -10.529244 0.000000
vt -17.970000 -12.284118 0.000000
vt 0.000000 -12.284118 0.000000
vt -17.970000 -14.038992 0.000000
vt 0.000000 -14.038992 0.000000
vt -17.970000 -15.793866 0.000000
vt 0.000000 -15.793866 0.000000
vt 0.000000 -17.548740 0.000000
vt -17.970000 -17.548740 0.000000
vt -17.970000 -19.303614 0.000000
vt 0.000000 -19.303614 0.000000
vt -17.970000 -21.058488 0.000000
vt -0.000000 -21.058488 0.000000
vt -17.970000 -22.813362 0.000000
vt 0.000000 -22.813362 0.000000
vt 0.000000 -24.568236 0.000000
vt -17.970000 -24.568236 0.000000
vt -17.970000 -26.323110 0.000000
vt 0.000000 -26.323110 0.000000
vt -17.970000 -28.077984 0.000000
vt 0.000000 -28.077984 0.000000
vt -17.970000 -29.832858 0.000000
vt -0.000000 -29.832858 0.000000
vt -17.970000 -31.587732 0.000000
vt -0.000000 -31.587732 0.000000
vt -0.000000 -33.342606 0.000000
vt -17.970000 -33.342606 0.000000
vt -17.970000 -35.097480 0.000000
vt -0.000000 -35.097480 0.000000
vt -17.970000 -36.852354 0.000000
vt -0.000000 -36.852354 0.000000
vt -17.970000 -38.607228 0.000000
vt -0.000000 -38.607228 0.000000
vt -0.000000 -40.362102 0.000000
vt -17.970000 -40.362102 0.000000
vt -17.970000 -42.116976 0.000000
vt -0.000000 -42.116976 0.000000
vt -17.970000 -43.871851 0.000000
vt -0.000000 -43.871851 0.000000
vt -17.970000 -45.626725 0.000000
vt -0.000000 -45.626725 0.000000
vt -17.970000 -47.381599 0.000000
vt -0.000000 -47.381599 0.000000
vt -0.000000 -49.136473 0.000000
vt -17.970000 -49.136473 0.000000
vt -17.970000 -50.891347 0.000000
vt -0.000000 -50.891347 0.000000
vt -17.970000 -52.646221 0.000000
vt -0.000000 -52.646221 0.000000
vt -17.970000 -54.401095 0.000000
vt -0.000000 -54.401095 0.000000
vt -0.000000 -56.155969 0.000000
vt -17.970000 -56.155969 0.000000
vt 17.970000 -13.679018 0.000000
vt 0.000000 -13.679018 0.000000
vt 17.970000 -14.922565 0.000000
vt 0.000000 -14.922565 0.000000
vt 17.970000 14.922565 0.000000
vt 0.000000 14.922565 0.000000
vt 17.970000 13.679018 0.000000
vt 0.000000 13.679018 0.000000
vt 17.970000 12.435471 0.000000
vt 0.000000 12.435471 0.000000
vt 17.970000 11.191924 0.000000
vt 0.000000 11.191924 0.000000
vt 17.970000 9.948377 0.000000
vt 0.000000 9.948377 0.000000
vt 17.970000 8.704830 0.000000
vt 0.000000 8.704830 0.000000
vt 17.970000 7.461283 0.000000
vt 0.000000 7.461283 0.000000
vt 17.970000 6.217735 0.000000
vt 0.000000 6.217735 0.000000
vt 17.970000 4.974188 0.000000
vt 0.000000 4.974188 0.000000
vt 17.970000 3.730641 0.000000
vt 0.000000 3.730641 0.000000
vt 17.970000 2.487094 0.000000
vt 0.000000 2.487094 0.000000
vt 17.970000 1.243547 0.000000
vt 0.000000 1.243547 0.000000
vt 17.970000 0.000000 0.000000
vt 0.000000 0.000000 0.000000
vt 17.970000 -1.243547 0.000000
vt 0.000000 -1.243547 0.000000
vt 17.970000 -2.487094 0.000000
vt 0.000000 -2.487094 0.000000
vt 17.970000 -3.730641 0.000000
vt 0.000000 -3.730641 0.000000
vt 17.970000 -4.974188 0.000000
vt 0.000000 -4.974188 0.000000
vt 17.970000 -6.217735 0.000000
vt 0.000000 -6.217735 0.000000
vt 17.970000 -7.461283 0.000000
vt 0.000000 -7.461283 0.000000
vt 17.970000 -8.704830 0.000000
vt 0.000000 -8.704830 0.000000
vt 17.970000 -9.948377 0.000000
vt 0.000000 -9.948377 0.000000
vt 17.970000 -11.191924 0.000000
vt 0.000000 -11.191924 0.000000
vt 17.970000 -12.435471 0.000000
vt 0.000000 -12.435471 0.000000
vt 16.948321 -8.393943 0.000000
vt 17.875000 -7.461283 0.000000
vt 3.221529 -7.461283 0.000000
vt 16.948321 -6.528622 0.000000
vt 3.156443 -6.424356 0.000000
vt 16.057254 -5.595962 0.000000
vt 2.964275 -5.387429 0.000000
vt 15.236041 -4.663302 0.000000
vt 2.654146 -4.350502 0.000000
vt 14.516243 -3.730641 0.000000
vt 2.240777 -3.313575 0.000000
vt 13.925519 -2.797981 0.000000
vt 1.743788 -2.276648 0.000000
vt 13.486572 -1.865321 0.000000
vt 1.186770 -1.239721 0.000000
vt 13.216270 -0.932660 0.000000
vt 0.596163 -0.202794 0.000000
vt 13.125000 0.000000 0.000000
vt -0.000000 0.834133 0.000000
vt 13.216270 0.932660 0.000000
vt 13.486572 1.865321 0.000000
vt 0.000000 2.039069 0.000000
vt 13.925519 2.797981 0.000000
vt -0.000000 3.244005 0.000000
vt 14.516243 3.730641 0.000000
vt 0.000000 4.448942 0.000000
vt 15.236041 4.663302 0.000000
vt 0.000000 5.653878 0.000000
vt 16.057254 5.595962 0.000000
vt 16.948321 6.528622 0.000000
vt 0.000000 6.858814 0.000000
vt 17.875000 7.461283 0.000000
vt 0.000000 8.063751 0.000000
vt 16.948321 8.393943 0.000000
vt 0.000000 9.268687 0.000000
vt 16.057254 9.326603 0.000000
vt 15.236041 10.259264 0.000000
vt 0.000000 10.473623 0.000000
vt 14.516243 11.191924 0.000000
vt -0.000000 11.678560 0.000000
vt 13.925519 12.124584 0.000000
vt 0.000000 12.883496 0.000000
vt 13.486572 13.057244 0.000000
vt -0.000000 14.088432 0.000000
vt 13.216270 13.989905 0.000000
vt 13.125000 14.922565 0.000000
vt 0.596163 15.125359 0.000000
vt 0.596163 -14.719771 0.000000
vt 13.125000 -14.922565 0.000000
vt 13.216270 -13.989905 0.000000
vt 1.186770 -13.682844 0.000000
vt 13.486572 -13.057244 0.000000
vt 1.743788 -12.645917 0.000000
vt 13.925519 -12.124584 0.000000
vt 2.240777 -11.608990 0.000000
vt 14.516243 -11.191924 0.000000
vt 2.654146 -10.572063 0.000000
vt 15.236041 -10.259264 0.000000
vt 2.964275 -9.535136 0.000000
vt 16.057254 -9.326603 0.000000
vt 3.156443 -8.498209 0.000000
vt 29.404279 5.123052 0.000000
vt 28.211952 5.054328 0.000000
vt 29.404279 -0.635000 0.000000
vt 27.030738 5.210864 0.000000
vt 25.916702 5.585227 0.000000
vt 24.922725 6.159650 0.000000
vt 0.000000 -0.635000 0.000000
vt 24.095987 6.906866 0.000000
vt 23.475728 7.791407 0.000000
vt 23.091392 8.771289 0.000000
vt 0.000000 17.335000 0.000000
vt 22.961220 9.800000 0.000000
vt 23.091392 10.828711 0.000000
vt 23.475728 11.808593 0.000000
vt 24.095987 12.693134 0.000000
vt 24.922725 13.440350 0.000000
vt 25.916702 14.014773 0.000000
vt 29.404279 17.335000 0.000000
vt 27.030738 14.389136 0.000000
vt 28.211952 14.545672 0.000000
vt 29.404279 14.476948 0.000000
vt 53.433173 5.123052 0.000000
vt 52.286008 5.480984 0.000000
vt 53.433173 -0.635000 0.000000
vt 51.265382 6.115352 0.000000
vt 0.000000 -0.635000 0.000000
vt 50.436617 6.985555 0.000000
vt 49.852761 8.035895 0.000000
vt 49.551182 9.199146 0.000000
vt 0.000000 17.335000 0.000000
vt 49.551182 10.400854 0.000000
vt 49.852761 11.564105 0.000000
vt 50.436617 12.614445 0.000000
vt 51.265382 13.484648 0.000000
vt 53.433173 17.335000 0.000000
vt 52.286008 14.119016 0.000000
vt 53.433173 14.476948 0.000000
vt 11.229390 -20.828148 0.000000
vt 10.000000 -20.990000 0.000000
vt 9.170148 -34.115000 0.000000
vt 8.770610 -20.828148 0.000000
vt 7.625000 -20.353621 0.000000
vt 6.641243 -19.598757 0.000000
vt -45.741243 -19.598757 0.000000
vt -46.725000 -20.353621 0.000000
vt -44.263026 -34.115000 0.000000
vt -47.870610 -20.828148 0.000000
vt -54.014903 -30.057562 0.000000
vt -55.132653 -28.879534 0.000000
vt -56.145723 -27.579780 0.000000
vt -57.044355 -26.170818 0.000000
vt -49.100000 -20.990000 0.000000
vt -57.819897 -24.666217 0.000000
vt -58.464878 -23.080466 0.000000
vt -50.329390 -20.828148 0.000000
vt -58.973088 -21.428839 0.000000
vt -51.475000 -20.353621 0.000000
vt -52.458757 -19.598757 0.000000
vt -44.986379 -18.615000 0.000000
vt 5.886379 -18.615000 0.000000
vt -44.511852 -17.469390 0.000000
vt 5.411852 -17.469390 0.000000
vt -44.350000 -16.240000 0.000000
vt 5.250000 -16.240000 0.000000
vt -44.511852 -15.010610 0.000000
vt 5.411852 -15.010610 0.000000
vt -44.986379 -13.865000 0.000000
vt 5.886379 -13.865000 0.000000
vt -45.741243 -12.881243 0.000000
vt 6.641243 -12.881243 0.000000
vt -46.725000 -12.126379 0.000000
vt 7.625000 -12.126379 0.000000
vt -44.263026 1.635000 0.000000
vt 9.170148 1.635000 0.000000
vt 8.770610 -11.651852 0.000000
vt 10.000000 -11.490000 0.000000
vt 11.229390 -11.651852 0.000000
vt 34.635000 -13.067139 0.000000
vt 12.375000 -12.126379 0.000000
vt 13.358757 -12.881243 0.000000
vt 14.113621 -13.865000 0.000000
vt 14.588148 -15.010610 0.000000
vt 14.750000 -16.240000 0.000000
vt 34.635000 -19.412861 0.000000
vt 14.588148 -17.469390 0.000000
vt 14.113621 -18.615000 0.000000
vt 13.358757 -19.598757 0.000000
vt 12.375000 -20.353621 0.000000
vt -47.870610 -11.651852 0.000000
vt -57.044355 -6.309182 0.000000
vt -49.100000 -11.490000 0.000000
vt -57.819897 -7.813783 0.000000
vt -58.464878 -9.399534 0.000000
vt -54.014903 -2.422438 0.000000
vt -55.132653 -3.600466 0.000000
vt -59.339632 -19.727240 0.000000
vt -53.213621 -18.615000 0.000000
vt -59.560980 -17.992056 0.000000
vt -53.688148 -17.469390 0.000000
vt -59.635000 -16.240000 0.000000
vt -53.850000 -16.240000 0.000000
vt -53.688148 -15.010610 0.000000
vt -59.560980 -14.487944 0.000000
vt -53.213621 -13.865000 0.000000
vt -59.339632 -12.752760 0.000000
vt -52.458757 -12.881243 0.000000
vt -58.973088 -11.051161 0.000000
vt -51.475000 -12.126379 0.000000
vt -50.329390 -11.651852 0.000000
vt -45.769743 1.548927 0.000000
vt -47.261949 1.291537 0.000000
vt -48.725274 0.865309 0.000000
vt -50.145626 0.274347 0.000000
vt -51.509324 -0.475657 0.000000
vt -52.803237 -1.377481 0.000000
vt -56.145723 -4.900220 0.000000
vt -52.803237 -31.102519 0.000000
vt -51.509324 -32.004343 0.000000
vt -50.145626 -32.754347 0.000000
vt -48.725274 -33.345309 0.000000
vt -47.261949 -33.771537 0.000000
vt -45.769743 -34.028927 0.000000
vt -9.770610 4.031852 0.000000
vt -11.000000 3.870000 0.000000
vt -10.170148 -9.255000 0.000000
vt -12.229390 4.031852 0.000000
vt -35.635000 5.447139 0.000000
vt -13.375000 4.506379 0.000000
vt -14.358757 5.261243 0.000000
vt -15.113621 6.245000 0.000000
vt -15.588148 7.390610 0.000000
vt -15.750000 8.620000 0.000000
vt -35.635000 11.792861 0.000000
vt -15.588148 9.849390 0.000000
vt -15.113621 10.995000 0.000000
vt -14.358757 11.978757 0.000000
vt -13.375000 12.733621 0.000000
vt -12.229390 13.208148 0.000000
vt -10.170148 26.495000 0.000000
vt -11.000000 13.370000 0.000000
vt -9.770610 13.208148 0.000000
vt -8.625000 12.733621 0.000000
vt 43.263026 26.495000 0.000000
vt 45.725000 12.733621 0.000000
vt 46.870610 13.208148 0.000000
vt 44.741243 11.978757 0.000000
vt -7.641243 11.978757 0.000000
vt 43.986379 10.995000 0.000000
vt -6.886379 10.995000 0.000000
vt 43.511852 9.849390 0.000000
vt -6.411852 9.849390 0.000000
vt 43.350000 8.620000 0.000000
vt -6.250000 8.620000 0.000000
vt 43.511852 7.390610 0.000000
vt -6.411852 7.390610 0.000000
vt 43.986379 6.245000 0.000000
vt -6.886379 6.245000 0.000000
vt 44.741243 5.261243 0.000000
vt -7.641243 5.261243 0.000000
vt 45.725000 4.506379 0.000000
vt -8.625000 4.506379 0.000000
vt 43.263026 -9.255000 0.000000
vt 49.329390 13.208148 0.000000
vt 57.464878 15.460466 0.000000
vt 48.100000 13.370000 0.000000
vt 56.819897 17.046217 0.000000
vt 56.044355 18.550818 0.000000
vt 57.973088 13.808839 0.000000
vt 50.475000 12.733621 0.000000
vt 51.458757 11.978757 0.000000
vt 58.339632 12.107240 0.000000
vt 52.213621 10.995000 0.000000
vt 58.560980 10.372056 0.000000
vt 52.688148 9.849390 0.000000
vt 58.635000 8.620000 0.000000
vt 52.850000 8.620000 0.000000
vt 52.688148 7.390610 0.000000
vt 58.560980 6.867944 0.000000
vt 52.213621 6.245000 0.000000
vt 58.339632 5.132760 0.000000
vt 51.458757 5.261243 0.000000
vt 57.973088 3.431161 0.000000
vt 50.475000 4.506379 0.000000
vt 49.329390 4.031852 0.000000
vt 57.464878 1.779534 0.000000
vt 48.100000 3.870000 0.000000
vt 56.819897 0.193783 0.000000
vt 56.044355 -1.310818 0.000000
vt 46.870610 4.031852 0.000000
vt 55.145723 -2.719780 0.000000
vt 54.132653 -4.019534 0.000000
vt 53.014903 -5.197562 0.000000
vt 51.803237 -6.242519 0.000000
vt 50.509324 -7.144343 0.000000
vt 49.145626 -7.894347 0.000000
vt 47.725274 -8.485309 0.000000
vt 46.261949 -8.911537 0.000000
vt 44.769743 -9.168927 0.000000
vt 55.145723 19.959780 0.000000
vt 54.132653 21.259534 0.000000
vt 53.014903 22.437562 0.000000
vt 51.803237 23.482519 0.000000
vt 50.509324 24.384343 0.000000
vt 49.145626 25.134347 0.000000
vt 47.725274 25.725309 0.000000
vt 46.261949 26.151537 0.000000
vt 44.769743 26.408927 0.000000
vt 0.000000 14.476948 0.000000
vt 1.147165 14.119016 0.000000
vt 0.000000 17.335000 0.000000
vt 2.167792 13.484648 0.000000
vt 53.433173 17.335000 0.000000
vt 2.996556 12.614445 0.000000
vt 3.580412 11.564105 0.000000
vt 3.881992 10.400854 0.000000
vt 3.881992 9.199146 0.000000
vt 53.433173 -0.635000 0.000000
vt 3.580412 8.035895 0.000000
vt 2.996556 6.985555 0.000000
vt 2.167792 6.115352 0.000000
vt 0.000000 -0.635000 0.000000
vt 1.147165 5.480984 0.000000
vt 0.000000 5.123052 0.000000
vt 0.000000 -0.635000 0.000000
vt 6.345721 -0.635000 0.000000
vt 0.000000 17.335000 0.000000
vt 6.345721 17.335000 0.000000
vt 0.000000 14.476948 0.000000
vt 1.192326 14.545672 0.000000
vt 0.000000 17.335000 0.000000
vt 2.373541 14.389136 0.000000
vt 3.487576 14.014773 0.000000
vt 29.404279 17.335000 0.000000
vt 4.481553 13.440350 0.000000
vt 5.308292 12.693134 0.000000
vt 5.928550 11.808593 0.000000
vt 6.312887 10.828711 0.000000
vt 6.443058 9.800000 0.000000
vt 6.312887 8.771289 0.000000
vt 29.404279 -0.635000 0.000000
vt 5.928550 7.791407 0.000000
vt 5.308292 6.906866 0.000000
vt 4.481553 6.159650 0.000000
vt -0.000000 -0.635000 0.000000
vt 3.487576 5.585227 0.000000
vt 2.373541 5.210864 0.000000
vt 1.192326 5.054328 0.000000
vt 0.000000 5.123052 0.000000
vn 0.025882 0.096593 -0.000000
vn 0.019509 0.098079 -0.000000
vn 0.000000 0.100000 -0.000000
vn 0.000000 0.100000 -0.000000
vn -0.019509 0.098079 0.000000
vn 0.038268 0.092388 -0.000000
vn 0.050000 0.086603 -0.000000
vn 0.055557 0.083147 -0.000000
vn 0.070711 0.070711 -0.000000
vn 0.070711 0.070711 -0.000000
vn 0.083147 0.055557 -0.000000
vn 0.086603 0.050000 -0.000000
vn 0.092388 0.038268 -0.000000
vn 0.096593 0.025882 -0.000000
vn 0.098079 0.019509 -0.000000
vn 0.100000 -0.000000 -0.000000
vn 0.100000 0.000000 -0.000000
vn 0.098079 -0.019509 -0.000000
vn 0.096593 -0.025882 -0.000000
vn 0.092388 -0.038268 -0.000000
vn 0.086603 -0.050000 -0.000000
vn 0.083147 -0.055557 -0.000000
vn 0.070711 -0.070711 -0.000000
vn 0.070711 -0.070711 -0.000000
vn 0.055557 -0.083147 -0.000000
vn 0.050000 -0.086603 -0.000000
vn 0.038268 -0.092388 -0.000000
vn 0.025882 -0.096593 -0.000000
vn 0.019509 -0.098079 -0.000000
vn -0.000000 -0.100000 -0.000000
vn 0.000000 -0.100000 -0.000000
vn -0.019509 -0.098079 0.000000
vn -0.025882 -0.096593 0.000000
vn -0.038268 -0.092388 0.000000
vn -0.050000 -0.086603 0.000000
vn -0.055557 -0.083147 0.000000
vn -0.070711 -0.070711 0.000000
vn -0.070711 -0.070711 0.000000
vn -0.083147 -0.055557 0.000000
vn -0.086603 -0.050000 0.000000
vn -0.092388 -0.038268 0.000000
vn -0.096593 -0.025882 0.000000
vn -0.098079 -0.019509 0.000000
vn -0.100000 0.000000 0.000000
vn -0.100000 -0.000000 0.000000
vn -0.098079 0.019509 0.000000
vn -0.096593 0.025882 0.000000
vn -0.092388 0.038268 0.000000
vn -0.086603 0.050000 0.000000
vn -0.083147 0.055557 0.000000
vn -0.070711 0.070711 0.000000
vn -0.070711 0.070711 0.000000
vn -0.055557 0.083147 0.000000
vn -0.050000 0.086603 0.000000
vn -0.038268 0.092388 0.000000
vn -0.025882 0.096593 0.000000
vn -0.098079 -0.019509 0.000000
vn -0.100000 0.000000 0.000000
vn -0.098079 0.019509 0.000000
vn -0.096593 0.025882 0.000000
vn -0.092388 0.038268 0.000000
vn -0.086603 0.050000 0.000000
vn -0.083147 0.055557 0.000000
vn -0.070711 0.070711 0.000000
vn -0.070711 0.070711 0.000000
vn -0.055557 0.083147 0.000000
vn -0.050000 0.086603 0.000000
vn -0.038268 0.092388 0.000000
vn -0.025882 0.096593 0.000000
vn -0.019509 0.098079 0.000000
vn 0.000000 0.100000 0.000000
vn 0.000000 0.100000 0.000000
vn 0.019509 0.098079 -0.000000
vn 0.025882 0.096593 -0.000000
vn 0.038268 0.092388 -0.000000
vn 0.050000 0.086603 -0.000000
vn 0.055557 0.083147 -0.000000
vn 0.070711 0.070711 -0.000000
vn 0.070711 0.070711 -0.000000
vn 0.083147 0.055557 -0.000000
vn 0.086603 0.050000 -0.000000
vn 0.092388 0.038268 -0.000000
vn 0.096593 0.025882 -0.000000
vn 0.098079 0.019509 -0.000000
vn 0.100000 -0.000000 -0.000000
vn 0.098079 -0.019509 -0.000000
vn 0.096593 -0.025882 -0.000000
vn 0.092388 -0.038268 -0.000000
vn 0.086603 -0.050000 -0.000000
vn 0.083147 -0.055557 -0.000000
vn 0.070711 -0.070711 -0.000000
vn 0.070711 -0.070711 -0.000000
vn 0.055557 -0.083147 -0.000000
vn 0.050000 -0.086603 -0.000000
vn 0.038268 -0.092388 -0.000000
vn 0.025882 -0.096593 -0.000000
vn 0.019509 -0.098079 -0.000000
vn -0.000000 -0.100000 -0.000000
vn -0.000000 -0.100000 -0.000000
vn -0.019509 -0.098079 0.000000
vn -0.025882 -0.096593 0.000000
vn -0.038268 -0.092388 0.000000
vn -0.050000 -0.086603 0.000000
vn -0.055557 -0.083147 0.000000
vn -0.070711 -0.070711 0.000000
vn -0.070711 -0.070711 0.000000
vn -0.083147 -0.055557 0.000000
vn -0.086603 -0.050000 0.000000
vn -0.092388 -0.038268 0.000000
vn -0.096593 -0.025882 0.000000
vn 0.004268 0.000000 0.099909
vn 0.000000 -0.000000 0.100000
vn -0.017471 -0.000000 0.098462
vn -0.019509 -0.000000 0.098079
vn -0.038268 -0.000000 0.092388
vn 0.019509 0.000000 0.098079
vn 0.025804 0.000000 0.096613
vn 0.038268 0.000000 0.092388
vn 0.046115 0.000000 0.088732
vn 0.055557 0.000000 0.083147
vn 0.064238 0.000000 0.076639
vn 0.070711 0.000000 0.070711
vn 0.079311 0.000000 0.060908
vn 0.083147 0.000000 0.055557
vn 0.090619 0.000000 0.042286
vn 0.092388 0.000000 0.038268
vn 0.097627 0.000000 0.021657
vn 0.098079 0.000000 0.019509
vn 0.100000 0.000000 -0.000000
vn 0.098079 0.000000 -0.019509
vn 0.097627 0.000000 -0.021657
vn 0.092388 0.000000 -0.038268
vn 0.090619 0.000000 -0.042286
vn 0.083147 0.000000 -0.055557
vn 0.079311 0.000000 -0.060908
vn 0.070711 0.000000 -0.070711
vn 0.064238 0.000000 -0.076639
vn 0.055557 0.000000 -0.083147
vn 0.046115 0.000000 -0.088732
vn 0.038268 0.000000 -0.092388
vn 0.025804 0.000000 -0.096613
vn 0.019509 0.000000 -0.098079
vn 0.004268 0.000000 -0.099909
vn -0.000000 -0.000000 -0.100000
vn -0.017471 -0.000000 -0.098462
vn -0.019509 -0.000000 -0.098079
vn -0.038268 -0.000000 -0.092388
vn -0.041621 -0.000000 -0.090927
vn -0.055557 -0.000000 -0.083147
vn -0.063108 -0.000000 -0.077572
vn -0.070711 -0.000000 -0.070711
vn -0.080556 -0.000000 -0.059251
vn -0.083147 -0.000000 -0.055557
vn -0.092848 -0.000000 -0.037139
vn -0.092388 -0.000000 -0.038268
vn -0.098079 -0.000000 -0.019509
vn -0.099197 -0.000000 -0.012650
vn -0.099197 -0.000000 0.012650
vn -0.098079 -0.000000 0.019509
vn -0.092848 -0.000000 0.037139
vn -0.092388 -0.000000 0.038268
vn -0.083147 -0.000000 0.055557
vn -0.080556 -0.000000 0.059251
vn -0.070711 -0.000000 0.070711
vn -0.063108 -0.000000 0.077572
vn -0.055557 -0.000000 0.083147
vn -0.041621 -0.000000 0.090927
vn 0.000000 -0.100000 -0.000000
vn 0.000000 -0.100000 -0.000000
vn 0.011378 -0.099351 -0.000000
vn 0.011378 -0.099351 -0.000000
vn 0.022535 -0.097428 -0.000000
vn 0.022535 -0.097428 -0.000000
vn 0.033265 -0.094305 -0.000000
vn 0.033265 -0.094305 -0.000000
vn 0.043395 -0.090094 -0.000000
vn 0.043395 -0.090094 -0.000000
vn 0.052789 -0.084931 -0.000000
vn 0.052789 -0.084931 -0.000000
vn 0.061355 -0.078966 -0.000000
vn 0.061355 -0.078966 -0.000000
vn 0.069039 -0.072344 -0.000000
vn 0.069039 -0.072344 -0.000000
vn 0.075820 -0.065203 -0.000000
vn 0.075820 -0.065203 -0.000000
vn 0.081702 -0.057662 -0.000000
vn 0.081702 -0.057662 -0.000000
vn 0.086705 -0.049822 -0.000000
vn 0.086705 -0.049822 -0.000000
vn 0.090861 -0.041765 -0.000000
vn 0.090861 -0.041765 -0.000000
vn 0.094202 -0.033556 -0.000000
vn 0.094202 -0.033556 -0.000000
vn 0.096762 -0.025242 -0.000000
vn 0.096762 -0.025242 -0.000000
vn 0.098568 -0.016861 -0.000000
vn 0.098568 -0.016861 -0.000000
vn 0.099643 -0.008440 -0.000000
vn 0.099643 -0.008440 -0.000000
vn 0.100000 -0.000000 -0.000000
vn 0.100000 -0.000000 -0.000000
vn 0.099643 0.008440 -0.000000
vn 0.099643 0.008440 -0.000000
vn 0.098568 0.016861 -0.000000
vn 0.098568 0.016861 -0.000000
vn 0.096762 0.025242 -0.000000
vn 0.096762 0.025242 -0.000000
vn 0.094202 0.033556 -0.000000
vn 0.094202 0.033556 -0.000000
vn 0.090861 0.041765 -0.000000
vn 0.090861 0.041765 -0.000000
vn 0.086705 0.049822 -0.000000
vn 0.086705 0.049822 -0.000000
vn 0.081702 0.057662 -0.000000
vn 0.081702 0.057662 -0.000000
vn 0.075820 0.065203 -0.000000
vn 0.075820 0.065203 -0.000000
vn 0.069039 0.072344 -0.000000
vn 0.069039 0.072344 -0.000000
vn 0.061355 0.078966 -0.000000
vn 0.061355 0.078966 -0.000000
vn 0.052789 0.084931 -0.000000
vn 0.052789 0.084931 -0.000000
vn 0.043395 0.090094 -0.000000
vn 0.043395 0.090094 -0.000000
vn 0.033265 0.094305 -0.000000
vn 0.033265 0.094305 -0.000000
vn 0.022535 0.097428 -0.000000
vn 0.022535 0.097428 -0.000000
vn 0.011378 0.099351 -0.000000
vn 0.011378 0.099351 -0.000000
vn -0.000000 0.100000 0.000000
vn -0.000000 0.100000 0.000000
vn 0.025882 -0.096593 -0.000000
vn 0.025882 -0.096593 -0.000000
vn 0.000000 -0.100000 -0.000000
vn 0.000000 -0.100000 -0.000000
vn -0.025882 -0.096593 0.000000
vn -0.025882 -0.096593 0.000000
vn -0.050000 -0.086603 0.000000
vn -0.050000 -0.086603 0.000000
vn -0.070711 -0.070711 0.000000
vn -0.070711 -0.070711 0.000000
vn -0.086603 -0.050000 0.000000
vn -0.086603 -0.050000 0.000000
vn -0.096593 -0.025882 0.000000
vn -0.096593 -0.025882 0.000000
vn -0.100000 0.000000 0.000000
vn -0.100000 0.000000 0.000000
vn -0.096593 0.025882 0.000000
vn -0.096593 0.025882 0.000000
vn -0.086603 0.050000 0.000000
vn -0.086603 0.050000 0.000000
vn -0.070711 0.070711 0.000000
vn -0.070711 0.070711 0.000000
vn -0.050000 0.086603 0.000000
vn -0.050000 0.086603 0.000000
vn -0.025882 0.096593 0.000000
vn -0.025882 0.096593 0.000000
vn 0.000000 0.100000 0.000000
vn 0.000000 0.100000 0.000000
vn 0.025882 0.096593 -0.000000
vn 0.025882 0.096593 -0.000000
vn 0.050000 0.086603 -0.000000
vn 0.050000 0.086603 -0.000000
vn 0.070711 0.070711 -0.000000
vn 0.070711 0.070711 -0.000000
vn 0.086603 0.050000 -0.000000
vn 0.086603 0.050000 -0.000000
vn 0.096593 0.025882 -0.000000
vn 0.096593 0.025882 -0.000000
vn 0.100000 -0.000000 -0.000000
vn 0.100000 -0.000000 -0.000000
vn 0.096593 -0.025882 -0.000000
vn 0.096593 -0.025882 -0.000000
vn 0.086603 -0.050000 -0.000000
vn 0.086603 -0.050000 -0.000000
vn 0.070711 -0.070711 -0.000000
vn 0.070711 -0.070711 -0.000000
vn 0.050000 -0.086603 -0.000000
vn 0.050000 -0.086603 -0.000000
vn 0.098079 0.000000 0.019509
vn 0.100000 0.000000 -0.000000
vn 0.098079 0.000000 -0.019509
vn 0.097627 0.000000 -0.021657
vn 0.092388 0.000000 -0.038268
vn 0.090619 0.000000 -0.042286
vn 0.083147 0.000000 -0.055557
vn 0.079311 0.000000 -0.060908
vn 0.070711 0.000000 -0.070711
vn 0.064238 0.000000 -0.076639
vn 0.055557 0.000000 -0.083147
vn 0.046115 0.000000 -0.088732
vn 0.038268 0.000000 -0.092388
vn 0.025804 0.000000 -0.096613
vn 0.019509 0.000000 -0.098079
vn 0.004268 0.000000 -0.099909
vn -0.000000 -0.000000 -0.100000
vn -0.017471 -0.000000 -0.098462
vn -0.019509 -0.000000 -0.098079
vn -0.038268 -0.000000 -0.092388
vn -0.041621 -0.000000 -0.090927
vn -0.055557 -0.000000 -0.083147
vn -0.063108 -0.000000 -0.077572
vn -0.070711 -0.000000 -0.070711
vn -0.080556 -0.000000 -0.059251
vn -0.083147 -0.000000 -0.055557
vn -0.092848 -0.000000 -0.037139
vn -0.092388 -0.000000 -0.038268
vn -0.098079 -0.000000 -0.019509
vn -0.099197 -0.000000 -0.012650
vn -0.099197 -0.000000 0.012650
vn -0.098079 -0.000000 0.019509
vn -0.092848 -0.000000 0.037139
vn -0.092388 -0.000000 0.038268
vn -0.083147 -0.000000 0.055557
vn -0.080556 -0.000000 0.059251
vn -0.070711 -0.000000 0.070711
vn -0.063108 -0.000000 0.077572
vn -0.055557 -0.000000 0.083147
vn -0.041621 -0.000000 0.090927
vn -0.038268 -0.000000 0.092388
vn -0.017471 -0.000000 0.098462
vn -0.019509 -0.000000 0.098079
vn 0.000000 -0.000000 0.100000
vn 0.004268 0.000000 0.099909
vn 0.019509 0.000000 0.098079
vn 0.025804 0.000000 0.096613
vn 0.038268 0.000000 0.092388
vn 0.046115 0.000000 0.088732
vn 0.055557 0.000000 0.083147
vn 0.064238 0.000000 0.076639
vn 0.070711 0.000000 0.070711
vn 0.079311 0.000000 0.060908
vn 0.083147 0.000000 0.055557
vn 0.090619 0.000000 0.042286
vn 0.092388 0.000000 0.038268
vn 0.097627 0.000000 0.021657
vn -0.050000 -0.086603 0.000000
vn -0.050000 -0.086603 0.000000
vn -0.050000 -0.086603 0.000000
vn -0.050000 -0.086603 0.000000
vn -0.050000 -0.086603 0.000000
vn -0.050000 -0.086603 0.000000
vn -0.050000 -0.086603 0.000000
vn -0.050000 -0.086603 0.000000
vn -0.050000 -0.086603 0.000000
vn -0.050000 -0.086603 0.000000
vn -0.050000 -0.086603 0.000000
vn -0.050000 -0.086603 0.000000
vn -0.050000 -0.086603 0.000000
vn -0.050000 -0.086603 0.000000
vn -0.050000 -0.086603 0.000000
vn -0.050000 -0.086603 0.000000
vn -0.050000 -0.086603 0.000000
vn -0.050000 -0.086603 0.000000
vn -0.050000 -0.086603 0.000000
vn -0.050000 -0.086603 0.000000
vn -0.050000 -0.086603 0.000000
vn 0.000000 0.100000 -0.000000
vn 0.000000 0.100000 -0.000000
vn 0.000000 0.100000 -0.000000
vn 0.000000 0.100000 -0.000000
vn 0.000000 0.100000 -0.000000
vn 0.000000 0.100000 -0.000000
vn 0.000000 0.100000 -0.000000
vn 0.000000 0.100000 -0.000000
vn 0.000000 0.100000 -0.000000
vn 0.000000 0.100000 -0.000000
vn 0.000000 0.100000 -0.000000
vn 0.000000 0.100000 -0.000000
vn 0.000000 0.100000 -0.000000
vn 0.000000 0.100000 -0.000000
vn -0.000000 0.000000 -0.100000
vn -0.000000 0.000000 -0.100000
vn -0.000000 0.000000 -0.100000
vn -0.000000 0.000000 -0.100000
vn -0.000000 0.000000 -0.100000
vn -0.000000 0.000000 -0.100000
vn -0.000000 0.000000 -0.100000
vn -0.000000 0.000000 -0.100000
vn -0.000000 0.000000 -0.100000
vn -0.000000 0.000000 -0.100000
vn -0.000000 0.000000 -0.100000
vn -0.000000 0.000000 -0.100000
vn -0.000000 0.000000 -0.100000
vn -0.000000 0.000000 -0.100000
vn -0.000000 0.000000 -0.100000
vn -0.000000 0.000000 -0.100000
vn -0.000000 0.000000 -0.100000
vn -0.000000 0.000000 -0.100000
vn -0.000000 0.000000 -0.100000
vn -0.000000 0.000000 -0.100000
vn -0.000000 0.000000 -0.100000
vn -0.000000 0.000000 -0.100000
vn -0.000000 0.000000 -0.100000
vn -0.000000 0.000000 -0.100000
vn -0.000000 0.000000 -0.100000
vn -0.000000 0.000000 -0.100000
vn -0.000000 0.000000 -0.100000
vn -0.000000 0.000000 -0.100000
vn -0.000000 0.000000 -0.100000
vn -0.000000 0.000000 -0.100000
vn -0.000000 0.000000 -0.100000
vn -0.000000 0.000000 -0.100000
vn -0.000000 0.000000 -0.100000
vn -0.000000 0.000000 -0.100000
vn -0.000000 0.000000 -0.100000
vn -0.000000 0.000000 -0.100000
vn -0.000000 0.000000 -0.100000
vn -0.000000 0.000000 -0.100000
vn -0.000000 0.000000 -0.100000
vn -0.000000 0.000000 -0.100000
vn -0.000000 0.000000 -0.100000
vn -0.000000 0.000000 -0.100000
vn -0.000000 0.000000 -0.100000
vn -0.000000 0.000000 -0.100000
vn -0.000000 0.000000 -0.100000
vn -0.000000 0.000000 -0.100000
vn -0.000000 0.000000 -0.100000
vn -0.000000 0.000000 -0.100000
vn -0.000000 0.000000 -0.100000
vn -0.000000 0.000000 -0.100000
vn -0.000000 0.000000 -0.100000
vn -0.000000 0.000000 -0.100000
vn -0.000000 0.000000 -0.100000
vn -0.000000 0.000000 -0.100000
vn -0.000000 0.000000 -0.100000
vn -0.000000 0.000000 -0.100000
vn -0.000000 0.000000 -0.100000
vn -0.000000 0.000000 -0.100000
vn -0.000000 0.000000 -0.100000
vn -0.000000 0.000000 -0.100000
vn -0.000000 0.000000 -0.100000
vn -0.000000 0.000000 -0.100000
vn -0.000000 0.000000 -0.100000
vn -0.000000 0.000000 -0.100000
vn -0.000000 0.000000 -0.100000
vn -0.000000 0.000000 -0.100000
vn -0.000000 0.000000 -0.100000
vn -0.000000 0.000000 -0.100000
vn -0.000000 0.000000 -0.100000
vn -0.000000 0.000000 -0.100000
vn -0.000000 0.000000 -0.100000
vn -0.000000 0.000000 -0.100000
vn -0.000000 0.000000 -0.100000
vn -0.000000 0.000000 -0.100000
vn -0.000000 0.000000 -0.100000
vn -0.000000 0.000000 -0.100000
vn -0.000000 0.000000 -0.100000
vn -0.000000 0.000000 -0.100000
vn -0.000000 0.000000 -0.100000
vn -0.000000 0.000000 -0.100000
vn -0.000000 0.000000 -0.100000
vn -0.000000 0.000000 -0.100000
vn -0.000000 0.000000 -0.100000
vn -0.000000 0.000000 -0.100000
vn -0.000000 0.000000 -0.100000
vn 0.000000 -0.000000 0.100000
vn 0.000000 -0.000000 0.100000
vn 0.000000 -0.000000 0.100000
vn 0.000000 -0.000000 0.100000
vn 0.000000 -0.000000 0.100000
vn 0.000000 -0.000000 0.100000
vn 0.000000 -0.000000 0.100000
vn 0.000000 -0.000000 0.100000
vn 0.000000 -0.000000 0.100000
vn 0.000000 -0.000000 0.100000
vn 0.000000 -0.000000 0.100000
vn 0.000000 -0.000000 0.100000
vn 0.000000 -0.000000 0.100000
vn 0.000000 -0.000000 0.100000
vn 0.000000 -0.000000 0.100000
vn 0.000000 -0.000000 0.100000
vn 0.000000 -0.000000 0.100000
vn 0.000000 -0.000000 0.100000
vn 0.000000 -0.000000 0.100000
vn 0.000000 -0.000000 0.100000
vn 0.000000 -0.000000 0.100000
vn 0.000000 -0.000000 0.100000
vn 0.000000 -0.000000 0.100000
vn 0.000000 -0.000000 0.100000
vn 0.000000 -0.000000 0.100000
vn 0.000000 -0.000000 0.100000
vn 0.000000 -0.000000 0.100000
vn 0.000000 -0.000000 0.100000
vn 0.000000 -0.000000 0.100000
vn 0.000000 -0.000000 0.100000
vn 0.000000 -0.000000 0.100000
vn 0.000000 -0.000000 0.100000
vn 0.000000 -0.000000 0.100000
vn 0.000000 -0.000000 0.100000
vn 0.000000 -0.000000 0.100000
vn 0.000000 -0.000000 0.100000
vn 0.000000 -0.000000 0.100000
vn 0.000000 -0.000000 0.100000
vn 0.000000 -0.000000 0.100000
vn 0.000000 -0.000000 0.100000
vn 0.000000 -0.000000 0.100000
vn 0.000000 -0.000000 0.100000
vn 0.000000 -0.000000 0.100000
vn 0.000000 -0.000000 0.100000
vn 0.000000 -0.000000 0.100000
vn 0.000000 -0.000000 0.100000
vn 0.000000 -0.000000 0.100000
vn 0.000000 -0.000000 0.100000
vn 0.000000 -0.000000 0.100000
vn 0.000000 -0.000000 0.100000
vn 0.000000 -0.000000 0.100000
vn 0.000000 -0.000000 0.100000
vn 0.000000 -0.000000 0.100000
vn 0.000000 -0.000000 0.100000
vn 0.000000 -0.000000 0.100000
vn 0.000000 -0.000000 0.100000
vn 0.000000 -0.000000 0.100000
vn 0.000000 -0.000000 0.100000
vn 0.000000 -0.000000 0.100000
vn 0.000000 -0.000000 0.100000
vn 0.000000 -0.000000 0.100000
vn 0.000000 -0.000000 0.100000
vn 0.000000 -0.000000 0.100000
vn 0.000000 -0.000000 0.100000
vn 0.000000 -0.000000 0.100000
vn 0.000000 -0.000000 0.100000
vn 0.000000 -0.000000 0.100000
vn 0.000000 -0.000000 0.100000
vn 0.000000 -0.000000 0.100000
vn 0.000000 -0.000000 0.100000
vn 0.000000 -0.000000 0.100000
vn 0.000000 -0.000000 0.100000
vn 0.000000 -0.000000 0.100000
vn 0.000000 -0.000000 0.100000
vn 0.000000 -0.000000 0.100000
vn 0.000000 -0.000000 0.100000
vn 0.000000 -0.000000 0.100000
vn 0.000000 -0.000000 0.100000
vn 0.000000 -0.000000 0.100000
vn 0.000000 -0.000000 0.100000
vn 0.000000 -0.000000 0.100000
vn 0.000000 -0.000000 0.100000
vn 0.000000 -0.000000 0.100000
vn 0.000000 -0.000000 0.100000
vn 0.000000 -0.000000 0.100000
vn 0.000000 -0.100000 -0.000000
vn 0.000000 -0.100000 -0.000000
vn 0.000000 -0.100000 -0.000000
vn 0.000000 -0.100000 -0.000000
vn 0.000000 -0.100000 -0.000000
vn 0.000000 -0.100000 -0.000000
vn 0.000000 -0.100000 -0.000000
vn 0.000000 -0.100000 -0.000000
vn 0.000000 -0.100000 -0.000000
vn 0.000000 -0.100000 -0.000000
vn 0.000000 -0.100000 -0.000000
vn 0.000000 -0.100000 -0.000000
vn 0.000000 -0.100000 -0.000000
vn 0.000000 -0.100000 -0.000000
vn -0.100000 0.000000 0.000000
vn -0.100000 0.000000 0.000000
vn -0.100000 0.000000 0.000000
vn -0.100000 0.000000 0.000000
vn -0.050000 0.086603 0.000000
vn -0.050000 0.086603 0.000000
vn -0.050000 0.086603 0.000000
vn -0.050000 0.086603 0.000000
vn -0.050000 0.086603 0.000000
vn -0.050000 0.086603 0.000000
vn -0.050000 0.086603 0.000000
vn -0.050000 0.086603 0.000000
vn -0.050000 0.086603 0.000000
vn -0.050000 0.086603 0.000000
vn -0.050000 0.086603 0.000000
vn -0.050000 0.086603 0.000000
vn -0.050000 0.086603 0.000000
vn -0.050000 0.086603 0.000000
vn -0.050000 0.086603 0.000000
vn -0.050000 0.086603 0.000000
vn -0.050000 0.086603 0.000000
vn -0.050000 0.086603 0.000000
vn -0.050000 0.086603 0.000000
vn -0.050000 0.086603 0.000000
vn -0.050000 0.086603 0.000000
usemtl Steel_-_Satin
f 2/1/1 32/2/2 1/3/3
f 1/3/3 32/2/2 33/4/4
f 1/5/3 33/6/4 34/7/5
f 32/2/2 2/1/1 31/8/6
f 31/8/6 2/1/1 3/9/7
f 31/8/6 3/9/7 30/10/8
f 30/10/8 3/9/7 4/11/9
f 30/10/8 4/11/9 29/12/10
f 29/12/10 4/11/9 28/13/11
f 28/13/11 4/11/9 5/14/12
f 28/13/11 5/14/12 27/15/13
f 27/15/13 5/14/12 6/16/14
f 27/15/13 6/16/14 26/17/15
f 26/17/15 6/16/14 7/18/16
f 26/17/15 7/18/16 25/19/17
f 25/19/17 7/18/16 56/20/18
f 56/20/18 7/18/16 8/21/19
f 56/20/18 8/21/19 55/22/20
f 55/22/20 8/21/19 9/23/21
f 55/22/20 9/23/21 54/24/22
f 54/24/22 9/23/21 10/25/23
f 54/24/22 10/25/23 53/26/24
f 53/26/24 10/25/23 52/27/25
f 52/27/25 10/25/23 11/28/26
f 52/27/25 11/28/26 51/29/27
f 51/29/27 11/28/26 12/30/28
f 51/29/27 12/30/28 50/31/29
f 50/31/29 12/30/28 13/32/30
f 50/31/29 13/32/30 49/33/31
f 49/33/31 13/32/30 48/34/32
f 48/34/32 13/32/30 14/35/33
f 48/34/32 14/35/33 47/36/34
f 47/36/34 14/35/33 15/37/35
f 47/36/34 15/37/35 46/38/36
f 46/38/36 15/37/35 16/39/37
f 46/38/36 16/39/37 45/40/38
f 45/40/38 16/39/37 44/41/39
f 44/41/39 16/39/37 17/42/40
f 44/41/39 17/42/40 43/43/41
f 43/43/41 17/42/40 18/44/42
f 43/43/41 18/44/42 42/45/43
f 42/45/43 18/44/42 19/46/44
f 42/45/43 19/46/44 41/47/45
f 41/47/45 19/46/44 40/48/46
f 40/48/46 19/46/44 20/49/47
f 40/48/46 20/49/47 39/50/48
f 39/50/48 20/49/47 21/51/49
f 39/50/48 21/51/49 38/52/50
f 38/52/50 21/51/49 22/53/51
f 38/52/50 22/53/51 37/54/52
f 37/54/52 22/53/51 36/55/53
f 36/55/53 22/53/51 23/56/54
f 36/55/53 23/56/54 35/57/55
f 35/57/55 23/56/54 24/58/56
f 35/57/55 24/58/56 34/7/5
f 34/7/5 24/58/56 1/5/3
f 86/59/57 41/60/45 93/61/58
f 93/61/58 41/60/45 57/62/59
f 93/61/58 57/62/59 92/63/60
f 92/63/60 57/62/59 58/64/61
f 92/63/60 58/64/61 91/65/62
f 91/65/62 58/64/61 59/66/63
f 91/65/62 59/66/63 90/67/64
f 90/67/64 59/66/63 60/68/65
f 90/67/64 60/68/65 61/69/66
f 90/67/64 61/69/66 89/70/67
f 89/70/67 61/69/66 62/71/68
f 89/70/67 62/71/68 88/72/69
f 88/72/69 62/71/68 63/73/70
f 88/72/69 63/73/70 87/74/71
f 87/74/71 63/73/70 64/75/72
f 87/76/71 64/77/72 65/78/73
f 87/76/71 65/78/73 110/79/74
f 110/79/74 65/78/73 66/80/75
f 110/79/74 66/80/75 109/81/76
f 109/81/76 66/80/75 67/82/77
f 109/81/76 67/82/77 108/83/78
f 108/83/78 67/82/77 68/84/79
f 108/83/78 68/84/79 69/85/80
f 108/83/78 69/85/80 107/86/81
f 107/86/81 69/85/80 70/87/82
f 107/86/81 70/87/82 106/88/83
f 106/88/83 70/87/82 71/89/84
f 106/88/83 71/89/84 105/90/85
f 105/90/85 71/89/84 25/91/17
f 105/90/85 25/91/17 72/92/86
f 105/90/85 72/92/86 104/93/87
f 104/93/87 72/92/86 73/94/88
f 104/93/87 73/94/88 103/95/89
f 103/95/89 73/94/88 74/96/90
f 103/95/89 74/96/90 102/97/91
f 102/97/91 74/96/90 75/98/92
f 102/97/91 75/98/92 76/99/93
f 102/97/91 76/99/93 101/100/94
f 101/100/94 76/99/93 77/101/95
f 101/100/94 77/101/95 100/102/96
f 100/102/96 77/101/95 78/103/97
f 100/102/96 78/103/97 99/104/98
f 99/104/98 78/103/97 79/105/99
f 99/104/98 79/105/99 80/106/100
f 99/104/98 80/106/100 98/107/101
f 98/107/101 80/106/100 81/108/102
f 98/107/101 81/108/102 97/109/103
f 97/109/103 81/108/102 82/110/104
f 97/109/103 82/110/104 96/111/105
f 96/111/105 82/110/104 83/112/106
f 96/111/105 83/112/106 84/113/107
f 96/111/105 84/113/107 95/114/108
f 95/114/108 84/113/107 85/115/109
f 95/114/108 85/115/109 94/116/110
f 94/116/110 85/115/109 86/59/57
f 94/116/110 86/59/57 93/61/58
f 112/117/111 49/118/112 111/119/113
f 111/120/113 49/121/112 48/122/114
f 111/120/113 48/122/114 47/123/115
f 49/118/112 112/117/111 50/124/116
f 50/124/116 112/117/111 113/125/117
f 50/124/116 113/125/117 51/126/118
f 51/126/118 113/125/117 114/127/119
f 51/126/118 114/127/119 52/128/120
f 52/128/120 114/127/119 115/129/121
f 52/128/120 115/129/121 53/130/122
f 53/130/122 115/129/121 116/131/123
f 53/130/122 116/131/123 54/132/124
f 54/132/124 116/131/123 117/133/125
f 54/132/124 117/133/125 55/134/126
f 55/134/126 117/133/125 118/135/127
f 55/134/126 118/135/127 56/136/128
f 56/136/128 118/135/127 119/137/129
f 56/136/128 119/137/129 25/138/17
f 25/138/17 119/137/129 72/139/130
f 72/139/130 119/137/129 120/140/131
f 72/139/130 120/140/131 73/141/132
f 73/141/132 120/140/131 121/142/133
f 73/141/132 121/142/133 74/143/134
f 74/143/134 121/142/133 122/144/135
f 74/143/134 122/144/135 75/145/136
f 75/145/136 122/144/135 123/146/137
f 75/145/136 123/146/137 76/147/138
f 76/147/138 123/146/137 124/148/139
f 76/147/138 124/148/139 77/149/140
f 77/149/140 124/148/139 125/150/141
f 77/149/140 125/150/141 78/151/142
f 78/151/142 125/150/141 126/152/143
f 78/151/142 126/152/143 79/153/144
f 79/153/144 126/152/143 127/154/145
f 79/153/144 127/154/145 80/155/146
f 80/155/146 127/154/145 81/156/147
f 81/156/147 127/154/145 128/157/148
f 81/156/147 128/157/148 82/158/149
f 82/158/149 128/157/148 129/159/150
f 82/158/149 129/159/150 83/160/151
f 83/160/151 129/159/150 130/161/152
f 83/160/151 130/161/152 84/162/153
f 84/162/153 130/161/152 131/163/154
f 84/162/153 131/163/154 85/164/155
f 85/164/155 131/163/154 86/165/156
f 86/165/156 131/163/154 132/166/157
f 86/165/156 132/166/157 41/167/45
f 41/167/45 132/166/157 133/168/158
f 41/167/45 133/168/158 42/169/159
f 42/169/159 133/168/158 134/170/160
f 42/169/159 134/170/160 43/171/161
f 43/171/161 134/170/160 44/172/162
f 44/172/162 134/170/160 135/173/163
f 44/172/162 135/173/163 45/174/164
f 45/174/164 135/173/163 136/175/165
f 45/174/164 136/175/165 46/176/166
f 46/176/166 136/175/165 137/177/167
f 46/176/166 137/177/167 47/123/115
f 47/123/115 137/177/167 111/120/113
f 203/178/168 138/179/169 202/180/170
f 202/180/170 138/179/169 139/181/171
f 202/180/170 139/181/171 140/182/172
f 202/180/170 140/182/172 201/183/173
f 201/183/173 140/182/172 141/184/174
f 201/183/173 141/184/174 200/185/175
f 200/185/175 141/184/174 142/186/176
f 200/185/175 142/186/176 199/187/177
f 199/187/177 142/186/176 198/188/178
f 198/188/178 142/186/176 143/189/179
f 198/188/178 143/189/179 144/190/180
f 198/188/178 144/190/180 197/191/181
f 197/191/181 144/190/180 145/192/182
f 197/191/181 145/192/182 196/193/183
f 196/193/183 145/192/182 146/194/184
f 196/193/183 146/194/184 195/195/185
f 195/195/185 146/194/184 147/196/186
f 195/195/185 147/196/186 194/197/187
f 194/197/187 147/196/186 193/198/188
f 193/198/188 147/196/186 148/199/189
f 193/198/188 148/199/189 149/200/190
f 193/198/188 149/200/190 192/201/191
f 192/201/191 149/200/190 150/202/192
f 192/201/191 150/202/192 191/203/193
f 191/203/193 150/202/192 151/204/194
f 191/203/193 151/204/194 190/205/195
f 190/205/195 151/204/194 189/206/196
f 189/206/196 151/204/194 152/207/197
f 189/206/196 152/207/197 153/208/198
f 189/206/196 153/208/198 188/209/199
f 188/209/199 153/208/198 154/210/200
f 188/209/199 154/210/200 187/211/201
f 187/211/201 154/210/200 155/212/202
f 187/211/201 155/212/202 186/213/203
f 186/213/203 155/212/202 156/214/204
f 186/213/203 156/214/204 185/215/205
f 185/215/205 156/214/204 184/216/206
f 184/216/206 156/214/204 157/217/207
f 184/216/206 157/217/207 158/218/208
f 184/216/206 158/218/208 183/219/209
f 183/219/209 158/218/208 159/220/210
f 183/219/209 159/220/210 182/221/211
f 182/221/211 159/220/210 160/222/212
f 182/221/211 160/222/212 181/223/213
f 181/223/213 160/222/212 180/224/214
f 180/224/214 160/222/212 161/225/215
f 180/224/214 161/225/215 162/226/216
f 180/224/214 162/226/216 179/227/217
f 179/227/217 162/226/216 163/228/218
f 179/227/217 163/228/218 178/229/219
f 178/229/219 163/228/218 164/230/220
f 178/229/219 164/230/220 177/231/221
f 177/231/221 164/230/220 165/232/222
f 177/231/221 165/232/222 176/233/223
f 176/233/223 165/232/222 175/234/224
f 175/234/224 165/232/222 166/235/225
f 175/234/224 166/235/225 167/236/226
f 175/234/224 167/236/226 174/237/227
f 174/237/227 167/236/226 168/238/228
f 174/237/227 168/238/228 173/239/229
f 173/239/229 168/238/228 169/240/230
f 173/239/229 169/240/230 172/241/231
f 172/241/231 169/240/230 171/242/232
f 171/242/232 169/240/230 170/243/233
f 205/244/234 251/245/235 204/246/236
f 204/246/236 251/245/235 228/247/237
f 204/248/236 228/249/237 227/250/238
f 227/250/238 228/249/237 229/251/239
f 227/250/238 229/251/239 226/252/240
f 226/252/240 229/251/239 230/253/241
f 226/252/240 230/253/241 225/254/242
f 225/254/242 230/253/241 231/255/243
f 225/254/242 231/255/243 224/256/244
f 224/256/244 231/255/243 232/257/245
f 224/256/244 232/257/245 223/258/246
f 223/258/246 232/257/245 233/259/247
f 223/258/246 233/259/247 222/260/248
f 222/260/248 233/259/247 234/261/249
f 222/260/248 234/261/249 221/262/250
f 221/262/250 234/261/249 235/263/251
f 221/262/250 235/263/251 220/264/252
f 220/264/252 235/263/251 236/265/253
f 220/264/252 236/265/253 219/266/254
f 219/266/254 236/265/253 237/267/255
f 219/266/254 237/267/255 218/268/256
f 218/268/256 237/267/255 238/269/257
f 218/268/256 238/269/257 217/270/258
f 217/270/258 238/269/257 239/271/259
f 217/270/258 239/271/259 216/272/260
f 216/272/260 239/271/259 240/273/261
f 216/272/260 240/273/261 215/274/262
f 215/274/262 240/273/261 241/275/263
f 215/274/262 241/275/263 214/276/264
f 214/276/264 241/275/263 242/277/265
f 214/276/264 242/277/265 213/278/266
f 213/278/266 242/277/265 243/279/267
f 213/278/266 243/279/267 212/280/268
f 212/280/268 243/279/267 244/281/269
f 212/280/268 244/281/269 211/282/270
f 211/282/270 244/281/269 245/283/271
f 211/282/270 245/283/271 210/284/272
f 210/284/272 245/283/271 246/285/273
f 210/284/272 246/285/273 209/286/274
f 209/286/274 246/285/273 247/287/275
f 209/286/274 247/287/275 208/288/276
f 208/288/276 247/287/275 248/289/277
f 208/288/276 248/289/277 207/290/278
f 207/290/278 248/289/277 249/291/279
f 207/290/278 249/291/279 206/292/280
f 206/292/280 249/291/279 250/293/281
f 206/292/280 250/293/281 205/244/234
f 205/244/234 250/293/281 251/245/235
f 26/294/282 25/295/17 260/296/283
f 260/296/283 25/295/17 71/297/284
f 260/296/283 71/297/284 259/298/285
f 259/298/285 71/297/284 70/299/286
f 259/298/285 70/299/286 258/300/287
f 258/300/287 70/299/286 69/301/288
f 258/300/287 69/301/288 257/302/289
f 257/302/289 69/301/288 68/303/290
f 257/302/289 68/303/290 256/304/291
f 256/304/291 68/303/290 67/305/292
f 256/304/291 67/305/292 255/306/293
f 255/306/293 67/305/292 66/307/294
f 255/306/293 66/307/294 254/308/295
f 254/308/295 66/307/294 65/309/296
f 254/308/295 65/309/296 253/310/297
f 253/310/297 65/309/296 64/311/298
f 253/310/297 64/311/298 252/312/299
f 252/312/299 64/311/298 63/313/300
f 252/312/299 63/313/300 62/314/301
f 252/312/299 62/314/301 278/315/302
f 278/315/302 62/314/301 61/316/303
f 278/315/302 61/316/303 277/317/304
f 277/317/304 61/316/303 60/318/305
f 277/317/304 60/318/305 276/319/306
f 276/319/306 60/318/305 59/320/307
f 276/319/306 59/320/307 275/321/308
f 275/321/308 59/320/307 58/322/309
f 275/321/308 58/322/309 57/323/310
f 275/321/308 57/323/310 274/324/311
f 274/324/311 57/323/310 41/325/45
f 274/324/311 41/325/45 273/326/312
f 273/326/312 41/325/45 40/327/313
f 273/326/312 40/327/313 272/328/314
f 272/328/314 40/327/313 39/329/315
f 272/328/314 39/329/315 38/330/316
f 272/328/314 38/330/316 271/331/317
f 271/331/317 38/330/316 37/332/318
f 271/331/317 37/332/318 270/333/319
f 270/333/319 37/332/318 36/334/320
f 270/333/319 36/334/320 269/335/321
f 269/335/321 36/334/320 35/336/322
f 269/335/321 35/336/322 268/337/323
f 268/337/323 35/336/322 34/338/324
f 268/337/323 34/338/324 33/339/325
f 268/337/323 33/339/325 267/340/326
f 267/341/326 33/342/325 32/343/327
f 267/341/326 32/343/327 266/344/328
f 266/344/328 32/343/327 31/345/329
f 266/344/328 31/345/329 265/346/330
f 265/346/330 31/345/329 30/347/331
f 265/346/330 30/347/331 264/348/332
f 264/348/332 30/347/331 29/349/333
f 264/348/332 29/349/333 263/350/334
f 263/350/334 29/349/333 28/351/335
f 263/350/334 28/351/335 262/352/336
f 262/352/336 28/351/335 27/353/337
f 262/352/336 27/353/337 261/354/338
f 261/354/338 27/353/337 26/294/282
f 261/354/338 26/294/282 260/296/283
f 268/355/339 267/356/340 282/357/341
f 282/357/341 267/356/340 266/358/342
f 282/357/341 266/358/342 265/359/343
f 265/359/343 264/360/344 282/357/341
f 282/357/341 264/360/344 281/361/345
f 281/361/345 264/360/344 263/362/346
f 281/361/345 263/362/346 262/363/347
f 262/363/347 261/364/348 281/361/345
f 281/361/345 261/364/348 280/365/349
f 280/365/349 261/364/348 260/366/350
f 280/365/349 260/366/350 259/367/351
f 259/367/351 258/368/352 280/365/349
f 280/365/349 258/368/352 257/369/353
f 280/365/349 257/369/353 256/370/354
f 256/370/354 255/371/355 280/365/349
f 280/365/349 255/371/355 279/372/356
f 279/372/356 255/371/355 254/373/357
f 279/372/356 254/373/357 253/374/358
f 253/374/358 252/375/359 279/372/356
f 111/376/360 137/377/361 284/378/362
f 284/378/362 137/377/361 136/379/363
f 284/378/362 136/379/363 170/380/233
f 170/380/233 136/379/363 135/381/364
f 170/380/233 135/381/364 134/382/365
f 134/382/365 133/383/366 170/380/233
f 170/380/233 133/383/366 171/384/232
f 171/384/232 133/383/366 132/385/367
f 171/384/232 132/385/367 131/386/368
f 131/386/368 130/387/369 171/384/232
f 171/384/232 130/387/369 129/388/370
f 171/384/232 129/388/370 283/389/371
f 283/389/371 129/388/370 128/390/372
f 283/389/371 128/390/372 127/391/373
f 2/392/374 1/393/375 282/394/376
f 282/394/376 1/393/375 24/395/377
f 282/394/376 24/395/377 23/396/378
f 22/397/379 243/398/380 23/396/378
f 23/396/378 243/398/380 242/399/381
f 23/396/378 242/399/381 138/400/382
f 138/400/382 242/399/381 241/401/383
f 138/400/382 241/401/383 145/402/384
f 145/402/384 241/401/383 146/403/385
f 146/403/385 241/401/383 147/404/386
f 147/404/386 241/401/383 148/405/387
f 148/405/387 241/401/383 240/406/388
f 148/405/387 240/406/388 149/407/389
f 149/407/389 240/406/388 150/408/390
f 150/408/390 240/406/388 239/409/391
f 150/408/390 239/409/391 151/410/392
f 151/410/392 239/409/391 238/411/393
f 151/410/392 238/411/393 237/412/394
f 243/398/380 22/397/379 244/413/395
f 244/413/395 22/397/379 21/414/396
f 244/413/395 21/414/396 245/415/397
f 245/415/397 21/414/396 20/416/398
f 245/415/397 20/416/398 246/417/399
f 246/417/399 20/416/398 19/418/400
f 246/417/399 19/418/400 247/419/401
f 247/419/401 19/418/400 18/420/402
f 247/419/401 18/420/402 248/421/403
f 248/421/403 18/420/402 17/422/404
f 248/421/403 17/422/404 249/423/405
f 249/423/405 17/422/404 16/424/406
f 249/423/405 16/424/406 250/425/407
f 250/425/407 16/424/406 15/426/408
f 250/425/407 15/426/408 170/427/409
f 170/427/409 15/426/408 284/428/410
f 284/428/410 15/426/408 14/429/411
f 284/428/410 14/429/411 13/430/412
f 13/430/412 12/431/413 284/428/410
f 284/428/410 12/431/413 285/432/414
f 285/432/414 12/431/413 11/433/415
f 285/432/414 11/433/415 10/434/416
f 10/434/416 9/435/417 285/432/414
f 285/432/414 9/435/417 8/436/418
f 285/432/414 8/436/418 7/437/419
f 285/432/414 7/437/419 281/438/420
f 281/438/420 7/437/419 6/439/421
f 281/438/420 6/439/421 5/440/422
f 5/440/422 4/441/423 281/438/420
f 281/438/420 4/441/423 3/442/424
f 281/438/420 3/442/424 2/392/374
f 281/438/420 2/392/374 282/394/376
f 251/443/425 160/444/426 228/445/427
f 228/445/427 160/444/426 159/446/428
f 228/445/427 159/446/428 158/447/429
f 250/425/407 170/427/409 251/443/425
f 251/443/425 170/427/409 163/448/430
f 251/443/425 163/448/430 162/449/431
f 151/410/392 237/412/394 152/450/432
f 152/450/432 237/412/394 236/451/433
f 152/450/432 236/451/433 153/452/434
f 153/452/434 236/451/433 235/453/435
f 153/452/434 235/453/435 154/454/436
f 154/454/436 235/453/435 234/455/437
f 154/454/436 234/455/437 233/456/438
f 154/454/436 233/456/438 155/457/439
f 155/457/439 233/456/438 232/458/440
f 155/457/439 232/458/440 156/459/441
f 156/459/441 232/458/440 231/460/442
f 156/459/441 231/460/442 157/461/443
f 157/461/443 231/460/442 230/462/444
f 157/461/443 230/462/444 229/463/445
f 157/461/443 229/463/445 158/447/429
f 158/447/429 229/463/445 228/445/427
f 138/400/382 282/394/376 23/396/378
f 169/464/446 168/465/447 170/427/409
f 170/427/409 168/465/447 167/466/448
f 170/427/409 167/466/448 166/467/449
f 166/467/449 165/468/450 170/427/409
f 170/427/409 165/468/450 164/469/451
f 170/427/409 164/469/451 163/448/430
f 162/449/431 161/470/452 251/443/425
f 251/443/425 161/470/452 160/444/426
f 145/402/384 144/471/453 138/400/382
f 138/400/382 144/471/453 143/472/454
f 138/400/382 143/472/454 142/473/455
f 142/473/455 141/474/456 138/400/382
f 138/400/382 141/474/456 140/475/457
f 138/400/382 140/475/457 139/476/458
f 88/477/459 87/478/460 279/479/461
f 279/479/461 87/478/460 110/480/462
f 279/479/461 110/480/462 280/481/463
f 280/481/463 110/480/462 109/482/464
f 280/481/463 109/482/464 108/483/465
f 108/483/465 107/484/466 280/481/463
f 280/481/463 107/484/466 106/485/467
f 280/481/463 106/485/467 105/486/468
f 280/481/463 105/486/468 286/487/469
f 286/487/469 105/486/468 104/488/470
f 286/487/469 104/488/470 103/489/471
f 103/489/471 102/490/472 286/487/469
f 286/487/469 102/490/472 101/491/473
f 286/487/469 101/491/473 100/492/474
f 286/487/469 100/492/474 283/493/475
f 283/493/475 100/492/474 99/494/476
f 283/493/475 99/494/476 98/495/477
f 98/495/477 97/496/478 283/493/475
f 283/493/475 97/496/478 171/497/479
f 171/497/479 97/496/478 206/498/480
f 171/497/479 206/498/480 205/499/481
f 206/498/480 97/496/478 207/500/482
f 207/500/482 97/496/478 96/501/483
f 207/500/482 96/501/483 208/502/484
f 208/502/484 96/501/483 95/503/485
f 208/502/484 95/503/485 209/504/486
f 209/504/486 95/503/485 94/505/487
f 209/504/486 94/505/487 210/506/488
f 210/506/488 94/505/487 93/507/489
f 210/506/488 93/507/489 211/508/490
f 211/508/490 93/507/489 92/509/491
f 211/508/490 92/509/491 212/510/492
f 212/510/492 92/509/491 91/511/493
f 212/510/492 91/511/493 213/512/494
f 213/512/494 91/511/493 90/513/495
f 213/512/494 90/513/495 214/514/496
f 214/514/496 90/513/495 89/515/497
f 214/514/496 89/515/497 203/516/498
f 203/516/498 89/515/497 279/479/461
f 279/479/461 89/515/497 88/477/459
f 227/517/499 183/518/500 204/519/501
f 204/519/501 183/518/500 182/520/502
f 204/519/501 182/520/502 181/521/503
f 183/518/500 227/517/499 184/522/504
f 184/522/504 227/517/499 226/523/505
f 184/522/504 226/523/505 225/524/506
f 184/522/504 225/524/506 185/525/507
f 185/525/507 225/524/506 224/526/508
f 185/525/507 224/526/508 186/527/509
f 186/527/509 224/526/508 223/528/510
f 186/527/509 223/528/510 187/529/511
f 187/529/511 223/528/510 222/530/512
f 187/529/511 222/530/512 221/531/513
f 187/529/511 221/531/513 188/532/514
f 188/532/514 221/531/513 220/533/515
f 188/532/514 220/533/515 189/534/516
f 189/534/516 220/533/515 219/535/517
f 189/534/516 219/535/517 190/536/518
f 190/536/518 219/535/517 218/537/519
f 190/536/518 218/537/519 217/538/520
f 190/536/518 217/538/520 191/539/521
f 191/539/521 217/538/520 216/540/522
f 191/539/521 216/540/522 192/541/523
f 192/541/523 216/540/522 193/542/524
f 193/542/524 216/540/522 215/543/525
f 193/542/524 215/543/525 194/544/526
f 194/544/526 215/543/525 195/545/527
f 195/545/527 215/543/525 196/546/528
f 196/546/528 215/543/525 203/516/498
f 196/546/528 203/516/498 197/547/529
f 197/547/529 203/516/498 198/548/530
f 198/548/530 203/516/498 199/549/531
f 199/549/531 203/516/498 200/550/532
f 200/550/532 203/516/498 201/551/533
f 201/551/533 203/516/498 202/552/534
f 215/543/525 214/514/496 203/516/498
f 204/519/501 181/521/503 205/499/481
f 205/499/481 181/521/503 180/553/535
f 205/499/481 180/553/535 179/554/536
f 179/554/536 178/555/537 205/499/481
f 205/499/481 178/555/537 171/497/479
f 178/555/537 177/556/538 171/497/479
f 171/497/479 177/556/538 176/557/539
f 171/497/479 176/557/539 175/558/540
f 175/558/540 174/559/541 171/497/479
f 171/497/479 174/559/541 173/560/542
f 171/497/479 173/560/542 172/561/543
f 252/562/544 278/563/545 279/564/546
f 279/564/546 278/563/545 277/565/547
f 279/564/546 277/565/547 203/566/168
f 203/566/168 277/565/547 276/567/548
f 203/566/168 276/567/548 275/568/549
f 275/568/549 274/569/550 203/566/168
f 203/566/168 274/569/550 273/570/551
f 203/566/168 273/570/551 138/571/169
f 138/571/169 273/570/551 272/572/552
f 138/571/169 272/572/552 271/573/553
f 271/573/553 270/574/554 138/571/169
f 138/571/169 270/574/554 282/575/555
f 282/575/555 270/574/554 269/576/556
f 282/575/555 269/576/556 268/577/557
f 285/578/558 281/579/559 286/580/560
f 286/580/560 281/579/559 280/581/561
f 127/582/562 126/583/563 283/584/564
f 283/584/564 126/583/563 125/585/565
f 283/584/564 125/585/565 124/586/566
f 283/584/564 124/586/566 286/587/567
f 286/587/567 124/586/566 123/588/568
f 286/587/567 123/588/568 122/589/569
f 122/589/569 121/590/570 286/587/567
f 286/587/567 121/590/570 120/591/571
f 286/587/567 120/591/571 119/592/572
f 119/592/572 118/593/573 286/587/567
f 286/587/567 118/593/573 285/594/574
f 285/594/574 118/593/573 117/595/575
f 285/594/574 117/595/575 116/596/576
f 116/596/576 115/597/577 285/594/574
f 285/594/574 115/597/577 284/598/578
f 284/598/578 115/597/577 114/599/579
f 284/598/578 114/599/579 113/600/580
f 113/600/580 112/601/581 284/598/578
f 284/598/578 112/601/581 111/602/582
# 286 vertices
# 602 texture params
# 582 normals
# 584 facets

# 1 groups
