# WaveFront *.obj file (generated by Autodesk ATF)

mtllib race2_body_m.mtl

g Body1

v -0.123720 -0.178750 0.000000
v -0.108653 -0.177889 0.000000
v -0.093731 -0.175315 0.000000
v -0.079097 -0.171053 0.000000
v -0.064894 -0.165143 0.000000
v -0.051257 -0.157643 0.000000
v -0.038318 -0.148625 0.000000
v -0.026201 -0.138176 0.000000
v -0.015023 -0.126395 0.000000
v -0.004893 -0.113398 0.000000
v 0.004094 -0.099308 0.000000
v 0.011849 -0.084262 -0.000000
v 0.018299 -0.068405 -0.000000
v 0.023381 -0.051888 -0.000000
v 0.027046 -0.034872 -0.000000
v 0.029260 -0.017521 -0.000000
v 0.030000 -0.000000 -0.000000
v 0.029260 0.017521 -0.000000
v 0.027046 0.034872 -0.000000
v 0.023381 0.051888 -0.000000
v 0.018299 0.068405 -0.000000
v 0.011849 0.084262 -0.000000
v 0.004094 0.099308 0.000000
v -0.004893 0.113398 0.000000
v -0.015023 0.126395 0.000000
v -0.026201 0.138176 0.000000
v -0.038318 0.148625 0.000000
v -0.051257 0.157643 0.000000
v -0.064894 0.165143 0.000000
v -0.079097 0.171053 0.000000
v -0.093731 0.175315 0.000000
v -0.108653 0.177889 0.000000
v -0.123720 0.178750 0.000000
v -0.123720 0.178750 0.179700
v -0.108653 0.177889 0.179700
v -0.093731 0.175315 0.179700
v -0.079097 0.171053 0.179700
v -0.064894 0.165143 0.179700
v -0.051257 0.157643 0.179700
v -0.038318 0.148625 0.179700
v -0.026201 0.138176 0.179700
v -0.015023 0.126395 0.179700
v -0.004893 0.113398 0.179700
v 0.004094 0.099308 0.179700
v 0.011849 0.084262 0.179700
v 0.018299 0.068405 0.179700
v 0.023381 0.051888 0.179700
v 0.027046 0.034872 0.179700
v 0.029260 0.017521 0.179700
v 0.030000 -0.000000 0.179700
v 0.029260 -0.017521 0.179700
v 0.027046 -0.034872 0.179700
v 0.023381 -0.051888 0.179700
v 0.018299 -0.068405 0.179700
v 0.011849 -0.084262 0.179700
v 0.004094 -0.099308 0.179700
v -0.004893 -0.113398 0.179700
v -0.015023 -0.126395 0.179700
v -0.026201 -0.138176 0.179700
v -0.038318 -0.148625 0.179700
v -0.051257 -0.157643 0.179700
v -0.064894 -0.165143 0.179700
v -0.079097 -0.171053 0.179700
v -0.093731 -0.175315 0.179700
v -0.108653 -0.177889 0.179700
v -0.123720 -0.178750 0.179700
v -0.075350 0.047500 0.179700
v -0.087644 0.045881 0.179700
v -0.099100 0.041136 0.179700
v -0.108938 0.033588 0.179700
v -0.116486 0.023750 0.179700
v -0.121231 0.012294 0.179700
v -0.122850 -0.000000 0.179700
v -0.121231 -0.012294 0.179700
v -0.116486 -0.023750 0.179700
v -0.108938 -0.033588 0.179700
v -0.099100 -0.041136 0.179700
v -0.087644 -0.045881 0.179700
v -0.075350 -0.047500 0.179700
v -0.063056 -0.045881 0.179700
v -0.051600 -0.041136 0.179700
v -0.041762 -0.033588 0.179700
v -0.034214 -0.023750 0.179700
v -0.029469 -0.012294 0.179700
v -0.027850 -0.000000 0.179700
v -0.029469 0.012294 0.179700
v -0.034214 0.023750 0.179700
v -0.041762 0.033588 0.179700
v -0.051600 0.041136 0.179700
v -0.063056 0.045881 0.179700
v -0.075350 0.047500 0.000000
v -0.063056 0.045881 0.000000
v -0.051600 0.041136 0.000000
v -0.041762 0.033588 0.000000
v -0.034214 0.023750 0.000000
v -0.029469 0.012294 0.000000
v -0.027850 -0.000000 0.000000
v -0.029469 -0.012294 0.000000
v -0.034214 -0.023750 0.000000
v -0.041762 -0.033588 0.000000
v -0.051600 -0.041136 0.000000
v -0.063056 -0.045881 0.000000
v -0.075350 -0.047500 0.000000
v -0.087644 -0.045881 0.000000
v -0.099100 -0.041136 0.000000
v -0.108938 -0.033588 0.000000
v -0.116486 -0.023750 0.000000
v -0.121231 -0.012294 0.000000
v -0.122850 -0.000000 0.000000
v -0.121231 0.012294 0.000000
v -0.116486 0.023750 0.000000
v -0.108938 0.033588 0.000000
v -0.099100 0.041136 0.000000
v -0.087644 0.045881 0.000000
v -0.658051 -0.178750 0.151119
v -0.668377 -0.172788 0.151807
v -0.678607 -0.166882 0.150241
v -0.688255 -0.161312 0.146498
v -0.696863 -0.156342 0.140754
v -0.704023 -0.152209 0.133281
v -0.709394 -0.149107 0.124436
v -0.712723 -0.147186 0.114637
v -0.713850 -0.146535 0.104350
v -0.712723 -0.147186 0.094063
v -0.709394 -0.149107 0.084264
v -0.704023 -0.152209 0.075419
v -0.696863 -0.156342 0.067946
v -0.688255 -0.161312 0.062202
v -0.678607 -0.166882 0.058459
v -0.668377 -0.172788 0.056893
v -0.658051 -0.178750 0.057581
v -0.646580 -0.178750 0.061160
v -0.636374 -0.178750 0.067504
v -0.628086 -0.178750 0.076206
v -0.622247 -0.178750 0.086709
v -0.619232 -0.178750 0.098341
v -0.619232 -0.178750 0.110359
v -0.622247 -0.178750 0.121991
v -0.628086 -0.178750 0.132494
v -0.636374 -0.178750 0.141196
v -0.646580 -0.178750 0.147540
v -0.658051 0.178750 0.057581
v -0.668377 0.172788 0.056893
v -0.678607 0.166882 0.058459
v -0.688255 0.161312 0.062202
v -0.696863 0.156342 0.067946
v -0.704023 0.152209 0.075419
v -0.709394 0.149107 0.084264
v -0.712723 0.147186 0.094063
v -0.713850 0.146535 0.104350
v -0.712723 0.147186 0.114637
v -0.709394 0.149107 0.124436
v -0.704023 0.152209 0.133281
v -0.696863 0.156342 0.140754
v -0.688255 0.161312 0.146498
v -0.678607 0.166882 0.150241
v -0.668377 0.172788 0.151807
v -0.658051 0.178750 0.151119
v -0.646580 0.178750 0.147540
v -0.636374 0.178750 0.141196
v -0.628086 0.178750 0.132494
v -0.622247 0.178750 0.121991
v -0.619232 0.178750 0.110359
v -0.619232 0.178750 0.098341
v -0.622247 0.178750 0.086709
v -0.628086 0.178750 0.076206
v -0.636374 0.178750 0.067504
v -0.646580 0.178750 0.061160
v -0.654056 -0.000000 0.150231
v -0.666350 -0.000000 0.151850
v -0.678607 0.000000 0.150241
v -0.690100 -0.000000 0.145486
v -0.699938 -0.000000 0.137938
v -0.707486 -0.000000 0.128100
v -0.712231 -0.000000 0.116644
v -0.713850 -0.000000 0.104350
v -0.712231 -0.000000 0.092056
v -0.707486 -0.000000 0.080600
v -0.699938 -0.000000 0.070762
v -0.690100 -0.000000 0.063214
v -0.678607 0.000000 0.058459
v -0.666350 -0.000000 0.056850
v -0.654056 -0.000000 0.058469
v -0.642600 0.000000 0.063214
v -0.632762 0.000000 0.070762
v -0.625214 0.000000 0.080600
v -0.620469 0.000000 0.092056
v -0.618850 0.000000 0.104350
v -0.620469 0.000000 0.116644
v -0.625214 0.000000 0.128100
v -0.632762 0.000000 0.137938
v -0.642600 0.000000 0.145486
v -0.658051 -0.178750 0.179700
v -0.912700 -0.031729 0.179700
v -0.912700 -0.031729 0.000000
v -0.658051 -0.178750 0.000000
v -0.658051 0.178750 0.179700
v -0.658051 0.178750 0.000000
v -0.912700 0.031729 0.000000
v -0.912700 0.031729 0.179700
vt -0.000000 -0.000000 0.000000
vt -17.970000 -0.000000 0.000000
vt 0.000000 -1.754874 0.000000
vt -17.970000 -1.754874 0.000000
vt -17.970000 -3.509748 0.000000
vt 0.000000 -3.509748 0.000000
vt -17.970000 -5.264622 0.000000
vt 0.000000 -5.264622 0.000000
vt -17.970000 -7.019496 0.000000
vt 0.000000 -7.019496 0.000000
vt 0.000000 -8.774370 0.000000
vt -17.970000 -8.774370 0.000000
vt -17.970000 -10.529244 0.000000
vt 0.000000 -10.529244 0.000000
vt -17.970000 -12.284118 0.000000
vt 0.000000 -12.284118 0.000000
vt -17.970000 -14.038992 0.000000
vt 0.000000 -14.038992 0.000000
vt -17.970000 -15.793866 0.000000
vt 0.000000 -15.793866 0.000000
vt 0.000000 -17.548740 0.000000
vt -17.970000 -17.548740 0.000000
vt -17.970000 -19.303614 0.000000
vt 0.000000 -19.303614 0.000000
vt -17.970000 -21.058488 0.000000
vt -0.000000 -21.058488 0.000000
vt -17.970000 -22.813362 0.000000
vt 0.000000 -22.813362 0.000000
vt 0.000000 -24.568236 0.000000
vt -17.970000 -24.568236 0.000000
vt -17.970000 -26.323110 0.000000
vt 0.000000 -26.323110 0.000000
vt -17.970000 -28.077984 0.000000
vt 0.000000 -28.077984 0.000000
vt -17.970000 -29.832858 0.000000
vt -0.000000 -29.832858 0.000000
vt -17.970000 -31.587732 0.000000
vt -0.000000 -31.587732 0.000000
vt -0.000000 -33.342606 0.000000
vt -17.970000 -33.342606 0.000000
vt -17.970000 -35.097480 0.000000
vt -0.000000 -35.097480 0.000000
vt -17.970000 -36.852354 0.000000
vt -0.000000 -36.852354 0.000000
vt -17.970000 -38.607228 0.000000
vt -0.000000 -38.607228 0.000000
vt -0.000000 -40.362102 0.000000
vt -17.970000 -40.362102 0.000000
vt -17.970000 -42.116976 0.000000
vt -0.000000 -42.116976 0.000000
vt -17.970000 -43.871851 0.000000
vt -0.000000 -43.871851 0.000000
vt -17.970000 -45.626725 0.000000
vt -0.000000 -45.626725 0.000000
vt -17.970000 -47.381599 0.000000
vt -0.000000 -47.381599 0.000000
vt -0.000000 -49.136473 0.000000
vt -17.970000 -49.136473 0.000000
vt -17.970000 -50.891347 0.000000
vt -0.000000 -50.891347 0.000000
vt -17.970000 -52.646221 0.000000
vt -0.000000 -52.646221 0.000000
vt -17.970000 -54.401095 0.000000
vt -0.000000 -54.401095 0.000000
vt -0.000000 -56.155969 0.000000
vt -17.970000 -56.155969 0.000000
vt 17.970000 -13.679018 0.000000
vt 0.000000 -13.679018 0.000000
vt 17.970000 -14.922565 0.000000
vt 0.000000 -14.922565 0.000000
vt 17.970000 14.922565 0.000000
vt 0.000000 14.922565 0.000000
vt 17.970000 13.679018 0.000000
vt 0.000000 13.679018 0.000000
vt 17.970000 12.435471 0.000000
vt 0.000000 12.435471 0.000000
vt 17.970000 11.191924 0.000000
vt 0.000000 11.191924 0.000000
vt 17.970000 9.948377 0.000000
vt 0.000000 9.948377 0.000000
vt 17.970000 8.704830 0.000000
vt 0.000000 8.704830 0.000000
vt 17.970000 7.461283 0.000000
vt 0.000000 7.461283 0.000000
vt 17.970000 6.217735 0.000000
vt 0.000000 6.217735 0.000000
vt 17.970000 4.974188 0.000000
vt 0.000000 4.974188 0.000000
vt 17.970000 3.730641 0.000000
vt 0.000000 3.730641 0.000000
vt 17.970000 2.487094 0.000000
vt 0.000000 2.487094 0.000000
vt 17.970000 1.243547 0.000000
vt 0.000000 1.243547 0.000000
vt 17.970000 0.000000 0.000000
vt 0.000000 0.000000 0.000000
vt 17.970000 -1.243547 0.000000
vt 0.000000 -1.243547 0.000000
vt 17.970000 -2.487094 0.000000
vt 0.000000 -2.487094 0.000000
vt 17.970000 -3.730641 0.000000
vt 0.000000 -3.730641 0.000000
vt 17.970000 -4.974188 0.000000
vt 0.000000 -4.974188 0.000000
vt 17.970000 -6.217735 0.000000
vt 0.000000 -6.217735 0.000000
vt 17.970000 -7.461283 0.000000
vt 0.000000 -7.461283 0.000000
vt 17.970000 -8.704830 0.000000
vt 0.000000 -8.704830 0.000000
vt 17.970000 -9.948377 0.000000
vt 0.000000 -9.948377 0.000000
vt 17.970000 -11.191924 0.000000
vt 0.000000 -11.191924 0.000000
vt 17.970000 -12.435471 0.000000
vt 0.000000 -12.435471 0.000000
vt 0.596163 -0.202794 0.000000
vt 17.875000 0.000000 0.000000
vt -0.000000 0.834133 0.000000
vt 17.875000 1.243547 0.000000
vt 0.000000 2.039069 0.000000
vt 17.875000 2.487094 0.000000
vt -0.000000 3.244005 0.000000
vt 17.875000 3.730641 0.000000
vt 0.000000 4.448942 0.000000
vt 17.875000 4.974188 0.000000
vt 0.000000 5.653878 0.000000
vt 17.875000 6.217735 0.000000
vt 0.000000 6.858814 0.000000
vt 17.875000 7.461283 0.000000
vt 0.000000 8.063751 0.000000
vt 17.875000 8.704830 0.000000
vt 0.000000 9.268687 0.000000
vt 17.875000 9.948377 0.000000
vt 0.000000 10.473623 0.000000
vt 17.875000 11.191924 0.000000
vt -0.000000 11.678560 0.000000
vt 17.875000 12.435471 0.000000
vt 0.000000 12.883496 0.000000
vt 17.875000 13.679018 0.000000
vt -0.000000 14.088432 0.000000
vt 17.875000 14.922565 0.000000
vt 0.596163 15.125359 0.000000
vt 0.596163 -14.719771 0.000000
vt 17.875000 -14.922565 0.000000
vt 17.875000 -13.682844 0.000000
vt 1.186770 -13.682844 0.000000
vt 1.743788 -12.645917 0.000000
vt 17.875000 -12.435471 0.000000
vt 2.240777 -11.608990 0.000000
vt 17.875000 -11.191924 0.000000
vt 2.654146 -10.572063 0.000000
vt 17.875000 -9.948377 0.000000
vt 2.964275 -9.535136 0.000000
vt 17.875000 -8.704830 0.000000
vt 3.156443 -8.498209 0.000000
vt 17.875000 -7.461283 0.000000
vt 3.221529 -7.461283 0.000000
vt 3.156443 -6.424356 0.000000
vt 17.875000 -6.217735 0.000000
vt 2.964275 -5.387429 0.000000
vt 17.875000 -4.974188 0.000000
vt 2.654146 -4.350502 0.000000
vt 17.875000 -3.730641 0.000000
vt 2.240777 -3.313575 0.000000
vt 17.875000 -2.487094 0.000000
vt 1.743788 -2.276648 0.000000
vt 17.875000 -1.239721 0.000000
vt 1.186770 -1.239721 0.000000
vt 35.153837 -14.719771 0.000000
vt 35.750000 -15.756698 0.000000
vt 35.750000 14.088432 0.000000
vt 35.750000 12.883496 0.000000
vt 35.750000 11.678560 0.000000
vt 35.750000 10.473623 0.000000
vt 35.750000 9.268687 0.000000
vt 35.750000 8.063751 0.000000
vt 35.750000 6.858814 0.000000
vt 35.750000 5.653878 0.000000
vt 35.750000 4.448942 0.000000
vt 35.750000 3.244005 0.000000
vt 35.750000 2.039069 0.000000
vt 35.750000 0.834133 0.000000
vt 35.153837 -0.202794 0.000000
vt 34.563230 -1.239721 0.000000
vt 34.006212 -2.276648 0.000000
vt 33.509223 -3.313575 0.000000
vt 33.095854 -4.350502 0.000000
vt 32.785725 -5.387429 0.000000
vt 32.593557 -6.424356 0.000000
vt 32.528471 -7.461283 0.000000
vt 32.593557 -8.498209 0.000000
vt 32.785725 -9.535136 0.000000
vt 33.095854 -10.572063 0.000000
vt 33.509223 -11.608990 0.000000
vt 34.006212 -12.645917 0.000000
vt 34.563230 -13.682844 0.000000
vt 29.404279 5.123052 0.000000
vt 28.211952 5.054328 0.000000
vt 29.404279 -0.635000 0.000000
vt 27.030738 5.210864 0.000000
vt 25.916702 5.585227 0.000000
vt 24.922725 6.159650 0.000000
vt 0.000000 -0.635000 0.000000
vt 24.095987 6.906866 0.000000
vt 23.475728 7.791407 0.000000
vt 23.091392 8.771289 0.000000
vt 0.000000 17.335000 0.000000
vt 22.961220 9.800000 0.000000
vt 23.091392 10.828711 0.000000
vt 23.475728 11.808593 0.000000
vt 24.095987 12.693134 0.000000
vt 24.922725 13.440350 0.000000
vt 25.916702 14.014773 0.000000
vt 29.404279 17.335000 0.000000
vt 27.030738 14.389136 0.000000
vt 28.211952 14.545672 0.000000
vt 29.404279 14.476948 0.000000
vt 53.433173 5.123052 0.000000
vt 52.286008 5.480984 0.000000
vt 53.433173 -0.635000 0.000000
vt 51.265382 6.115352 0.000000
vt 0.000000 -0.635000 0.000000
vt 50.436617 6.985555 0.000000
vt 49.852761 8.035895 0.000000
vt 49.551182 9.199146 0.000000
vt 0.000000 17.335000 0.000000
vt 49.551182 10.400854 0.000000
vt 49.852761 11.564105 0.000000
vt 50.436617 12.614445 0.000000
vt 51.265382 13.484648 0.000000
vt 53.433173 17.335000 0.000000
vt 52.286008 14.119016 0.000000
vt 53.433173 14.476948 0.000000
vt -47.870610 -11.651852 0.000000
vt -57.044355 -6.309182 0.000000
vt -49.100000 -11.490000 0.000000
vt -57.819897 -7.813783 0.000000
vt -58.464878 -9.399534 0.000000
vt -46.725000 -12.126379 0.000000
vt -44.263026 1.635000 0.000000
vt -54.014903 -2.422438 0.000000
vt -55.132653 -3.600466 0.000000
vt 9.170148 1.635000 0.000000
vt -45.741243 -12.881243 0.000000
vt -44.986379 -13.865000 0.000000
vt -44.511852 -15.010610 0.000000
vt 34.635000 -13.067139 0.000000
vt -44.350000 -16.240000 0.000000
vt 34.635000 -19.412861 0.000000
vt -44.511852 -17.469390 0.000000
vt 9.170148 -34.115000 0.000000
vt -44.986379 -18.615000 0.000000
vt -45.741243 -19.598757 0.000000
vt -46.725000 -20.353621 0.000000
vt -44.263026 -34.115000 0.000000
vt -47.870610 -20.828148 0.000000
vt -54.014903 -30.057562 0.000000
vt -55.132653 -28.879534 0.000000
vt -56.145723 -27.579780 0.000000
vt -57.044355 -26.170818 0.000000
vt -49.100000 -20.990000 0.000000
vt -57.819897 -24.666217 0.000000
vt -58.464878 -23.080466 0.000000
vt -50.329390 -20.828148 0.000000
vt -58.973088 -21.428839 0.000000
vt -51.475000 -20.353621 0.000000
vt -52.458757 -19.598757 0.000000
vt -59.339632 -19.727240 0.000000
vt -53.213621 -18.615000 0.000000
vt -59.560980 -17.992056 0.000000
vt -53.688148 -17.469390 0.000000
vt -59.635000 -16.240000 0.000000
vt -53.850000 -16.240000 0.000000
vt -53.688148 -15.010610 0.000000
vt -59.560980 -14.487944 0.000000
vt -53.213621 -13.865000 0.000000
vt -59.339632 -12.752760 0.000000
vt -52.458757 -12.881243 0.000000
vt -58.973088 -11.051161 0.000000
vt -51.475000 -12.126379 0.000000
vt -50.329390 -11.651852 0.000000
vt -45.769743 1.548927 0.000000
vt -47.261949 1.291537 0.000000
vt -48.725274 0.865309 0.000000
vt -50.145626 0.274347 0.000000
vt -51.509324 -0.475657 0.000000
vt -52.803237 -1.377481 0.000000
vt -56.145723 -4.900220 0.000000
vt -52.803237 -31.102519 0.000000
vt -51.509324 -32.004343 0.000000
vt -50.145626 -32.754347 0.000000
vt -48.725274 -33.345309 0.000000
vt -47.261949 -33.771537 0.000000
vt -45.769743 -34.028927 0.000000
vt 49.329390 13.208148 0.000000
vt 57.464878 15.460466 0.000000
vt 48.100000 13.370000 0.000000
vt 56.819897 17.046217 0.000000
vt 56.044355 18.550818 0.000000
vt 57.973088 13.808839 0.000000
vt 50.475000 12.733621 0.000000
vt 51.458757 11.978757 0.000000
vt 58.339632 12.107240 0.000000
vt 52.213621 10.995000 0.000000
vt 58.560980 10.372056 0.000000
vt 52.688148 9.849390 0.000000
vt 58.635000 8.620000 0.000000
vt 52.850000 8.620000 0.000000
vt 52.688148 7.390610 0.000000
vt 58.560980 6.867944 0.000000
vt 52.213621 6.245000 0.000000
vt 58.339632 5.132760 0.000000
vt 51.458757 5.261243 0.000000
vt 57.973088 3.431161 0.000000
vt 50.475000 4.506379 0.000000
vt 49.329390 4.031852 0.000000
vt 57.464878 1.779534 0.000000
vt 48.100000 3.870000 0.000000
vt 56.819897 0.193783 0.000000
vt 56.044355 -1.310818 0.000000
vt 46.870610 4.031852 0.000000
vt 55.145723 -2.719780 0.000000
vt 54.132653 -4.019534 0.000000
vt 53.014903 -5.197562 0.000000
vt 43.263026 -9.255000 0.000000
vt 51.803237 -6.242519 0.000000
vt 50.509324 -7.144343 0.000000
vt 49.145626 -7.894347 0.000000
vt 47.725274 -8.485309 0.000000
vt 46.261949 -8.911537 0.000000
vt 44.769743 -9.168927 0.000000
vt 45.725000 4.506379 0.000000
vt -10.170148 -9.255000 0.000000
vt 44.741243 5.261243 0.000000
vt 43.986379 6.245000 0.000000
vt 43.511852 7.390610 0.000000
vt -35.635000 5.447139 0.000000
vt 43.350000 8.620000 0.000000
vt -35.635000 11.792861 0.000000
vt 43.511852 9.849390 0.000000
vt -10.170148 26.495000 0.000000
vt 43.986379 10.995000 0.000000
vt 44.741243 11.978757 0.000000
vt 45.725000 12.733621 0.000000
vt 43.263026 26.495000 0.000000
vt 46.870610 13.208148 0.000000
vt 53.014903 22.437562 0.000000
vt 54.132653 21.259534 0.000000
vt 55.145723 19.959780 0.000000
vt 51.803237 23.482519 0.000000
vt 50.509324 24.384343 0.000000
vt 49.145626 25.134347 0.000000
vt 47.725274 25.725309 0.000000
vt 46.261949 26.151537 0.000000
vt 44.769743 26.408927 0.000000
vt 0.000000 14.476948 0.000000
vt 1.147165 14.119016 0.000000
vt 0.000000 17.335000 0.000000
vt 2.167792 13.484648 0.000000
vt 53.433173 17.335000 0.000000
vt 2.996556 12.614445 0.000000
vt 3.580412 11.564105 0.000000
vt 3.881992 10.400854 0.000000
vt 3.881992 9.199146 0.000000
vt 53.433173 -0.635000 0.000000
vt 3.580412 8.035895 0.000000
vt 2.996556 6.985555 0.000000
vt 2.167792 6.115352 0.000000
vt 0.000000 -0.635000 0.000000
vt 1.147165 5.480984 0.000000
vt 0.000000 5.123052 0.000000
vt 0.000000 -0.635000 0.000000
vt 6.345721 -0.635000 0.000000
vt 0.000000 17.335000 0.000000
vt 6.345721 17.335000 0.000000
vt 0.000000 14.476948 0.000000
vt 1.192326 14.545672 0.000000
vt 0.000000 17.335000 0.000000
vt 2.373541 14.389136 0.000000
vt 3.487576 14.014773 0.000000
vt 29.404279 17.335000 0.000000
vt 4.481553 13.440350 0.000000
vt 5.308292 12.693134 0.000000
vt 5.928550 11.808593 0.000000
vt 6.312887 10.828711 0.000000
vt 6.443058 9.800000 0.000000
vt 6.312887 8.771289 0.000000
vt 29.404279 -0.635000 0.000000
vt 5.928550 7.791407 0.000000
vt 5.308292 6.906866 0.000000
vt 4.481553 6.159650 0.000000
vt -0.000000 -0.635000 0.000000
vt 3.487576 5.585227 0.000000
vt 2.373541 5.210864 0.000000
vt 1.192326 5.054328 0.000000
vt 0.000000 5.123052 0.000000
vn 0.000000 -100.000000 -0.000000
vn 0.000000 -100.000000 -0.000000
vn 11.378498 -99.350540 -0.000000
vn 11.378498 -99.350540 -0.000000
vn 22.535171 -97.427748 -0.000000
vn 22.535171 -97.427748 -0.000000
vn 33.265205 -94.304964 -0.000000
vn 33.265205 -94.304964 -0.000000
vn 43.394629 -90.093874 -0.000000
vn 43.394629 -90.093874 -0.000000
vn 52.788769 -84.931419 -0.000000
vn 52.788769 -84.931419 -0.000000
vn 61.354726 -78.965800 -0.000000
vn 61.354726 -78.965800 -0.000000
vn 69.038672 -72.344051 -0.000000
vn 69.038672 -72.344051 -0.000000
vn 75.819622 -65.202645 -0.000000
vn 75.819622 -65.202645 -0.000000
vn 81.701510 -57.661627 -0.000000
vn 81.701510 -57.661627 -0.000000
vn 86.705090 -49.821957 -0.000000
vn 86.705090 -49.821957 -0.000000
vn 90.860637 -41.765351 -0.000000
vn 90.860637 -41.765351 -0.000000
vn 94.201949 -33.555816 -0.000000
vn 94.201949 -33.555816 -0.000000
vn 96.761735 -25.242159 -0.000000
vn 96.761735 -25.242159 -0.000000
vn 98.568289 -16.860972 -0.000000
vn 98.568289 -16.860972 -0.000000
vn 99.643216 -8.439752 -0.000000
vn 99.643216 -8.439752 -0.000000
vn 100.000000 -0.000000 -0.000000
vn 100.000000 -0.000000 -0.000000
vn 99.643216 8.439752 -0.000000
vn 99.643216 8.439752 -0.000000
vn 98.568289 16.860972 -0.000000
vn 98.568289 16.860972 -0.000000
vn 96.761735 25.242159 -0.000000
vn 96.761735 25.242159 -0.000000
vn 94.201949 33.555816 -0.000000
vn 94.201949 33.555816 -0.000000
vn 90.860637 41.765351 -0.000000
vn 90.860637 41.765351 -0.000000
vn 86.705090 49.821957 -0.000000
vn 86.705090 49.821957 -0.000000
vn 81.701510 57.661627 -0.000000
vn 81.701510 57.661627 -0.000000
vn 75.819622 65.202645 -0.000000
vn 75.819622 65.202645 -0.000000
vn 69.038672 72.344051 -0.000000
vn 69.038672 72.344051 -0.000000
vn 61.354726 78.965800 -0.000000
vn 61.354726 78.965800 -0.000000
vn 52.788769 84.931419 -0.000000
vn 52.788769 84.931419 -0.000000
vn 43.394629 90.093874 -0.000000
vn 43.394629 90.093874 -0.000000
vn 33.265205 94.304964 -0.000000
vn 33.265205 94.304964 -0.000000
vn 22.535171 97.427748 -0.000000
vn 22.535171 97.427748 -0.000000
vn 11.378498 99.350540 -0.000000
vn 11.378498 99.350540 -0.000000
vn -0.000000 100.000000 0.000000
vn -0.000000 100.000000 0.000000
vn 25.881905 -96.592583 -0.000000
vn 25.881905 -96.592583 -0.000000
vn -0.000000 -100.000000 -0.000000
vn -0.000000 -100.000000 -0.000000
vn -25.881905 -96.592583 0.000000
vn -25.881905 -96.592583 0.000000
vn -50.000000 -86.602540 0.000000
vn -50.000000 -86.602540 0.000000
vn -70.710678 -70.710678 0.000000
vn -70.710678 -70.710678 0.000000
vn -86.602540 -50.000000 0.000000
vn -86.602540 -50.000000 0.000000
vn -96.592583 -25.881905 0.000000
vn -96.592583 -25.881905 0.000000
vn -100.000000 0.000000 0.000000
vn -100.000000 0.000000 0.000000
vn -96.592583 25.881905 0.000000
vn -96.592583 25.881905 0.000000
vn -86.602540 50.000000 0.000000
vn -86.602540 50.000000 0.000000
vn -70.710678 70.710678 0.000000
vn -70.710678 70.710678 0.000000
vn -50.000000 86.602540 0.000000
vn -50.000000 86.602540 0.000000
vn -25.881905 96.592583 0.000000
vn -25.881905 96.592583 0.000000
vn 0.000000 100.000000 0.000000
vn 0.000000 100.000000 0.000000
vn 25.881905 96.592583 -0.000000
vn 25.881905 96.592583 -0.000000
vn 50.000000 86.602540 -0.000000
vn 50.000000 86.602540 -0.000000
vn 70.710678 70.710678 -0.000000
vn 70.710678 70.710678 -0.000000
vn 86.602540 50.000000 -0.000000
vn 86.602540 50.000000 -0.000000
vn 96.592583 25.881905 -0.000000
vn 96.592583 25.881905 -0.000000
vn 100.000000 -0.000000 -0.000000
vn 100.000000 -0.000000 -0.000000
vn 96.592583 -25.881905 -0.000000
vn 96.592583 -25.881905 -0.000000
vn 86.602540 -50.000000 -0.000000
vn 86.602540 -50.000000 -0.000000
vn 70.710678 -70.710678 -0.000000
vn 70.710678 -70.710678 -0.000000
vn 50.000000 -86.602540 -0.000000
vn 50.000000 -86.602540 -0.000000
vn 4.268053 0.000000 -99.908877
vn -0.000000 0.000000 -100.000000
vn -17.470574 -0.000000 -98.462069
vn -25.881905 -0.000000 -96.592583
vn -41.621415 -0.000000 -90.926662
vn -50.000000 -0.000000 -86.602540
vn -63.108297 -0.000000 -77.571534
vn -70.710678 -0.000000 -70.710678
vn -80.555960 -0.000000 -59.251475
vn -86.602540 -0.000000 -50.000000
vn -92.847675 -0.000000 -37.139052
vn -96.592583 -0.000000 -25.881905
vn -99.196717 -0.000000 -12.649560
vn -100.000000 -0.000000 0.000000
vn -99.196717 -0.000000 12.649560
vn -96.592583 -0.000000 25.881905
vn -92.847675 -0.000000 37.139052
vn -86.602540 -0.000000 50.000000
vn -80.555960 -0.000000 59.251475
vn -70.710678 -0.000000 70.710678
vn -63.108297 -0.000000 77.571534
vn -50.000000 -0.000000 86.602540
vn -41.621415 -0.000000 90.926662
vn -25.881905 -0.000000 96.592583
vn -17.470574 -0.000000 98.462069
vn 0.000000 -0.000000 100.000000
vn 4.268053 0.000000 99.908877
vn 25.804092 0.000000 96.613399
vn 25.804092 0.000000 96.613399
vn 46.115312 0.000000 88.732058
vn 50.000000 0.000000 86.602540
vn 64.237616 0.000000 76.638950
vn 70.710678 0.000000 70.710678
vn 79.310810 0.000000 60.908090
vn 86.602540 0.000000 50.000000
vn 90.619428 0.000000 42.286159
vn 96.592583 0.000000 25.881905
vn 97.626694 0.000000 21.657068
vn 100.000000 0.000000 -0.000000
vn 100.000000 0.000000 -0.000000
vn 97.626694 0.000000 -21.657068
vn 96.592583 0.000000 -25.881905
vn 90.619428 0.000000 -42.286159
vn 86.602540 0.000000 -50.000000
vn 79.310810 0.000000 -60.908090
vn 70.710678 0.000000 -70.710678
vn 64.237616 0.000000 -76.638950
vn 50.000000 0.000000 -86.602540
vn 46.115312 0.000000 -88.732058
vn 25.804092 0.000000 -96.613399
vn 25.804092 0.000000 -96.613399
vn 4.268053 0.000000 99.908877
vn -17.470574 -0.000000 98.462069
vn -41.621415 -0.000000 90.926662
vn -63.108297 -0.000000 77.571534
vn -80.555960 -0.000000 59.251475
vn -92.847675 -0.000000 37.139052
vn -99.196717 -0.000000 12.649560
vn -99.196717 -0.000000 -12.649560
vn -92.847675 -0.000000 -37.139052
vn -80.555960 -0.000000 -59.251475
vn -63.108297 -0.000000 -77.571534
vn -41.621415 -0.000000 -90.926662
vn -17.470574 -0.000000 -98.462069
vn 4.268053 0.000000 -99.908877
vn 25.804092 0.000000 -96.613399
vn 46.115312 0.000000 -88.732058
vn 64.237616 0.000000 -76.638950
vn 79.310810 0.000000 -60.908090
vn 90.619428 0.000000 -42.286159
vn 97.626694 0.000000 -21.657068
vn 100.000000 0.000000 -0.000000
vn 97.626694 0.000000 21.657068
vn 90.619428 0.000000 42.286159
vn 79.310810 0.000000 60.908090
vn 64.237616 0.000000 76.638950
vn 46.115312 0.000000 88.732058
vn 25.804092 0.000000 96.613399
vn -50.000000 -86.602540 0.000000
vn -50.000000 -86.602540 0.000000
vn -50.000000 -86.602540 0.000000
vn -50.000000 -86.602540 0.000000
vn -50.000000 -86.602540 0.000000
vn -50.000000 -86.602540 0.000000
vn -50.000000 -86.602540 0.000000
vn -50.000000 -86.602540 0.000000
vn -50.000000 -86.602540 0.000000
vn -50.000000 -86.602540 0.000000
vn -50.000000 -86.602540 0.000000
vn -50.000000 -86.602540 0.000000
vn -50.000000 -86.602540 0.000000
vn -50.000000 -86.602540 0.000000
vn -50.000000 -86.602540 0.000000
vn -50.000000 -86.602540 0.000000
vn -50.000000 -86.602540 0.000000
vn -50.000000 -86.602540 0.000000
vn -50.000000 -86.602540 0.000000
vn -50.000000 -86.602540 0.000000
vn -50.000000 -86.602540 0.000000
vn 0.000000 100.000000 -0.000000
vn 0.000000 100.000000 -0.000000
vn 0.000000 100.000000 -0.000000
vn 0.000000 100.000000 -0.000000
vn 0.000000 100.000000 -0.000000
vn 0.000000 100.000000 -0.000000
vn 0.000000 100.000000 -0.000000
vn 0.000000 100.000000 -0.000000
vn 0.000000 100.000000 -0.000000
vn 0.000000 100.000000 -0.000000
vn 0.000000 100.000000 -0.000000
vn 0.000000 100.000000 -0.000000
vn 0.000000 100.000000 -0.000000
vn 0.000000 100.000000 -0.000000
vn -0.000000 0.000000 -100.000000
vn -0.000000 0.000000 -100.000000
vn -0.000000 0.000000 -100.000000
vn -0.000000 0.000000 -100.000000
vn -0.000000 0.000000 -100.000000
vn -0.000000 0.000000 -100.000000
vn -0.000000 0.000000 -100.000000
vn -0.000000 0.000000 -100.000000
vn -0.000000 0.000000 -100.000000
vn -0.000000 0.000000 -100.000000
vn -0.000000 0.000000 -100.000000
vn -0.000000 0.000000 -100.000000
vn -0.000000 0.000000 -100.000000
vn -0.000000 0.000000 -100.000000
vn -0.000000 0.000000 -100.000000
vn -0.000000 0.000000 -100.000000
vn -0.000000 0.000000 -100.000000
vn -0.000000 0.000000 -100.000000
vn -0.000000 0.000000 -100.000000
vn -0.000000 0.000000 -100.000000
vn -0.000000 0.000000 -100.000000
vn -0.000000 0.000000 -100.000000
vn -0.000000 0.000000 -100.000000
vn -0.000000 0.000000 -100.000000
vn -0.000000 0.000000 -100.000000
vn -0.000000 0.000000 -100.000000
vn -0.000000 0.000000 -100.000000
vn -0.000000 0.000000 -100.000000
vn -0.000000 0.000000 -100.000000
vn -0.000000 0.000000 -100.000000
vn -0.000000 0.000000 -100.000000
vn -0.000000 0.000000 -100.000000
vn -0.000000 0.000000 -100.000000
vn -0.000000 0.000000 -100.000000
vn -0.000000 0.000000 -100.000000
vn -0.000000 0.000000 -100.000000
vn -0.000000 0.000000 -100.000000
vn -0.000000 0.000000 -100.000000
vn -0.000000 0.000000 -100.000000
vn -0.000000 0.000000 -100.000000
vn -0.000000 0.000000 -100.000000
vn -0.000000 0.000000 -100.000000
vn -0.000000 0.000000 -100.000000
vn -0.000000 0.000000 -100.000000
vn -0.000000 0.000000 -100.000000
vn -0.000000 0.000000 -100.000000
vn -0.000000 0.000000 -100.000000
vn -0.000000 0.000000 -100.000000
vn -0.000000 0.000000 -100.000000
vn -0.000000 0.000000 -100.000000
vn -0.000000 0.000000 -100.000000
vn -0.000000 0.000000 -100.000000
vn -0.000000 0.000000 -100.000000
vn -0.000000 0.000000 -100.000000
vn -0.000000 0.000000 -100.000000
vn -0.000000 0.000000 -100.000000
vn -0.000000 0.000000 -100.000000
vn -0.000000 0.000000 -100.000000
vn -0.000000 0.000000 -100.000000
vn -0.000000 0.000000 -100.000000
vn -0.000000 0.000000 -100.000000
vn 0.000000 -0.000000 100.000000
vn 0.000000 -0.000000 100.000000
vn 0.000000 -0.000000 100.000000
vn 0.000000 -0.000000 100.000000
vn 0.000000 -0.000000 100.000000
vn 0.000000 -0.000000 100.000000
vn 0.000000 -0.000000 100.000000
vn 0.000000 -0.000000 100.000000
vn 0.000000 -0.000000 100.000000
vn 0.000000 -0.000000 100.000000
vn 0.000000 -0.000000 100.000000
vn 0.000000 -0.000000 100.000000
vn 0.000000 -0.000000 100.000000
vn 0.000000 -0.000000 100.000000
vn 0.000000 -0.000000 100.000000
vn 0.000000 -0.000000 100.000000
vn 0.000000 -0.000000 100.000000
vn 0.000000 -0.000000 100.000000
vn 0.000000 -0.000000 100.000000
vn 0.000000 -0.000000 100.000000
vn 0.000000 -0.000000 100.000000
vn 0.000000 -0.000000 100.000000
vn 0.000000 -0.000000 100.000000
vn 0.000000 -0.000000 100.000000
vn 0.000000 -0.000000 100.000000
vn 0.000000 -0.000000 100.000000
vn 0.000000 -0.000000 100.000000
vn 0.000000 -0.000000 100.000000
vn 0.000000 -0.000000 100.000000
vn 0.000000 -0.000000 100.000000
vn 0.000000 -0.000000 100.000000
vn 0.000000 -0.000000 100.000000
vn 0.000000 -0.000000 100.000000
vn 0.000000 -0.000000 100.000000
vn 0.000000 -0.000000 100.000000
vn 0.000000 -0.000000 100.000000
vn 0.000000 -0.000000 100.000000
vn 0.000000 -0.000000 100.000000
vn 0.000000 -0.000000 100.000000
vn 0.000000 -0.000000 100.000000
vn 0.000000 -0.000000 100.000000
vn 0.000000 -0.000000 100.000000
vn 0.000000 -0.000000 100.000000
vn 0.000000 -0.000000 100.000000
vn 0.000000 -0.000000 100.000000
vn 0.000000 -0.000000 100.000000
vn 0.000000 -0.000000 100.000000
vn 0.000000 -0.000000 100.000000
vn 0.000000 -0.000000 100.000000
vn 0.000000 -0.000000 100.000000
vn 0.000000 -0.000000 100.000000
vn 0.000000 -0.000000 100.000000
vn 0.000000 -0.000000 100.000000
vn 0.000000 -0.000000 100.000000
vn 0.000000 -0.000000 100.000000
vn 0.000000 -0.000000 100.000000
vn 0.000000 -0.000000 100.000000
vn 0.000000 -0.000000 100.000000
vn 0.000000 -0.000000 100.000000
vn 0.000000 -0.000000 100.000000
vn 0.000000 -0.000000 100.000000
vn 0.000000 -100.000000 -0.000000
vn 0.000000 -100.000000 -0.000000
vn 0.000000 -100.000000 -0.000000
vn 0.000000 -100.000000 -0.000000
vn 0.000000 -100.000000 -0.000000
vn 0.000000 -100.000000 -0.000000
vn 0.000000 -100.000000 -0.000000
vn 0.000000 -100.000000 -0.000000
vn 0.000000 -100.000000 -0.000000
vn 0.000000 -100.000000 -0.000000
vn 0.000000 -100.000000 -0.000000
vn 0.000000 -100.000000 -0.000000
vn 0.000000 -100.000000 -0.000000
vn 0.000000 -100.000000 -0.000000
vn -100.000000 0.000000 0.000000
vn -100.000000 0.000000 0.000000
vn -100.000000 0.000000 0.000000
vn -100.000000 0.000000 0.000000
vn -50.000000 86.602540 0.000000
vn -50.000000 86.602540 0.000000
vn -50.000000 86.602540 0.000000
vn -50.000000 86.602540 0.000000
vn -50.000000 86.602540 0.000000
vn -50.000000 86.602540 0.000000
vn -50.000000 86.602540 0.000000
vn -50.000000 86.602540 0.000000
vn -50.000000 86.602540 0.000000
vn -50.000000 86.602540 0.000000
vn -50.000000 86.602540 0.000000
vn -50.000000 86.602540 0.000000
vn -50.000000 86.602540 0.000000
vn -50.000000 86.602540 0.000000
vn -50.000000 86.602540 0.000000
vn -50.000000 86.602540 0.000000
vn -50.000000 86.602540 0.000000
vn -50.000000 86.602540 0.000000
vn -50.000000 86.602540 0.000000
vn -50.000000 86.602540 0.000000
vn -50.000000 86.602540 0.000000
usemtl Steel_-_Satin
f 66/1/1 1/2/2 65/3/3
f 65/3/3 1/2/2 2/4/4
f 65/3/3 2/4/4 3/5/5
f 65/3/3 3/5/5 64/6/6
f 64/6/6 3/5/5 4/7/7
f 64/6/6 4/7/7 63/8/8
f 63/8/8 4/7/7 5/9/9
f 63/8/8 5/9/9 62/10/10
f 62/10/10 5/9/9 61/11/11
f 61/11/11 5/9/9 6/12/12
f 61/11/11 6/12/12 7/13/13
f 61/11/11 7/13/13 60/14/14
f 60/14/14 7/13/13 8/15/15
f 60/14/14 8/15/15 59/16/16
f 59/16/16 8/15/15 9/17/17
f 59/16/16 9/17/17 58/18/18
f 58/18/18 9/17/17 10/19/19
f 58/18/18 10/19/19 57/20/20
f 57/20/20 10/19/19 56/21/21
f 56/21/21 10/19/19 11/22/22
f 56/21/21 11/22/22 12/23/23
f 56/21/21 12/23/23 55/24/24
f 55/24/24 12/23/23 13/25/25
f 55/24/24 13/25/25 54/26/26
f 54/26/26 13/25/25 14/27/27
f 54/26/26 14/27/27 53/28/28
f 53/28/28 14/27/27 52/29/29
f 52/29/29 14/27/27 15/30/30
f 52/29/29 15/30/30 16/31/31
f 52/29/29 16/31/31 51/32/32
f 51/32/32 16/31/31 17/33/33
f 51/32/32 17/33/33 50/34/34
f 50/34/34 17/33/33 18/35/35
f 50/34/34 18/35/35 49/36/36
f 49/36/36 18/35/35 19/37/37
f 49/36/36 19/37/37 48/38/38
f 48/38/38 19/37/37 47/39/39
f 47/39/39 19/37/37 20/40/40
f 47/39/39 20/40/40 21/41/41
f 47/39/39 21/41/41 46/42/42
f 46/42/42 21/41/41 22/43/43
f 46/42/42 22/43/43 45/44/44
f 45/44/44 22/43/43 23/45/45
f 45/44/44 23/45/45 44/46/46
f 44/46/46 23/45/45 43/47/47
f 43/47/47 23/45/45 24/48/48
f 43/47/47 24/48/48 25/49/49
f 43/47/47 25/49/49 42/50/50
f 42/50/50 25/49/49 26/51/51
f 42/50/50 26/51/51 41/52/52
f 41/52/52 26/51/51 27/53/53
f 41/52/52 27/53/53 40/54/54
f 40/54/54 27/53/53 28/55/55
f 40/54/54 28/55/55 39/56/56
f 39/56/56 28/55/55 38/57/57
f 38/57/57 28/55/55 29/58/58
f 38/57/57 29/58/58 30/59/59
f 38/57/57 30/59/59 37/60/60
f 37/60/60 30/59/59 31/61/61
f 37/60/60 31/61/61 36/62/62
f 36/62/62 31/61/61 32/63/63
f 36/62/62 32/63/63 35/64/64
f 35/64/64 32/63/63 34/65/65
f 34/65/65 32/63/63 33/66/66
f 68/67/67 114/68/68 67/69/69
f 67/69/69 114/68/68 91/70/70
f 67/71/69 91/72/70 90/73/71
f 90/73/71 91/72/70 92/74/72
f 90/73/71 92/74/72 89/75/73
f 89/75/73 92/74/72 93/76/74
f 89/75/73 93/76/74 88/77/75
f 88/77/75 93/76/74 94/78/76
f 88/77/75 94/78/76 87/79/77
f 87/79/77 94/78/76 95/80/78
f 87/79/77 95/80/78 86/81/79
f 86/81/79 95/80/78 96/82/80
f 86/81/79 96/82/80 85/83/81
f 85/83/81 96/82/80 97/84/82
f 85/83/81 97/84/82 84/85/83
f 84/85/83 97/84/82 98/86/84
f 84/85/83 98/86/84 83/87/85
f 83/87/85 98/86/84 99/88/86
f 83/87/85 99/88/86 82/89/87
f 82/89/87 99/88/86 100/90/88
f 82/89/87 100/90/88 81/91/89
f 81/91/89 100/90/88 101/92/90
f 81/91/89 101/92/90 80/93/91
f 80/93/91 101/92/90 102/94/92
f 80/93/91 102/94/92 79/95/93
f 79/95/93 102/94/92 103/96/94
f 79/95/93 103/96/94 78/97/95
f 78/97/95 103/96/94 104/98/96
f 78/97/95 104/98/96 77/99/97
f 77/99/97 104/98/96 105/100/98
f 77/99/97 105/100/98 76/101/99
f 76/101/99 105/100/98 106/102/100
f 76/101/99 106/102/100 75/103/101
f 75/103/101 106/102/100 107/104/102
f 75/103/101 107/104/102 74/105/103
f 74/105/103 107/104/102 108/106/104
f 74/105/103 108/106/104 73/107/105
f 73/107/105 108/106/104 109/108/106
f 73/107/105 109/108/106 72/109/107
f 72/109/107 109/108/106 110/110/108
f 72/109/107 110/110/108 71/111/109
f 71/111/109 110/110/108 111/112/110
f 71/111/109 111/112/110 70/113/111
f 70/113/111 111/112/110 112/114/112
f 70/113/111 112/114/112 69/115/113
f 69/115/113 112/114/112 113/116/114
f 69/115/113 113/116/114 68/67/67
f 68/67/67 113/116/114 114/68/68
f 116/117/115 170/118/116 115/119/117
f 115/119/117 170/118/116 169/120/118
f 115/119/117 169/120/118 141/121/119
f 141/121/119 169/120/118 192/122/120
f 141/121/119 192/122/120 140/123/121
f 140/123/121 192/122/120 191/124/122
f 140/123/121 191/124/122 139/125/123
f 139/125/123 191/124/122 190/126/124
f 139/125/123 190/126/124 138/127/125
f 138/127/125 190/126/124 189/128/126
f 138/127/125 189/128/126 137/129/127
f 137/129/127 189/128/126 188/130/128
f 137/129/127 188/130/128 136/131/129
f 136/131/129 188/130/128 187/132/130
f 136/131/129 187/132/130 135/133/131
f 135/133/131 187/132/130 186/134/132
f 135/133/131 186/134/132 134/135/133
f 134/135/133 186/134/132 185/136/134
f 134/135/133 185/136/134 133/137/135
f 133/137/135 185/136/134 184/138/136
f 133/137/135 184/138/136 132/139/137
f 132/139/137 184/138/136 183/140/138
f 132/139/137 183/140/138 131/141/139
f 131/141/139 183/140/138 182/142/140
f 131/141/139 182/142/140 130/143/141
f 130/144/141 182/145/140 181/146/142
f 130/144/141 181/146/142 129/147/143
f 129/147/143 181/146/142 128/148/144
f 128/148/144 181/146/142 180/149/145
f 128/148/144 180/149/145 127/150/146
f 127/150/146 180/149/145 179/151/147
f 127/150/146 179/151/147 126/152/148
f 126/152/148 179/151/147 178/153/149
f 126/152/148 178/153/149 125/154/150
f 125/154/150 178/153/149 177/155/151
f 125/154/150 177/155/151 124/156/152
f 124/156/152 177/155/151 176/157/153
f 124/156/152 176/157/153 123/158/154
f 123/158/154 176/157/153 122/159/155
f 122/159/155 176/157/153 175/160/156
f 122/159/155 175/160/156 121/161/157
f 121/161/157 175/160/156 174/162/158
f 121/161/157 174/162/158 120/163/159
f 120/163/159 174/162/158 173/164/160
f 120/163/159 173/164/160 119/165/161
f 119/165/161 173/164/160 172/166/162
f 119/165/161 172/166/162 118/167/163
f 118/167/163 172/166/162 171/168/164
f 118/167/163 171/168/164 117/169/165
f 117/169/165 171/168/164 116/117/115
f 116/117/115 171/168/164 170/118/116
f 143/170/166 182/145/140 142/171/167
f 142/172/167 182/142/140 183/140/138
f 142/172/167 183/140/138 168/173/168
f 168/173/168 183/140/138 184/138/136
f 168/173/168 184/138/136 167/174/169
f 167/174/169 184/138/136 185/136/134
f 167/174/169 185/136/134 166/175/170
f 166/175/170 185/136/134 186/134/132
f 166/175/170 186/134/132 165/176/171
f 165/176/171 186/134/132 187/132/130
f 165/176/171 187/132/130 164/177/172
f 164/177/172 187/132/130 188/130/128
f 164/177/172 188/130/128 163/178/173
f 163/178/173 188/130/128 189/128/126
f 163/178/173 189/128/126 162/179/174
f 162/179/174 189/128/126 190/126/124
f 162/179/174 190/126/124 161/180/175
f 161/180/175 190/126/124 191/124/122
f 161/180/175 191/124/122 160/181/176
f 160/181/176 191/124/122 192/122/120
f 160/181/176 192/122/120 159/182/177
f 159/182/177 192/122/120 169/120/118
f 159/182/177 169/120/118 158/183/178
f 158/183/178 169/120/118 170/118/116
f 158/183/178 170/118/116 157/184/179
f 157/184/179 170/118/116 171/168/164
f 157/184/179 171/168/164 156/185/180
f 156/185/180 171/168/164 155/186/181
f 155/186/181 171/168/164 172/166/162
f 155/186/181 172/166/162 154/187/182
f 154/187/182 172/166/162 173/164/160
f 154/187/182 173/164/160 153/188/183
f 153/188/183 173/164/160 174/162/158
f 153/188/183 174/162/158 152/189/184
f 152/189/184 174/162/158 175/160/156
f 152/189/184 175/160/156 151/190/185
f 151/190/185 175/160/156 176/157/153
f 151/190/185 176/157/153 150/191/186
f 150/191/186 176/157/153 149/192/187
f 149/192/187 176/157/153 177/155/151
f 149/192/187 177/155/151 148/193/188
f 148/193/188 177/155/151 178/153/149
f 148/193/188 178/153/149 147/194/189
f 147/194/189 178/153/149 179/151/147
f 147/194/189 179/151/147 146/195/190
f 146/195/190 179/151/147 180/149/145
f 146/195/190 180/149/145 145/196/191
f 145/196/191 180/149/145 181/146/142
f 145/196/191 181/146/142 144/197/192
f 144/197/192 181/146/142 143/170/166
f 143/170/166 181/146/142 182/145/140
f 131/198/193 130/199/194 196/200/195
f 196/200/195 130/199/194 129/201/196
f 196/200/195 129/201/196 128/202/197
f 128/202/197 127/203/198 196/200/195
f 196/200/195 127/203/198 195/204/199
f 195/204/199 127/203/198 126/205/200
f 195/204/199 126/205/200 125/206/201
f 125/206/201 124/207/202 195/204/199
f 195/204/199 124/207/202 194/208/203
f 194/208/203 124/207/202 123/209/204
f 194/208/203 123/209/204 122/210/205
f 122/210/205 121/211/206 194/208/203
f 194/208/203 121/211/206 120/212/207
f 194/208/203 120/212/207 119/213/208
f 119/213/208 118/214/209 194/208/203
f 194/208/203 118/214/209 193/215/210
f 193/215/210 118/214/209 117/216/211
f 193/215/210 117/216/211 116/217/212
f 116/217/212 115/218/213 193/215/210
f 142/219/214 168/220/215 198/221/216
f 198/221/216 168/220/215 167/222/217
f 198/221/216 167/222/217 33/223/66
f 33/223/66 167/222/217 166/224/218
f 33/223/66 166/224/218 165/225/219
f 165/225/219 164/226/220 33/223/66
f 33/223/66 164/226/220 34/227/65
f 34/227/65 164/226/220 163/228/221
f 34/227/65 163/228/221 162/229/222
f 162/229/222 161/230/223 34/227/65
f 34/227/65 161/230/223 160/231/224
f 34/227/65 160/231/224 197/232/225
f 197/232/225 160/231/224 159/233/226
f 197/232/225 159/233/226 158/234/227
f 114/235/228 23/236/229 91/237/230
f 91/237/230 23/236/229 22/238/231
f 91/237/230 22/238/231 21/239/232
f 113/240/233 33/241/234 114/235/228
f 114/235/228 33/241/234 26/242/235
f 114/235/228 26/242/235 25/243/236
f 33/241/234 113/240/233 198/244/237
f 198/244/237 113/240/233 112/245/238
f 198/244/237 112/245/238 111/246/239
f 111/246/239 110/247/240 198/244/237
f 198/244/237 110/247/240 199/248/241
f 199/248/241 110/247/240 109/249/242
f 199/248/241 109/249/242 195/250/243
f 195/250/243 109/249/242 108/251/244
f 195/250/243 108/251/244 196/252/245
f 196/252/245 108/251/244 107/253/246
f 196/252/245 107/253/246 106/254/247
f 106/254/247 105/255/248 196/252/245
f 196/252/245 105/255/248 1/256/249
f 1/256/249 105/255/248 104/257/250
f 1/256/249 104/257/250 8/258/251
f 8/258/251 104/257/250 9/259/252
f 9/259/252 104/257/250 10/260/253
f 10/260/253 104/257/250 11/261/254
f 11/261/254 104/257/250 103/262/255
f 11/261/254 103/262/255 12/263/256
f 12/263/256 103/262/255 13/264/257
f 13/264/257 103/262/255 102/265/258
f 13/264/257 102/265/258 14/266/259
f 14/266/259 102/265/258 101/267/260
f 14/266/259 101/267/260 100/268/261
f 14/266/259 100/268/261 15/269/262
f 15/269/262 100/268/261 99/270/263
f 15/269/262 99/270/263 16/271/264
f 16/271/264 99/270/263 98/272/265
f 16/271/264 98/272/265 17/273/266
f 17/273/266 98/272/265 97/274/267
f 17/273/266 97/274/267 96/275/268
f 17/273/266 96/275/268 18/276/269
f 18/276/269 96/275/268 95/277/270
f 18/276/269 95/277/270 19/278/271
f 19/278/271 95/277/270 94/279/272
f 19/278/271 94/279/272 20/280/273
f 20/280/273 94/279/272 93/281/274
f 20/280/273 93/281/274 92/282/275
f 20/280/273 92/282/275 21/239/232
f 21/239/232 92/282/275 91/237/230
f 32/283/276 31/284/277 33/241/234
f 33/241/234 31/284/277 30/285/278
f 33/241/234 30/285/278 29/286/279
f 29/286/279 28/287/280 33/241/234
f 33/241/234 28/287/280 27/288/281
f 33/241/234 27/288/281 26/242/235
f 25/243/236 24/289/282 114/235/228
f 114/235/228 24/289/282 23/236/229
f 8/258/251 7/290/283 1/256/249
f 1/256/249 7/290/283 6/291/284
f 1/256/249 6/291/284 5/292/285
f 5/292/285 4/293/286 1/256/249
f 1/256/249 4/293/286 3/294/287
f 1/256/249 3/294/287 2/295/288
f 90/296/289 46/297/290 67/298/291
f 67/298/291 46/297/290 45/299/292
f 67/298/291 45/299/292 44/300/293
f 46/297/290 90/296/289 47/301/294
f 47/301/294 90/296/289 89/302/295
f 47/301/294 89/302/295 88/303/296
f 47/301/294 88/303/296 48/304/297
f 48/304/297 88/303/296 87/305/298
f 48/304/297 87/305/298 49/306/299
f 49/306/299 87/305/298 86/307/300
f 49/306/299 86/307/300 50/308/301
f 50/308/301 86/307/300 85/309/302
f 50/308/301 85/309/302 84/310/303
f 50/308/301 84/310/303 51/311/304
f 51/311/304 84/310/303 83/312/305
f 51/311/304 83/312/305 52/313/306
f 52/313/306 83/312/305 82/314/307
f 52/313/306 82/314/307 53/315/308
f 53/315/308 82/314/307 81/316/309
f 53/315/308 81/316/309 80/317/310
f 53/315/308 80/317/310 54/318/311
f 54/318/311 80/317/310 79/319/312
f 54/318/311 79/319/312 55/320/313
f 55/320/313 79/319/312 56/321/314
f 56/321/314 79/319/312 78/322/315
f 56/321/314 78/322/315 57/323/316
f 57/323/316 78/322/315 58/324/317
f 58/324/317 78/322/315 59/325/318
f 59/325/318 78/322/315 66/326/319
f 59/325/318 66/326/319 60/327/320
f 60/327/320 66/326/319 61/328/321
f 61/328/321 66/326/319 62/329/322
f 62/329/322 66/326/319 63/330/323
f 63/330/323 66/326/319 64/331/324
f 64/331/324 66/326/319 65/332/325
f 78/322/315 77/333/326 66/326/319
f 66/326/319 77/333/326 193/334/327
f 193/334/327 77/333/326 76/335/328
f 193/334/327 76/335/328 75/336/329
f 75/336/329 74/337/330 193/334/327
f 193/334/327 74/337/330 194/338/331
f 194/338/331 74/337/330 73/339/332
f 194/338/331 73/339/332 200/340/333
f 200/340/333 73/339/332 72/341/334
f 200/340/333 72/341/334 197/342/335
f 197/342/335 72/341/334 71/343/336
f 197/342/335 71/343/336 70/344/337
f 70/344/337 69/345/338 197/342/335
f 197/342/335 69/345/338 34/346/339
f 34/346/339 69/345/338 68/347/340
f 34/346/339 68/347/340 41/348/341
f 41/348/341 68/347/340 42/349/342
f 42/349/342 68/347/340 43/350/343
f 43/350/343 68/347/340 44/300/293
f 44/300/293 68/347/340 67/298/291
f 41/348/341 40/351/344 34/346/339
f 34/346/339 40/351/344 39/352/345
f 34/346/339 39/352/345 38/353/346
f 38/353/346 37/354/347 34/346/339
f 34/346/339 37/354/347 36/355/348
f 34/346/339 36/355/348 35/356/349
f 115/357/350 141/358/351 193/359/352
f 193/359/352 141/358/351 140/360/353
f 193/359/352 140/360/353 66/361/1
f 66/361/1 140/360/353 139/362/354
f 66/361/1 139/362/354 138/363/355
f 138/363/355 137/364/356 66/361/1
f 66/361/1 137/364/356 136/365/357
f 66/361/1 136/365/357 1/366/2
f 1/366/2 136/365/357 135/367/358
f 1/366/2 135/367/358 134/368/359
f 134/368/359 133/369/360 1/366/2
f 1/366/2 133/369/360 196/370/361
f 196/370/361 133/369/360 132/371/362
f 196/370/361 132/371/362 131/372/363
f 199/373/364 195/374/365 200/375/366
f 200/375/366 195/374/365 194/376/367
f 158/377/368 157/378/369 197/379/370
f 197/379/370 157/378/369 156/380/371
f 197/379/370 156/380/371 155/381/372
f 197/379/370 155/381/372 200/382/373
f 200/382/373 155/381/372 154/383/374
f 200/382/373 154/383/374 153/384/375
f 153/384/375 152/385/376 200/382/373
f 200/382/373 152/385/376 151/386/377
f 200/382/373 151/386/377 150/387/378
f 150/387/378 149/388/379 200/382/373
f 200/382/373 149/388/379 199/389/380
f 199/389/380 149/388/379 148/390/381
f 199/389/380 148/390/381 147/391/382
f 147/391/382 146/392/383 199/389/380
f 199/389/380 146/392/383 198/393/384
f 198/393/384 146/392/383 145/394/385
f 198/393/384 145/394/385 144/395/386
f 144/395/386 143/396/387 198/393/384
f 198/393/384 143/396/387 142/397/388
# 200 vertices
# 397 texture params
# 388 normals
# 404 facets

# 1 groups
